{"glyphs":{"0":{"ha":882,"x_min":88,"x_max":796,"o":"m 440 -14 q 178 90 261 -14 q 89 364 94 194 q 88 485 88 401 q 89 610 88 571 q 178 881 93 776 q 440 986 263 986 q 704 881 619 986 q 793 610 789 776 q 796 485 796 532 q 793 364 796 439 q 704 90 788 194 q 440 -14 621 -14 m 440 106 q 598 175 544 106 q 654 371 651 244 q 657 488 657 451 q 654 601 657 526 q 599 797 651 726 q 440 868 546 868 q 283 797 336 868 q 226 601 229 726 l 225 488 l 226 371 q 283 175 229 244 q 440 106 336 106 z "},"1":{"ha":594,"x_min":33,"x_max":489,"o":"m 383 0 q 360 9 369 0 q 351 32 351 18 l 351 810 l 121 632 q 100 624 111 624 q 76 638 88 624 l 40 683 q 33 703 33 693 q 47 729 33 719 l 350 963 q 386 972 365 972 l 457 972 q 480 963 471 972 q 489 940 489 954 l 489 32 q 480 9 489 18 q 457 0 471 0 l 383 0 z "},"2":{"ha":815,"x_min":68,"x_max":746,"o":"m 100 0 q 77 9 86 0 q 68 32 68 18 l 68 76 q 103 138 68 108 l 397 432 q 544 577 504 521 q 585 696 585 633 q 540 822 585 776 q 408 868 494 868 q 279 820 328 868 q 219 693 231 772 q 206 669 217 676 q 183 661 196 661 l 111 661 q 90 669 99 661 q 82 688 82 676 q 122 831 85 763 q 233 944 160 900 q 408 988 306 988 q 645 906 565 988 q 725 700 725 825 q 681 542 725 613 q 546 392 638 472 l 279 121 l 713 121 q 737 112 728 121 q 746 89 746 103 l 746 32 q 736 9 746 18 q 713 0 726 0 l 100 0 z "},"3":{"ha":835,"x_min":60,"x_max":768,"o":"m 414 -14 q 224 22 304 -14 q 103 114 144 57 q 60 233 63 171 q 68 253 60 246 q 89 261 76 261 l 157 261 q 196 231 186 261 q 274 133 214 161 q 414 104 333 104 q 571 151 513 104 q 629 285 629 197 q 425 453 629 453 l 293 453 q 270 462 279 453 q 261 485 261 471 l 261 522 q 276 560 261 542 l 546 854 l 136 854 q 113 863 122 854 q 104 886 104 872 l 104 939 q 113 963 104 953 q 136 972 122 972 l 690 972 q 715 963 706 972 q 724 939 724 954 l 724 889 q 708 857 724 872 l 440 558 l 463 557 q 686 483 604 553 q 768 281 768 414 q 722 124 768 190 q 596 22 676 57 q 414 -14 515 -14 z "},"4":{"ha":863,"x_min":43,"x_max":817,"o":"m 557 0 q 534 9 543 0 q 525 32 525 18 l 525 232 l 75 232 q 52 241 61 232 q 43 264 43 250 l 43 319 q 58 361 43 340 l 475 949 q 496 966 482 960 q 526 972 510 972 l 626 972 q 649 963 640 972 q 658 940 658 954 l 658 353 l 783 353 q 807 344 797 353 q 817 321 817 335 l 817 264 q 808 241 817 250 q 785 232 799 232 l 658 232 l 658 32 q 649 9 658 18 q 626 0 640 0 l 557 0 m 526 350 l 526 826 l 192 350 l 526 350 z "},"5":{"ha":825,"x_min":63,"x_max":761,"o":"m 406 -14 q 224 24 300 -14 q 106 122 147 61 q 63 253 65 183 l 63 256 q 71 274 63 267 q 90 281 79 281 l 165 281 q 203 250 194 281 q 278 140 222 176 q 406 104 333 104 q 560 160 499 104 q 622 317 622 217 q 560 463 622 407 q 406 518 499 518 q 325 505 356 518 q 264 468 294 492 q 235 449 247 456 q 210 443 224 443 l 138 443 q 115 452 125 443 q 107 474 106 461 l 151 938 q 162 963 153 954 q 186 972 171 972 l 671 972 q 694 963 685 972 q 703 940 703 954 l 703 886 q 694 863 703 872 q 671 854 685 854 l 271 854 l 244 581 q 425 628 319 628 q 594 590 517 628 q 716 482 671 553 q 761 315 761 411 q 716 138 761 213 q 590 25 671 64 q 406 -14 510 -14 z "},"6":{"ha":838,"x_min":67,"x_max":785,"o":"m 428 -14 q 235 31 317 -14 q 110 153 153 76 q 67 319 67 229 q 97 459 67 393 q 164 576 126 525 l 428 944 q 436 954 429 946 q 451 967 442 963 q 474 972 461 972 l 547 972 q 567 963 560 972 q 575 942 575 954 q 569 924 575 932 l 367 640 q 446 650 397 650 q 623 604 546 649 q 742 485 700 560 q 785 321 785 410 q 742 155 785 232 q 619 32 700 78 q 428 -14 538 -14 m 426 104 q 537 129 486 104 q 617 203 588 154 q 647 321 647 253 q 617 436 647 388 q 537 510 588 485 q 426 535 486 535 q 317 510 368 535 q 236 436 267 485 q 206 321 206 388 q 236 203 206 253 q 317 129 267 154 q 426 104 367 104 z "},"7":{"ha":713,"x_min":40,"x_max":675,"o":"m 207 0 q 187 9 194 0 q 179 31 179 18 l 182 43 l 528 851 l 72 851 q 49 860 58 851 q 40 883 40 869 l 40 939 q 49 963 40 954 q 72 972 58 972 l 642 972 q 666 963 657 972 q 675 939 675 954 l 675 888 q 664 833 675 863 l 322 35 q 306 10 315 19 q 282 0 297 0 l 207 0 z "},"8":{"ha":883,"x_min":78,"x_max":806,"o":"m 442 -14 q 251 22 333 -14 q 124 124 169 57 q 78 279 78 190 q 118 423 78 361 q 228 518 158 485 q 142 602 172 550 q 113 724 113 654 q 202 916 113 846 q 442 986 292 986 q 680 916 590 986 q 769 725 769 846 q 740 603 769 656 q 656 518 710 551 q 765 423 725 485 q 806 279 806 361 q 760 124 806 190 q 631 22 714 57 q 442 -14 549 -14 m 442 568 q 582 611 525 569 q 639 721 639 653 q 583 833 639 790 q 442 875 526 875 q 299 833 356 875 q 243 721 243 792 q 299 610 243 651 q 442 568 356 568 m 442 97 q 604 147 539 97 q 669 279 669 197 q 604 410 669 361 q 442 458 539 458 q 278 410 343 458 q 213 279 213 361 q 278 147 213 197 q 442 97 343 97 z "},"9":{"ha":824,"x_min":53,"x_max":756,"o":"m 268 0 q 248 9 256 0 q 240 31 240 18 q 246 49 240 40 l 458 344 q 383 336 425 336 q 209 382 285 338 q 93 500 133 426 q 53 657 53 574 q 92 816 53 740 q 211 939 132 892 q 403 986 290 986 q 595 940 515 986 q 715 819 675 894 q 756 660 756 744 q 729 527 756 585 q 656 401 703 469 l 388 28 q 369 8 378 15 q 343 0 360 0 l 268 0 m 403 449 q 510 474 461 449 q 589 548 560 500 q 618 658 618 596 q 589 769 618 721 q 510 842 560 817 q 403 868 461 868 q 296 842 344 868 q 219 769 247 817 q 190 658 190 721 q 219 548 190 596 q 296 474 247 500 q 403 449 344 449 z "},"\u0000":{"ha":0,"x_min":0,"x_max":0,"o":"m 0 0 z "},"\r":{"ha":340,"x_min":0,"x_max":0,"o":"m 0 0 z "}," ":{"ha":340,"x_min":0,"x_max":0,"o":"m 0 0 z "},"A":{"ha":931,"x_min":28,"x_max":903,"o":"m 56 0 q 36 8 44 0 q 28 28 28 17 q 29 43 28 39 l 374 942 q 418 972 385 972 l 513 972 q 557 942 546 972 l 900 43 l 903 28 q 894 8 903 17 q 875 0 886 0 l 804 0 q 781 8 789 0 q 769 24 772 15 l 693 221 l 238 221 l 161 24 q 149 8 158 15 q 126 0 140 0 l 56 0 m 653 340 l 465 833 l 278 340 l 653 340 z "},"Á":{"ha":931,"x_min":28,"x_max":903,"o":"m 56 0 q 36 8 44 0 q 28 28 28 17 q 29 43 28 39 l 374 942 q 418 972 385 972 l 513 972 q 557 942 546 972 l 900 43 l 903 28 q 894 8 903 17 q 875 0 886 0 l 804 0 q 781 8 789 0 q 769 24 772 15 l 693 221 l 238 221 l 161 24 q 149 8 158 15 q 126 0 140 0 l 56 0 m 653 340 l 465 833 l 278 340 l 653 340 m 426 1042 q 404 1064 404 1042 q 411 1082 404 1075 l 515 1207 q 538 1228 529 1222 q 567 1233 547 1233 l 669 1233 q 689 1226 682 1233 q 696 1206 696 1218 q 689 1189 696 1196 l 528 1057 q 507 1044 517 1047 q 482 1042 497 1042 l 426 1042 z "},"Ă":{"ha":931,"x_min":28,"x_max":903,"o":"m 56 0 q 36 8 44 0 q 28 28 28 17 q 29 43 28 39 l 374 942 q 418 972 385 972 l 513 972 q 557 942 546 972 l 900 43 l 903 28 q 894 8 903 17 q 875 0 886 0 l 804 0 q 781 8 789 0 q 769 24 772 15 l 693 221 l 238 221 l 161 24 q 149 8 158 15 q 126 0 140 0 l 56 0 m 653 340 l 465 833 l 278 340 l 653 340 m 465 1029 q 331 1077 372 1029 q 289 1200 289 1125 q 296 1219 289 1211 q 315 1226 303 1226 l 358 1226 q 378 1219 371 1226 q 385 1200 385 1211 q 403 1138 385 1163 q 465 1113 421 1113 q 528 1138 510 1113 q 546 1200 546 1163 q 553 1219 546 1211 q 572 1226 560 1226 l 615 1226 q 635 1219 628 1226 q 642 1200 642 1211 q 600 1078 642 1126 q 465 1029 558 1029 z "},"Â":{"ha":931,"x_min":28,"x_max":903,"o":"m 56 0 q 36 8 44 0 q 28 28 28 17 q 29 43 28 39 l 374 942 q 418 972 385 972 l 513 972 q 557 942 546 972 l 900 43 l 903 28 q 894 8 903 17 q 875 0 886 0 l 804 0 q 781 8 789 0 q 769 24 772 15 l 693 221 l 238 221 l 161 24 q 149 8 158 15 q 126 0 140 0 l 56 0 m 653 340 l 465 833 l 278 340 l 653 340 m 275 1042 q 254 1058 254 1042 q 269 1085 254 1069 l 397 1213 q 420 1230 411 1226 q 443 1233 429 1233 l 488 1233 q 510 1230 501 1233 q 533 1213 519 1226 l 661 1085 q 676 1058 676 1069 q 656 1042 676 1042 l 618 1042 q 579 1051 593 1042 l 465 1131 l 351 1051 q 313 1042 338 1042 l 275 1042 z "},"Ä":{"ha":931,"x_min":28,"x_max":903,"o":"m 56 0 q 36 8 44 0 q 28 28 28 17 q 29 43 28 39 l 374 942 q 418 972 385 972 l 513 972 q 557 942 546 972 l 900 43 l 903 28 q 894 8 903 17 q 875 0 886 0 l 804 0 q 781 8 789 0 q 769 24 772 15 l 693 221 l 238 221 l 161 24 q 149 8 158 15 q 126 0 140 0 l 56 0 m 653 340 l 465 833 l 278 340 l 653 340 m 288 1042 q 265 1050 274 1042 q 257 1072 257 1058 l 257 1147 q 265 1170 257 1161 q 288 1179 274 1179 l 364 1179 q 387 1170 378 1179 q 396 1147 396 1161 l 396 1072 q 387 1050 396 1058 q 364 1042 378 1042 l 288 1042 m 565 1042 q 542 1050 551 1042 q 533 1072 533 1058 l 533 1147 q 542 1170 533 1161 q 565 1179 551 1179 l 640 1179 q 663 1170 654 1179 q 672 1147 672 1161 l 672 1072 q 663 1050 672 1058 q 640 1042 654 1042 l 565 1042 z "},"À":{"ha":931,"x_min":28,"x_max":903,"o":"m 56 0 q 36 8 44 0 q 28 28 28 17 q 29 43 28 39 l 374 942 q 418 972 385 972 l 513 972 q 557 942 546 972 l 900 43 l 903 28 q 894 8 903 17 q 875 0 886 0 l 804 0 q 781 8 789 0 q 769 24 772 15 l 693 221 l 238 221 l 161 24 q 149 8 158 15 q 126 0 140 0 l 56 0 m 653 340 l 465 833 l 278 340 l 653 340 m 458 1042 q 433 1044 443 1042 q 413 1057 424 1047 l 251 1189 q 244 1206 244 1196 q 251 1226 244 1218 q 271 1233 258 1233 l 374 1233 q 402 1228 393 1233 q 425 1207 411 1222 l 529 1082 q 536 1064 536 1075 q 514 1042 536 1042 l 458 1042 z "},"Ā":{"ha":931,"x_min":28,"x_max":903,"o":"m 56 0 q 36 8 44 0 q 28 28 28 17 q 29 43 28 39 l 374 942 q 418 972 385 972 l 513 972 q 557 942 546 972 l 900 43 l 903 28 q 894 8 903 17 q 875 0 886 0 l 804 0 q 781 8 789 0 q 769 24 772 15 l 693 221 l 238 221 l 161 24 q 149 8 158 15 q 126 0 140 0 l 56 0 m 653 340 l 465 833 l 278 340 l 653 340 m 303 1042 q 281 1050 289 1042 q 272 1072 272 1058 l 272 1125 q 281 1147 272 1139 q 303 1156 289 1156 l 626 1156 q 649 1147 640 1156 q 657 1125 657 1139 l 657 1072 q 649 1050 657 1058 q 626 1042 640 1042 l 303 1042 z "},"Ą":{"ha":931,"x_min":28,"x_max":903,"o":"m 831 -306 q 688 -251 739 -306 q 636 -106 636 -197 q 669 6 636 -39 q 758 63 701 51 q 747 78 753 67 l 693 221 l 238 221 l 161 24 q 149 8 158 15 q 126 0 140 0 l 56 0 q 36 8 44 0 q 28 28 28 17 q 29 43 28 39 l 374 942 q 418 972 385 972 l 513 972 q 557 942 546 972 l 900 43 l 903 28 q 894 8 903 17 q 875 0 886 0 l 833 0 q 763 -29 790 0 q 736 -106 736 -58 q 764 -181 736 -153 q 836 -210 792 -210 l 856 -210 q 878 -219 869 -210 q 888 -242 888 -228 l 888 -274 q 878 -297 888 -287 q 856 -306 869 -306 l 831 -306 m 653 340 l 465 833 l 278 340 l 653 340 z "},"Å":{"ha":931,"x_min":28,"x_max":903,"o":"m 56 0 q 36 8 44 0 q 28 28 28 17 q 29 43 28 39 l 374 942 q 418 972 385 972 l 513 972 q 557 942 546 972 l 900 43 l 903 28 q 894 8 903 17 q 875 0 886 0 l 804 0 q 781 8 789 0 q 769 24 772 15 l 693 221 l 238 221 l 161 24 q 149 8 158 15 q 126 0 140 0 l 56 0 m 653 340 l 465 833 l 278 340 l 653 340 m 465 1028 q 383 1059 417 1028 q 349 1138 349 1090 q 383 1216 349 1185 q 465 1247 417 1247 q 548 1216 514 1247 q 582 1138 582 1185 q 548 1059 582 1090 q 465 1028 514 1028 m 465 1096 q 495 1108 483 1096 q 507 1138 507 1119 q 495 1167 507 1156 q 465 1179 483 1179 q 435 1167 447 1179 q 424 1138 424 1156 q 435 1108 424 1119 q 465 1096 447 1096 z "},"Ã":{"ha":931,"x_min":28,"x_max":903,"o":"m 56 0 q 36 8 44 0 q 28 28 28 17 q 29 43 28 39 l 374 942 q 418 972 385 972 l 513 972 q 557 942 546 972 l 900 43 l 903 28 q 894 8 903 17 q 875 0 886 0 l 804 0 q 781 8 789 0 q 769 24 772 15 l 693 221 l 238 221 l 161 24 q 149 8 158 15 q 126 0 140 0 l 56 0 m 653 340 l 465 833 l 278 340 l 653 340 m 538 1035 q 494 1042 513 1035 q 451 1063 475 1049 q 425 1076 439 1069 q 399 1082 411 1082 q 381 1078 388 1082 q 371 1068 375 1074 q 365 1061 367 1063 q 339 1042 354 1042 l 294 1042 q 278 1049 285 1042 q 271 1064 271 1056 q 285 1123 271 1093 q 327 1173 300 1153 q 390 1193 354 1193 q 433 1186 415 1193 q 478 1165 451 1179 q 505 1152 490 1158 q 532 1146 519 1146 q 551 1151 544 1146 q 564 1168 557 1157 q 575 1183 569 1178 q 590 1188 581 1188 l 635 1188 q 652 1181 646 1188 q 658 1164 658 1174 q 643 1106 658 1136 q 600 1055 628 1075 q 538 1035 572 1035 z "},"Æ":{"ha":1300,"x_min":7,"x_max":1228,"o":"m 35 0 q 15 8 24 0 q 7 28 7 17 q 11 46 7 38 q 115 263 31 100 q 482 942 199 426 q 524 972 499 972 l 1185 972 q 1208 963 1199 972 q 1217 939 1217 954 l 1217 886 q 1208 863 1217 872 q 1185 854 1200 854 l 719 854 l 719 550 l 1154 550 q 1177 541 1168 550 q 1186 517 1186 532 l 1186 465 q 1177 442 1186 451 q 1154 433 1168 433 l 719 433 l 719 118 l 1196 118 q 1219 110 1211 118 q 1228 86 1228 101 l 1228 32 q 1219 9 1228 18 q 1196 0 1210 0 l 618 0 q 595 9 604 0 q 586 32 586 18 l 586 221 l 251 221 q 144 24 146 31 q 110 0 132 0 l 35 0 m 586 340 l 586 846 l 576 846 l 304 340 l 586 340 z "},"Ǽ":{"ha":1300,"x_min":7,"x_max":1228,"o":"m 35 0 q 15 8 24 0 q 7 28 7 17 q 11 46 7 38 q 115 263 31 100 q 482 942 199 426 q 524 972 499 972 l 1185 972 q 1208 963 1199 972 q 1217 939 1217 954 l 1217 886 q 1208 863 1217 872 q 1185 854 1200 854 l 719 854 l 719 550 l 1154 550 q 1177 541 1168 550 q 1186 517 1186 532 l 1186 465 q 1177 442 1186 451 q 1154 433 1168 433 l 719 433 l 719 118 l 1196 118 q 1219 110 1211 118 q 1228 86 1228 101 l 1228 32 q 1219 9 1228 18 q 1196 0 1210 0 l 618 0 q 595 9 604 0 q 586 32 586 18 l 586 221 l 251 221 q 144 24 146 31 q 110 0 132 0 l 35 0 m 586 340 l 586 846 l 576 846 l 304 340 l 586 340 m 611 1042 q 589 1064 589 1042 q 596 1082 589 1075 l 700 1207 q 723 1228 714 1222 q 751 1233 732 1233 l 854 1233 q 874 1226 867 1233 q 881 1206 881 1218 q 874 1189 881 1196 l 713 1057 q 692 1044 701 1047 q 667 1042 682 1042 l 611 1042 z "},"B":{"ha":928,"x_min":121,"x_max":851,"o":"m 153 0 q 130 9 139 0 q 121 32 121 18 l 121 939 q 130 963 121 954 q 153 972 139 972 l 533 972 q 757 901 682 972 q 832 715 832 831 q 797 586 832 638 q 713 511 761 535 q 811 421 771 482 q 851 281 851 360 q 816 139 851 203 q 711 38 781 75 q 544 0 642 0 l 153 0 m 513 561 q 647 601 600 561 q 693 714 693 642 q 647 822 693 785 q 513 860 601 860 l 257 860 l 257 561 l 513 561 m 526 113 q 663 160 614 113 q 713 281 713 207 q 663 403 713 357 q 526 450 614 450 l 257 450 l 257 113 l 526 113 z "},"C":{"ha":925,"x_min":83,"x_max":861,"o":"m 471 -14 q 188 86 285 -14 q 85 363 92 186 q 83 485 83 400 q 85 610 83 571 q 189 885 92 785 q 471 986 286 986 q 681 942 594 986 q 811 828 767 899 q 860 676 856 757 l 860 674 q 851 655 860 663 q 831 647 842 647 l 754 647 q 719 679 726 647 q 635 826 696 783 q 471 868 574 868 q 224 603 232 868 q 222 488 222 565 q 224 369 222 410 q 471 104 232 104 q 635 147 574 104 q 719 293 697 189 q 732 318 724 311 q 754 325 740 325 l 831 325 q 852 317 843 325 q 860 297 861 310 q 811 144 856 215 q 681 30 767 74 q 471 -14 594 -14 z "},"Ć":{"ha":925,"x_min":83,"x_max":861,"o":"m 471 -14 q 188 86 285 -14 q 85 363 92 186 q 83 485 83 400 q 85 610 83 571 q 189 885 92 785 q 471 986 286 986 q 681 942 594 986 q 811 828 767 899 q 860 676 856 757 l 860 674 q 851 655 860 663 q 831 647 842 647 l 754 647 q 719 679 726 647 q 635 826 696 783 q 471 868 574 868 q 224 603 232 868 q 222 488 222 565 q 224 369 222 410 q 471 104 232 104 q 635 147 574 104 q 719 293 697 189 q 732 318 724 311 q 754 325 740 325 l 831 325 q 852 317 843 325 q 860 297 861 310 q 811 144 856 215 q 681 30 767 74 q 471 -14 594 -14 m 425 1042 q 403 1064 403 1042 q 410 1082 403 1075 l 514 1207 q 537 1228 528 1222 q 565 1233 546 1233 l 668 1233 q 688 1226 681 1233 q 694 1206 694 1218 q 688 1189 694 1196 l 526 1057 q 506 1044 515 1047 q 481 1042 496 1042 l 425 1042 z "},"Č":{"ha":925,"x_min":83,"x_max":861,"o":"m 471 -14 q 188 86 285 -14 q 85 363 92 186 q 83 485 83 400 q 85 610 83 571 q 189 885 92 785 q 471 986 286 986 q 681 942 594 986 q 811 828 767 899 q 860 676 856 757 l 860 674 q 851 655 860 663 q 831 647 842 647 l 754 647 q 719 679 726 647 q 635 826 696 783 q 471 868 574 868 q 224 603 232 868 q 222 488 222 565 q 224 369 222 410 q 471 104 232 104 q 635 147 574 104 q 719 293 697 189 q 732 318 724 311 q 754 325 740 325 l 831 325 q 852 317 843 325 q 860 297 861 310 q 811 144 856 215 q 681 30 767 74 q 471 -14 594 -14 m 442 1042 q 419 1045 428 1042 q 396 1063 410 1049 l 268 1190 q 253 1217 253 1206 q 274 1233 253 1233 l 311 1233 q 350 1224 333 1233 l 464 1144 l 578 1224 q 617 1233 594 1233 l 654 1233 q 675 1217 675 1233 q 660 1190 675 1206 l 532 1063 q 509 1045 518 1049 q 486 1042 500 1042 l 442 1042 z "},"Ç":{"ha":925,"x_min":83,"x_max":861,"o":"m 468 -306 q 384 -285 421 -306 q 347 -246 347 -265 q 353 -235 347 -239 l 374 -215 q 388 -208 381 -208 q 415 -222 393 -208 q 465 -236 436 -236 q 505 -222 489 -236 q 521 -185 521 -208 q 505 -149 521 -162 q 465 -136 489 -136 q 431 -143 450 -136 q 403 -149 410 -149 q 383 -140 390 -149 l 360 -115 q 356 -104 356 -110 q 360 -87 356 -97 q 365 -74 364 -78 l 393 -8 q 167 109 244 13 q 85 363 90 206 q 83 485 83 400 q 85 610 83 571 q 189 885 92 785 q 471 986 286 986 q 681 942 594 986 q 811 828 767 899 q 860 676 856 757 l 860 674 q 851 655 860 663 q 831 647 842 647 l 754 647 q 719 679 726 647 q 635 826 696 783 q 471 868 574 868 q 224 603 232 868 q 222 488 222 565 q 224 369 222 410 q 471 104 232 104 q 635 147 574 104 q 719 293 697 189 q 732 318 724 311 q 754 325 740 325 l 831 325 q 852 317 843 325 q 860 297 861 310 q 811 144 856 215 q 681 30 767 74 q 471 -14 594 -14 l 440 -78 q 490 -67 458 -67 q 567 -99 538 -67 q 597 -183 597 -132 q 564 -271 597 -236 q 468 -306 531 -306 z "},"Ĉ":{"ha":925,"x_min":83,"x_max":861,"o":"m 471 -14 q 188 86 285 -14 q 85 363 92 186 q 83 485 83 400 q 85 610 83 571 q 189 885 92 785 q 471 986 286 986 q 681 942 594 986 q 811 828 767 899 q 860 676 856 757 l 860 674 q 851 655 860 663 q 831 647 842 647 l 754 647 q 719 679 726 647 q 635 826 696 783 q 471 868 574 868 q 224 603 232 868 q 222 488 222 565 q 224 369 222 410 q 471 104 232 104 q 635 147 574 104 q 719 293 697 189 q 732 318 724 311 q 754 325 740 325 l 831 325 q 852 317 843 325 q 860 297 861 310 q 811 144 856 215 q 681 30 767 74 q 471 -14 594 -14 m 274 1042 q 253 1058 253 1042 q 268 1085 253 1069 l 396 1213 q 419 1230 410 1226 q 442 1233 428 1233 l 486 1233 q 509 1230 500 1233 q 532 1213 518 1226 l 660 1085 q 675 1058 675 1069 q 654 1042 675 1042 l 617 1042 q 578 1051 592 1042 l 464 1131 l 350 1051 q 311 1042 336 1042 l 274 1042 z "},"Ċ":{"ha":925,"x_min":83,"x_max":861,"o":"m 471 -14 q 188 86 285 -14 q 85 363 92 186 q 83 485 83 400 q 85 610 83 571 q 189 885 92 785 q 471 986 286 986 q 681 942 594 986 q 811 828 767 899 q 860 676 856 757 l 860 674 q 851 655 860 663 q 831 647 842 647 l 754 647 q 719 679 726 647 q 635 826 696 783 q 471 868 574 868 q 224 603 232 868 q 222 488 222 565 q 224 369 222 410 q 471 104 232 104 q 635 147 574 104 q 719 293 697 189 q 732 318 724 311 q 754 325 740 325 l 831 325 q 852 317 843 325 q 860 297 861 310 q 811 144 856 215 q 681 30 767 74 q 471 -14 594 -14 m 418 1042 q 396 1050 404 1042 q 388 1072 388 1058 l 388 1163 q 396 1185 388 1176 q 418 1194 404 1194 l 508 1194 q 531 1185 522 1194 q 540 1163 540 1176 l 540 1072 q 531 1050 540 1058 q 508 1042 522 1042 l 418 1042 z "},"D":{"ha":957,"x_min":121,"x_max":869,"o":"m 153 0 q 130 9 139 0 q 121 32 121 18 l 121 939 q 130 963 121 954 q 153 972 139 972 l 468 972 q 771 878 678 972 q 868 596 864 785 q 869 488 869 556 q 868 378 869 419 q 824 163 864 246 q 700 40 785 81 q 475 0 615 0 l 153 0 m 468 118 q 620 144 564 118 q 702 228 676 171 q 731 383 728 286 q 733 488 733 467 q 731 590 733 510 q 665 791 728 728 q 461 854 603 854 l 257 854 l 257 118 l 468 118 z "},"Ð":{"ha":971,"x_min":21,"x_max":883,"o":"m 165 0 q 142 9 151 0 q 133 32 133 18 l 133 435 l 53 435 q 30 444 39 435 q 21 467 21 453 l 21 511 q 30 534 21 525 q 53 543 39 543 l 133 543 l 133 939 q 142 963 133 953 q 165 972 151 972 l 481 972 q 785 878 690 972 q 882 596 879 785 q 883 488 883 556 q 882 378 883 418 q 788 91 879 182 q 486 0 696 0 l 165 0 m 481 118 q 633 144 576 118 q 715 228 689 171 q 743 383 740 286 q 744 488 744 424 q 743 590 744 550 q 678 791 740 728 q 475 854 617 854 l 269 854 l 269 543 l 454 543 q 476 534 468 543 q 485 511 485 525 l 485 467 q 476 444 485 453 q 454 435 468 435 l 269 435 l 269 118 l 481 118 z "},"Ď":{"ha":957,"x_min":121,"x_max":869,"o":"m 153 0 q 130 9 139 0 q 121 32 121 18 l 121 939 q 130 963 121 954 q 153 972 139 972 l 468 972 q 771 878 678 972 q 868 596 864 785 q 869 488 869 556 q 868 378 869 419 q 824 163 864 246 q 700 40 785 81 q 475 0 615 0 l 153 0 m 468 118 q 620 144 564 118 q 702 228 676 171 q 731 383 728 286 q 733 488 733 467 q 731 590 733 510 q 665 791 728 728 q 461 854 603 854 l 257 854 l 257 118 l 468 118 m 446 1042 q 423 1045 432 1042 q 400 1063 414 1049 l 272 1190 q 257 1217 257 1206 q 278 1233 257 1233 l 315 1233 q 354 1224 338 1233 l 468 1144 l 582 1224 q 621 1233 599 1233 l 658 1233 q 679 1217 679 1233 q 664 1190 679 1206 l 536 1063 q 513 1045 522 1049 q 490 1042 504 1042 l 446 1042 z "},"Đ":{"ha":969,"x_min":21,"x_max":883,"o":"m 165 0 q 142 9 151 0 q 133 32 133 18 l 133 435 l 53 435 q 30 444 39 435 q 21 467 21 453 l 21 511 q 30 534 21 525 q 53 543 39 543 l 133 543 l 133 939 q 142 963 133 953 q 165 972 151 972 l 481 972 q 784 878 690 972 q 882 596 878 785 q 883 488 883 556 q 882 378 883 419 q 838 163 878 246 q 713 40 799 81 q 486 0 626 0 l 165 0 m 481 118 q 633 144 576 118 q 716 228 690 171 q 744 383 742 286 q 746 488 746 425 q 744 590 746 550 q 679 791 742 728 q 475 854 617 854 l 269 854 l 269 543 l 454 543 q 476 534 468 543 q 485 511 485 525 l 485 467 q 476 444 485 453 q 454 435 468 435 l 269 435 l 269 118 l 481 118 z "},"E":{"ha":842,"x_min":121,"x_max":769,"o":"m 153 0 q 130 9 139 0 q 121 32 121 18 l 121 939 q 130 963 121 954 q 153 972 139 972 l 726 972 q 749 963 740 972 q 758 939 758 954 l 758 886 q 750 863 758 872 q 726 854 742 854 l 254 854 l 254 550 l 696 550 q 719 541 710 550 q 728 517 728 532 l 728 465 q 719 442 728 451 q 696 433 710 433 l 254 433 l 254 118 l 738 118 q 761 110 753 118 q 769 86 769 101 l 769 32 q 760 9 769 18 q 738 0 751 0 l 153 0 z "},"É":{"ha":842,"x_min":121,"x_max":769,"o":"m 153 0 q 130 9 139 0 q 121 32 121 18 l 121 939 q 130 963 121 954 q 153 972 139 972 l 726 972 q 749 963 740 972 q 758 939 758 954 l 758 886 q 750 863 758 872 q 726 854 742 854 l 254 854 l 254 550 l 696 550 q 719 541 710 550 q 728 517 728 532 l 728 465 q 719 442 728 451 q 696 433 710 433 l 254 433 l 254 118 l 738 118 q 761 110 753 118 q 769 86 769 101 l 769 32 q 760 9 769 18 q 738 0 751 0 l 153 0 m 382 1042 q 360 1064 360 1042 q 367 1082 360 1075 l 471 1207 q 494 1228 485 1222 q 522 1233 503 1233 l 625 1233 q 644 1226 638 1233 q 651 1206 651 1218 q 644 1189 651 1196 l 483 1057 q 463 1044 472 1047 q 438 1042 453 1042 l 382 1042 z "},"Ĕ":{"ha":842,"x_min":121,"x_max":769,"o":"m 153 0 q 130 9 139 0 q 121 32 121 18 l 121 939 q 130 963 121 954 q 153 972 139 972 l 726 972 q 749 963 740 972 q 758 939 758 954 l 758 886 q 750 863 758 872 q 726 854 742 854 l 254 854 l 254 550 l 696 550 q 719 541 710 550 q 728 517 728 532 l 728 465 q 719 442 728 451 q 696 433 710 433 l 254 433 l 254 118 l 738 118 q 761 110 753 118 q 769 86 769 101 l 769 32 q 760 9 769 18 q 738 0 751 0 l 153 0 m 421 1029 q 286 1077 328 1029 q 244 1200 244 1125 q 251 1219 244 1211 q 271 1226 258 1226 l 314 1226 q 333 1219 326 1226 q 340 1200 340 1211 q 358 1138 340 1163 q 421 1113 376 1113 q 483 1138 465 1113 q 501 1200 501 1163 q 508 1219 501 1211 q 528 1226 515 1226 l 571 1226 q 590 1219 583 1226 q 597 1200 597 1211 q 556 1078 597 1126 q 421 1029 514 1029 z "},"Ě":{"ha":842,"x_min":121,"x_max":769,"o":"m 153 0 q 130 9 139 0 q 121 32 121 18 l 121 939 q 130 963 121 954 q 153 972 139 972 l 726 972 q 749 963 740 972 q 758 939 758 954 l 758 886 q 750 863 758 872 q 726 854 742 854 l 254 854 l 254 550 l 696 550 q 719 541 710 550 q 728 517 728 532 l 728 465 q 719 442 728 451 q 696 433 710 433 l 254 433 l 254 118 l 738 118 q 761 110 753 118 q 769 86 769 101 l 769 32 q 760 9 769 18 q 738 0 751 0 l 153 0 m 399 1042 q 376 1045 385 1042 q 353 1063 367 1049 l 225 1190 q 210 1217 210 1206 q 231 1233 210 1233 l 268 1233 q 307 1224 290 1233 l 421 1144 l 535 1224 q 574 1233 551 1233 l 611 1233 q 632 1217 632 1233 q 617 1190 632 1206 l 489 1063 q 466 1045 475 1049 q 443 1042 457 1042 l 399 1042 z "},"Ê":{"ha":842,"x_min":121,"x_max":769,"o":"m 153 0 q 130 9 139 0 q 121 32 121 18 l 121 939 q 130 963 121 954 q 153 972 139 972 l 726 972 q 749 963 740 972 q 758 939 758 954 l 758 886 q 750 863 758 872 q 726 854 742 854 l 254 854 l 254 550 l 696 550 q 719 541 710 550 q 728 517 728 532 l 728 465 q 719 442 728 451 q 696 433 710 433 l 254 433 l 254 118 l 738 118 q 761 110 753 118 q 769 86 769 101 l 769 32 q 760 9 769 18 q 738 0 751 0 l 153 0 m 231 1042 q 210 1058 210 1042 q 225 1085 210 1069 l 353 1213 q 376 1230 367 1226 q 399 1233 385 1233 l 443 1233 q 466 1230 457 1233 q 489 1213 475 1226 l 617 1085 q 632 1058 632 1069 q 611 1042 632 1042 l 574 1042 q 535 1051 549 1042 l 421 1131 l 307 1051 q 268 1042 293 1042 l 231 1042 z "},"Ë":{"ha":842,"x_min":121,"x_max":769,"o":"m 153 0 q 130 9 139 0 q 121 32 121 18 l 121 939 q 130 963 121 954 q 153 972 139 972 l 726 972 q 749 963 740 972 q 758 939 758 954 l 758 886 q 750 863 758 872 q 726 854 742 854 l 254 854 l 254 550 l 696 550 q 719 541 710 550 q 728 517 728 532 l 728 465 q 719 442 728 451 q 696 433 710 433 l 254 433 l 254 118 l 738 118 q 761 110 753 118 q 769 86 769 101 l 769 32 q 760 9 769 18 q 738 0 751 0 l 153 0 m 243 1042 q 221 1050 229 1042 q 213 1072 213 1058 l 213 1147 q 221 1170 213 1161 q 243 1179 229 1179 l 319 1179 q 342 1170 333 1179 q 351 1147 351 1161 l 351 1072 q 342 1050 351 1058 q 319 1042 333 1042 l 243 1042 m 521 1042 q 498 1050 507 1042 q 489 1072 489 1058 l 489 1147 q 498 1170 489 1161 q 521 1179 507 1179 l 596 1179 q 619 1170 610 1179 q 628 1147 628 1161 l 628 1072 q 619 1050 628 1058 q 596 1042 610 1042 l 521 1042 z "},"Ė":{"ha":842,"x_min":121,"x_max":769,"o":"m 153 0 q 130 9 139 0 q 121 32 121 18 l 121 939 q 130 963 121 954 q 153 972 139 972 l 726 972 q 749 963 740 972 q 758 939 758 954 l 758 886 q 750 863 758 872 q 726 854 742 854 l 254 854 l 254 550 l 696 550 q 719 541 710 550 q 728 517 728 532 l 728 465 q 719 442 728 451 q 696 433 710 433 l 254 433 l 254 118 l 738 118 q 761 110 753 118 q 769 86 769 101 l 769 32 q 760 9 769 18 q 738 0 751 0 l 153 0 m 375 1042 q 353 1050 361 1042 q 344 1072 344 1058 l 344 1163 q 353 1185 344 1176 q 375 1194 361 1194 l 465 1194 q 488 1185 479 1194 q 497 1163 497 1176 l 497 1072 q 488 1050 497 1058 q 465 1042 479 1042 l 375 1042 z "},"È":{"ha":842,"x_min":121,"x_max":769,"o":"m 153 0 q 130 9 139 0 q 121 32 121 18 l 121 939 q 130 963 121 954 q 153 972 139 972 l 726 972 q 749 963 740 972 q 758 939 758 954 l 758 886 q 750 863 758 872 q 726 854 742 854 l 254 854 l 254 550 l 696 550 q 719 541 710 550 q 728 517 728 532 l 728 465 q 719 442 728 451 q 696 433 710 433 l 254 433 l 254 118 l 738 118 q 761 110 753 118 q 769 86 769 101 l 769 32 q 760 9 769 18 q 738 0 751 0 l 153 0 m 414 1042 q 389 1044 399 1042 q 368 1057 379 1047 l 207 1189 q 200 1206 200 1196 q 207 1226 200 1218 q 226 1233 214 1233 l 329 1233 q 358 1228 349 1233 q 381 1207 367 1222 l 485 1082 q 492 1064 492 1075 q 469 1042 492 1042 l 414 1042 z "},"Ē":{"ha":842,"x_min":121,"x_max":769,"o":"m 153 0 q 130 9 139 0 q 121 32 121 18 l 121 939 q 130 963 121 954 q 153 972 139 972 l 726 972 q 749 963 740 972 q 758 939 758 954 l 758 886 q 750 863 758 872 q 726 854 742 854 l 254 854 l 254 550 l 696 550 q 719 541 710 550 q 728 517 728 532 l 728 465 q 719 442 728 451 q 696 433 710 433 l 254 433 l 254 118 l 738 118 q 761 110 753 118 q 769 86 769 101 l 769 32 q 760 9 769 18 q 738 0 751 0 l 153 0 m 258 1042 q 236 1050 244 1042 q 228 1072 228 1058 l 228 1125 q 236 1147 228 1139 q 258 1156 244 1156 l 582 1156 q 604 1147 596 1156 q 613 1125 613 1139 l 613 1072 q 604 1050 613 1058 q 582 1042 596 1042 l 258 1042 z "},"Ę":{"ha":842,"x_min":121,"x_max":769,"o":"m 713 -306 q 571 -251 622 -306 q 519 -106 519 -197 q 544 0 519 -44 l 153 0 q 130 9 139 0 q 121 32 121 18 l 121 939 q 130 963 121 954 q 153 972 139 972 l 726 972 q 749 963 740 972 q 758 939 758 954 l 758 886 q 750 863 758 872 q 726 854 742 854 l 254 854 l 254 550 l 696 550 q 719 541 710 550 q 728 517 728 532 l 728 465 q 719 442 728 451 q 696 433 710 433 l 254 433 l 254 118 l 738 118 q 761 110 753 118 q 769 86 769 101 l 769 32 q 760 9 769 18 q 738 0 751 0 l 711 0 q 644 -31 669 -1 q 619 -106 619 -60 q 647 -181 619 -153 q 718 -210 674 -210 l 739 -210 q 761 -219 753 -210 q 769 -242 769 -228 l 769 -274 q 761 -297 769 -287 q 739 -306 753 -306 l 713 -306 z "},"F":{"ha":811,"x_min":121,"x_max":753,"o":"m 153 0 q 130 9 139 0 q 121 32 121 18 l 121 939 q 130 963 121 954 q 153 972 139 972 l 719 972 q 744 963 735 972 q 753 939 753 954 l 753 883 q 744 860 753 869 q 719 851 735 851 l 256 851 l 256 528 l 692 528 q 716 519 707 528 q 725 494 725 510 l 725 439 q 715 416 725 425 q 692 407 706 407 l 256 407 l 256 32 q 246 9 256 18 q 222 0 236 0 l 153 0 z "},"G":{"ha":946,"x_min":83,"x_max":868,"o":"m 475 -14 q 192 85 293 -14 q 85 357 92 185 q 83 488 83 399 q 85 618 83 578 q 193 888 92 789 q 475 986 294 986 q 683 942 597 986 q 811 836 768 899 q 857 719 854 774 l 857 717 q 849 699 857 706 q 828 692 840 692 l 746 692 q 726 697 732 692 q 714 717 719 701 q 634 824 693 779 q 475 868 575 868 q 294 806 360 868 q 224 611 229 743 q 222 488 222 571 q 224 364 222 406 q 294 167 229 231 q 475 104 360 104 q 661 168 592 104 q 731 360 731 232 l 731 418 l 522 418 q 499 427 508 418 q 490 451 490 436 l 490 496 q 499 519 490 510 q 522 529 508 529 l 836 529 q 859 520 850 529 q 868 496 868 511 l 868 363 q 821 164 868 249 q 685 33 774 79 q 475 -14 596 -14 z "},"Ğ":{"ha":946,"x_min":83,"x_max":868,"o":"m 475 -14 q 192 85 293 -14 q 85 357 92 185 q 83 488 83 399 q 85 618 83 578 q 193 888 92 789 q 475 986 294 986 q 683 942 597 986 q 811 836 768 899 q 857 719 854 774 l 857 717 q 849 699 857 706 q 828 692 840 692 l 746 692 q 726 697 732 692 q 714 717 719 701 q 634 824 693 779 q 475 868 575 868 q 294 806 360 868 q 224 611 229 743 q 222 488 222 571 q 224 364 222 406 q 294 167 229 231 q 475 104 360 104 q 661 168 592 104 q 731 360 731 232 l 731 418 l 522 418 q 499 427 508 418 q 490 451 490 436 l 490 496 q 499 519 490 510 q 522 529 508 529 l 836 529 q 859 520 850 529 q 868 496 868 511 l 868 363 q 821 164 868 249 q 685 33 774 79 q 475 -14 596 -14 m 481 1029 q 346 1077 388 1029 q 304 1200 304 1125 q 311 1219 304 1211 q 331 1226 318 1226 l 374 1226 q 393 1219 386 1226 q 400 1200 400 1211 q 418 1138 400 1163 q 481 1113 436 1113 q 543 1138 525 1113 q 561 1200 561 1163 q 568 1219 561 1211 q 588 1226 575 1226 l 631 1226 q 650 1219 643 1226 q 657 1200 657 1211 q 615 1078 657 1126 q 481 1029 574 1029 z "},"Ĝ":{"ha":946,"x_min":83,"x_max":868,"o":"m 475 -14 q 192 85 293 -14 q 85 357 92 185 q 83 488 83 399 q 85 618 83 578 q 193 888 92 789 q 475 986 294 986 q 683 942 597 986 q 811 836 768 899 q 857 719 854 774 l 857 717 q 849 699 857 706 q 828 692 840 692 l 746 692 q 726 697 732 692 q 714 717 719 701 q 634 824 693 779 q 475 868 575 868 q 294 806 360 868 q 224 611 229 743 q 222 488 222 571 q 224 364 222 406 q 294 167 229 231 q 475 104 360 104 q 661 168 592 104 q 731 360 731 232 l 731 418 l 522 418 q 499 427 508 418 q 490 451 490 436 l 490 496 q 499 519 490 510 q 522 529 508 529 l 836 529 q 859 520 850 529 q 868 496 868 511 l 868 363 q 821 164 868 249 q 685 33 774 79 q 475 -14 596 -14 m 290 1042 q 269 1058 269 1042 q 285 1085 269 1069 l 413 1213 q 435 1230 426 1226 q 458 1233 444 1233 l 503 1233 q 526 1230 517 1233 q 549 1213 535 1226 l 676 1085 q 692 1058 692 1069 q 671 1042 692 1042 l 633 1042 q 594 1051 608 1042 l 481 1131 l 367 1051 q 328 1042 353 1042 l 290 1042 z "},"Ģ":{"ha":946,"x_min":83,"x_max":868,"o":"m 475 -14 q 192 85 293 -14 q 85 357 92 185 q 83 488 83 399 q 85 618 83 578 q 193 888 92 789 q 475 986 294 986 q 683 942 597 986 q 811 836 768 899 q 857 719 854 774 l 857 717 q 849 699 857 706 q 828 692 840 692 l 746 692 q 726 697 732 692 q 714 717 719 701 q 634 824 693 779 q 475 868 575 868 q 294 806 360 868 q 224 611 229 743 q 222 488 222 571 q 224 364 222 406 q 294 167 229 231 q 475 104 360 104 q 661 168 592 104 q 731 360 731 232 l 731 418 l 522 418 q 499 427 508 418 q 490 451 490 436 l 490 496 q 499 519 490 510 q 522 529 508 529 l 836 529 q 859 520 850 529 q 868 496 868 511 l 868 363 q 821 164 868 249 q 685 33 774 79 q 475 -14 596 -14 m 403 -303 q 383 -294 390 -303 q 379 -281 379 -287 q 381 -272 379 -276 l 406 -110 q 444 -69 411 -69 l 535 -69 q 551 -76 544 -69 q 557 -93 557 -83 q 553 -115 557 -107 l 493 -269 q 476 -294 485 -286 q 453 -303 468 -303 l 403 -303 z "},"Ġ":{"ha":946,"x_min":83,"x_max":868,"o":"m 475 -14 q 192 85 293 -14 q 85 357 92 185 q 83 488 83 399 q 85 618 83 578 q 193 888 92 789 q 475 986 294 986 q 683 942 597 986 q 811 836 768 899 q 857 719 854 774 l 857 717 q 849 699 857 706 q 828 692 840 692 l 746 692 q 726 697 732 692 q 714 717 719 701 q 634 824 693 779 q 475 868 575 868 q 294 806 360 868 q 224 611 229 743 q 222 488 222 571 q 224 364 222 406 q 294 167 229 231 q 475 104 360 104 q 661 168 592 104 q 731 360 731 232 l 731 418 l 522 418 q 499 427 508 418 q 490 451 490 436 l 490 496 q 499 519 490 510 q 522 529 508 529 l 836 529 q 859 520 850 529 q 868 496 868 511 l 868 363 q 821 164 868 249 q 685 33 774 79 q 475 -14 596 -14 m 435 1042 q 413 1050 421 1042 q 404 1072 404 1058 l 404 1163 q 413 1185 404 1176 q 435 1194 421 1194 l 525 1194 q 548 1185 539 1194 q 557 1163 557 1176 l 557 1072 q 548 1050 557 1058 q 525 1042 539 1042 l 435 1042 z "},"H":{"ha":992,"x_min":121,"x_max":871,"o":"m 153 0 q 130 9 139 0 q 121 32 121 18 l 121 939 q 130 963 121 954 q 153 972 139 972 l 224 972 q 248 963 239 972 q 257 939 257 954 l 257 556 l 735 556 l 735 939 q 744 963 735 954 q 767 972 753 972 l 838 972 q 862 963 853 972 q 871 939 871 954 l 871 32 q 861 9 871 18 q 838 0 851 0 l 767 0 q 744 9 753 0 q 735 32 735 18 l 735 431 l 257 431 l 257 32 q 247 9 257 18 q 224 0 238 0 l 153 0 z "},"Ħ":{"ha":992,"x_min":40,"x_max":963,"o":"m 931 813 q 953 803 944 813 q 963 781 963 794 l 963 746 q 953 724 963 732 q 931 715 944 715 l 871 715 l 871 32 q 861 9 871 18 q 838 0 851 0 l 767 0 q 744 9 753 0 q 735 32 735 18 l 735 431 l 257 431 l 257 32 q 247 9 257 18 q 224 0 238 0 l 153 0 q 130 9 139 0 q 121 32 121 18 l 121 715 l 71 715 q 49 724 57 715 q 40 746 40 732 l 40 781 q 49 803 40 794 q 71 813 57 813 l 121 813 l 121 939 q 130 963 121 954 q 153 972 139 972 l 224 972 q 248 963 239 972 q 257 939 257 954 l 257 813 l 735 813 l 735 939 q 744 963 735 954 q 767 972 753 972 l 838 972 q 862 963 853 972 q 871 939 871 954 l 871 813 l 931 813 m 735 715 l 257 715 l 257 556 l 735 556 l 735 715 z "},"Ĥ":{"ha":992,"x_min":121,"x_max":871,"o":"m 153 0 q 130 9 139 0 q 121 32 121 18 l 121 939 q 130 963 121 954 q 153 972 139 972 l 224 972 q 248 963 239 972 q 257 939 257 954 l 257 556 l 735 556 l 735 939 q 744 963 735 954 q 767 972 753 972 l 838 972 q 862 963 853 972 q 871 939 871 954 l 871 32 q 861 9 871 18 q 838 0 851 0 l 767 0 q 744 9 753 0 q 735 32 735 18 l 735 431 l 257 431 l 257 32 q 247 9 257 18 q 224 0 238 0 l 153 0 m 306 1042 q 285 1058 285 1042 q 300 1085 285 1069 l 428 1213 q 451 1230 442 1226 q 474 1233 460 1233 l 518 1233 q 541 1230 532 1233 q 564 1213 550 1226 l 692 1085 q 707 1058 707 1069 q 686 1042 707 1042 l 649 1042 q 610 1051 624 1042 l 496 1131 l 382 1051 q 343 1042 368 1042 l 306 1042 z "},"I":{"ha":379,"x_min":121,"x_max":258,"o":"m 153 0 q 130 9 139 0 q 121 32 121 18 l 121 940 q 130 963 121 954 q 153 972 139 972 l 226 972 q 249 963 240 972 q 258 940 258 954 l 258 32 q 249 9 258 18 q 226 0 240 0 l 153 0 z "},"Ĳ":{"ha":875,"x_min":121,"x_max":763,"o":"m 153 0 q 130 9 139 0 q 121 32 121 18 l 121 940 q 130 963 121 954 q 153 972 139 972 l 226 972 q 249 963 240 972 q 258 940 258 954 l 258 32 q 249 9 258 18 q 226 0 240 0 l 153 0 m 401 -14 q 378 -5 388 -14 q 369 18 369 4 l 369 76 q 378 101 369 92 q 401 110 388 110 q 567 178 510 110 q 624 367 624 247 l 624 940 q 633 963 624 954 q 656 972 642 972 l 729 972 q 753 963 744 972 q 763 939 763 954 l 763 356 q 669 83 763 181 q 401 -14 575 -14 z "},"Í":{"ha":379,"x_min":121,"x_max":421,"o":"m 153 0 q 130 9 139 0 q 121 32 121 18 l 121 940 q 130 963 121 954 q 153 972 139 972 l 226 972 q 249 963 240 972 q 258 940 258 954 l 258 32 q 249 9 258 18 q 226 0 240 0 l 153 0 m 151 1042 q 129 1064 129 1042 q 136 1082 129 1075 l 240 1207 q 263 1228 254 1222 q 292 1233 272 1233 l 394 1233 q 414 1226 407 1233 q 421 1206 421 1218 q 414 1189 421 1196 l 253 1057 q 232 1044 242 1047 q 207 1042 222 1042 l 151 1042 z "},"Ĭ":{"ha":379,"x_min":14,"x_max":367,"o":"m 153 0 q 130 9 139 0 q 121 32 121 18 l 121 940 q 130 963 121 954 q 153 972 139 972 l 226 972 q 249 963 240 972 q 258 940 258 954 l 258 32 q 249 9 258 18 q 226 0 240 0 l 153 0 m 190 1029 q 56 1077 97 1029 q 14 1200 14 1125 q 21 1219 14 1211 q 40 1226 28 1226 l 83 1226 q 103 1219 96 1226 q 110 1200 110 1211 q 128 1138 110 1163 q 190 1113 146 1113 q 253 1138 235 1113 q 271 1200 271 1163 q 278 1219 271 1211 q 297 1226 285 1226 l 340 1226 q 360 1219 353 1226 q 367 1200 367 1211 q 325 1078 367 1126 q 190 1029 283 1029 z "},"Î":{"ha":379,"x_min":-21,"x_max":401,"o":"m 153 0 q 130 9 139 0 q 121 32 121 18 l 121 940 q 130 963 121 954 q 153 972 139 972 l 226 972 q 249 963 240 972 q 258 940 258 954 l 258 32 q 249 9 258 18 q 226 0 240 0 l 153 0 m 0 1042 q -21 1058 -21 1042 q -6 1085 -21 1069 l 122 1213 q 145 1230 136 1226 q 168 1233 154 1233 l 213 1233 q 235 1230 226 1233 q 258 1213 244 1226 l 386 1085 q 401 1058 401 1069 q 381 1042 401 1042 l 343 1042 q 304 1051 318 1042 l 190 1131 l 76 1051 q 38 1042 63 1042 l 0 1042 z "},"Ï":{"ha":379,"x_min":-18,"x_max":397,"o":"m 153 0 q 130 9 139 0 q 121 32 121 18 l 121 940 q 130 963 121 954 q 153 972 139 972 l 226 972 q 249 963 240 972 q 258 940 258 954 l 258 32 q 249 9 258 18 q 226 0 240 0 l 153 0 m 13 1042 q -10 1050 -1 1042 q -18 1072 -18 1058 l -18 1147 q -10 1170 -18 1161 q 13 1179 -1 1179 l 89 1179 q 112 1170 103 1179 q 121 1147 121 1161 l 121 1072 q 112 1050 121 1058 q 89 1042 103 1042 l 13 1042 m 290 1042 q 267 1050 276 1042 q 258 1072 258 1058 l 258 1147 q 267 1170 258 1161 q 290 1179 276 1179 l 365 1179 q 388 1170 379 1179 q 397 1147 397 1161 l 397 1072 q 388 1050 397 1058 q 365 1042 379 1042 l 290 1042 z "},"İ":{"ha":379,"x_min":114,"x_max":267,"o":"m 153 0 q 130 9 139 0 q 121 32 121 18 l 121 940 q 130 963 121 954 q 153 972 139 972 l 226 972 q 249 963 240 972 q 258 940 258 954 l 258 32 q 249 9 258 18 q 226 0 240 0 l 153 0 m 144 1042 q 122 1050 131 1042 q 114 1072 114 1058 l 114 1163 q 122 1185 114 1176 q 144 1194 131 1194 l 235 1194 q 258 1185 249 1194 q 267 1163 267 1176 l 267 1072 q 258 1050 267 1058 q 235 1042 249 1042 l 144 1042 z "},"Ì":{"ha":379,"x_min":-31,"x_max":261,"o":"m 153 0 q 130 9 139 0 q 121 32 121 18 l 121 940 q 130 963 121 954 q 153 972 139 972 l 226 972 q 249 963 240 972 q 258 940 258 954 l 258 32 q 249 9 258 18 q 226 0 240 0 l 153 0 m 183 1042 q 158 1044 168 1042 q 138 1057 149 1047 l -24 1189 q -31 1206 -31 1196 q -24 1226 -31 1218 q -4 1233 -17 1233 l 99 1233 q 127 1228 118 1233 q 150 1207 136 1222 l 254 1082 q 261 1064 261 1075 q 239 1042 261 1042 l 183 1042 z "},"Ī":{"ha":379,"x_min":-3,"x_max":382,"o":"m 153 0 q 130 9 139 0 q 121 32 121 18 l 121 940 q 130 963 121 954 q 153 972 139 972 l 226 972 q 249 963 240 972 q 258 940 258 954 l 258 32 q 249 9 258 18 q 226 0 240 0 l 153 0 m 28 1042 q 6 1050 14 1042 q -3 1072 -3 1058 l -3 1125 q 6 1147 -3 1139 q 28 1156 14 1156 l 351 1156 q 374 1147 365 1156 q 382 1125 382 1139 l 382 1072 q 374 1050 382 1058 q 351 1042 365 1042 l 28 1042 z "},"Į":{"ha":400,"x_min":28,"x_max":279,"o":"m 222 -306 q 79 -251 131 -306 q 28 -106 28 -197 q 62 7 28 -37 q 154 63 96 51 l 147 72 q 140 90 140 79 l 140 940 q 149 963 140 954 q 172 972 158 972 l 247 972 q 270 963 261 972 q 279 940 279 954 l 279 32 q 270 9 279 18 q 247 0 261 0 l 228 0 q 156 -29 183 0 q 129 -106 129 -58 q 156 -181 129 -153 q 228 -210 183 -210 l 247 -210 q 270 -219 261 -210 q 279 -242 279 -228 l 279 -274 q 270 -297 279 -287 q 247 -306 261 -306 l 222 -306 z "},"Ĩ":{"ha":379,"x_min":-4,"x_max":383,"o":"m 153 0 q 130 9 139 0 q 121 32 121 18 l 121 940 q 130 963 121 954 q 153 972 139 972 l 226 972 q 249 963 240 972 q 258 940 258 954 l 258 32 q 249 9 258 18 q 226 0 240 0 l 153 0 m 263 1035 q 219 1042 238 1035 q 176 1063 200 1049 q 150 1076 164 1069 q 124 1082 136 1082 q 106 1078 113 1082 q 96 1068 100 1074 q 90 1061 92 1063 q 64 1042 79 1042 l 19 1042 q 3 1049 10 1042 q -4 1064 -4 1056 q 10 1123 -4 1093 q 52 1173 25 1153 q 115 1193 79 1193 q 158 1186 140 1193 q 203 1165 176 1179 q 230 1152 215 1158 q 257 1146 244 1146 q 276 1151 269 1146 q 289 1168 282 1157 q 300 1183 294 1178 q 315 1188 306 1188 l 360 1188 q 377 1181 371 1188 q 383 1164 383 1174 q 368 1106 383 1136 q 325 1055 353 1075 q 263 1035 297 1035 z "},"J":{"ha":881,"x_min":53,"x_max":768,"o":"m 410 -14 q 158 61 258 -14 q 53 281 58 136 q 61 302 53 293 q 83 311 69 311 l 158 311 q 194 279 188 311 q 263 147 203 190 q 413 104 322 104 q 573 173 517 104 q 629 358 629 242 l 629 851 l 136 851 q 113 860 122 851 q 104 883 104 869 l 104 940 q 113 963 104 954 q 136 972 122 972 l 735 972 q 759 963 750 972 q 768 939 768 954 l 768 356 q 673 86 768 186 q 410 -14 578 -14 z "},"Ĵ":{"ha":881,"x_min":53,"x_max":768,"o":"m 410 -14 q 158 61 258 -14 q 53 281 58 136 q 61 302 53 293 q 83 311 69 311 l 158 311 q 194 279 188 311 q 263 147 203 190 q 413 104 322 104 q 573 173 517 104 q 629 358 629 242 l 629 851 l 136 851 q 113 860 122 851 q 104 883 104 869 l 104 940 q 113 963 104 954 q 136 972 122 972 l 735 972 q 759 963 750 972 q 768 939 768 954 l 768 356 q 673 86 768 186 q 410 -14 578 -14 m 249 1042 q 228 1058 228 1042 q 243 1085 228 1069 l 371 1213 q 394 1230 385 1226 q 417 1233 403 1233 l 461 1233 q 484 1230 475 1233 q 507 1213 493 1226 l 635 1085 q 650 1058 650 1069 q 629 1042 650 1042 l 592 1042 q 553 1051 567 1042 l 439 1131 l 325 1051 q 286 1042 311 1042 l 249 1042 z "},"K":{"ha":835,"x_min":121,"x_max":813,"o":"m 153 0 q 130 9 139 0 q 121 32 121 18 l 121 939 q 130 963 121 954 q 153 972 139 972 l 222 972 q 247 963 238 972 q 256 939 256 954 l 256 594 l 626 950 q 681 972 649 972 l 756 972 q 775 964 767 972 q 783 944 783 956 q 778 926 783 933 l 349 507 l 806 47 q 813 28 813 39 q 804 8 813 17 q 785 0 796 0 l 707 0 q 653 24 676 0 l 256 414 l 256 32 q 246 9 256 18 q 222 0 236 0 l 153 0 z "},"Ķ":{"ha":835,"x_min":121,"x_max":813,"o":"m 153 0 q 130 9 139 0 q 121 32 121 18 l 121 939 q 130 963 121 954 q 153 972 139 972 l 222 972 q 247 963 238 972 q 256 939 256 954 l 256 594 l 626 950 q 681 972 649 972 l 756 972 q 775 964 767 972 q 783 944 783 956 q 778 926 783 933 l 349 507 l 806 47 q 813 28 813 39 q 804 8 813 17 q 785 0 796 0 l 707 0 q 653 24 676 0 l 256 414 l 256 32 q 246 9 256 18 q 222 0 236 0 l 153 0 m 350 -303 q 331 -294 338 -303 q 326 -281 326 -287 q 328 -272 326 -276 l 353 -110 q 392 -69 358 -69 l 482 -69 q 498 -76 492 -69 q 504 -93 504 -83 q 500 -115 504 -107 l 440 -269 q 424 -294 432 -286 q 400 -303 415 -303 l 350 -303 z "},"L":{"ha":782,"x_min":121,"x_max":753,"o":"m 153 0 q 130 9 139 0 q 121 32 121 18 l 121 940 q 130 963 121 954 q 153 972 139 972 l 226 972 q 249 963 240 972 q 258 940 258 954 l 258 121 l 719 121 q 744 112 735 121 q 753 88 753 103 l 753 32 q 743 9 753 18 q 719 0 733 0 l 153 0 z "},"Ĺ":{"ha":782,"x_min":121,"x_max":753,"o":"m 153 0 q 130 9 139 0 q 121 32 121 18 l 121 940 q 130 963 121 954 q 153 972 139 972 l 226 972 q 249 963 240 972 q 258 940 258 954 l 258 121 l 719 121 q 744 112 735 121 q 753 88 753 103 l 753 32 q 743 9 753 18 q 719 0 733 0 l 153 0 m 147 1042 q 125 1064 125 1042 q 132 1082 125 1075 l 236 1207 q 259 1228 250 1222 q 288 1233 268 1233 l 390 1233 q 410 1226 403 1233 q 417 1206 417 1218 q 410 1189 417 1196 l 249 1057 q 228 1044 238 1047 q 203 1042 218 1042 l 147 1042 z "},"Ľ":{"ha":782,"x_min":121,"x_max":753,"o":"m 153 0 q 130 9 139 0 q 121 32 121 18 l 121 940 q 130 963 121 954 q 153 972 139 972 l 226 972 q 249 963 240 972 q 258 940 258 954 l 258 121 l 719 121 q 744 112 735 121 q 753 88 753 103 l 753 32 q 743 9 753 18 q 719 0 733 0 l 153 0 m 410 753 q 390 761 397 753 q 386 775 386 768 q 388 783 386 779 l 413 946 q 451 986 418 986 l 542 986 q 558 979 551 986 q 564 963 564 972 q 560 940 564 949 l 500 786 q 483 761 492 769 q 460 753 475 753 l 410 753 z "},"Ļ":{"ha":782,"x_min":121,"x_max":753,"o":"m 153 0 q 130 9 139 0 q 121 32 121 18 l 121 940 q 130 963 121 954 q 153 972 139 972 l 226 972 q 249 963 240 972 q 258 940 258 954 l 258 121 l 719 121 q 744 112 735 121 q 753 88 753 103 l 753 32 q 743 9 753 18 q 719 0 733 0 l 153 0 m 342 -303 q 322 -294 329 -303 q 318 -281 318 -287 q 319 -272 318 -276 l 344 -110 q 383 -69 350 -69 l 474 -69 q 490 -76 483 -69 q 496 -93 496 -83 q 492 -115 496 -107 l 432 -269 q 415 -294 424 -286 q 392 -303 407 -303 l 342 -303 z "},"Ŀ":{"ha":782,"x_min":121,"x_max":753,"o":"m 153 0 q 130 9 139 0 q 121 32 121 18 l 121 940 q 130 963 121 954 q 153 972 139 972 l 226 972 q 249 963 240 972 q 258 940 258 954 l 258 121 l 719 121 q 744 112 735 121 q 753 88 753 103 l 753 32 q 743 9 753 18 q 719 0 733 0 l 153 0 m 440 435 q 418 443 426 435 q 410 465 410 451 l 410 554 q 418 577 410 568 q 440 586 426 586 l 529 586 q 552 577 543 586 q 561 554 561 568 l 561 465 q 552 443 561 451 q 529 435 543 435 l 440 435 z "},"Ł":{"ha":793,"x_min":17,"x_max":764,"o":"m 164 0 q 141 9 150 0 q 132 32 132 18 l 132 388 l 61 361 q 44 357 50 357 q 24 364 32 357 q 17 383 17 371 l 17 433 q 23 456 17 449 q 47 469 29 463 l 132 501 l 132 940 q 141 963 132 954 q 164 972 150 972 l 238 972 q 260 963 251 972 q 269 940 269 954 l 269 556 l 471 633 q 488 638 482 638 q 508 631 500 638 q 515 613 515 625 l 515 563 q 509 540 515 547 q 485 526 503 533 l 269 443 l 269 121 l 732 121 q 755 112 746 121 q 764 89 764 103 l 764 32 q 755 9 764 18 q 732 0 746 0 l 164 0 z "},"M":{"ha":1103,"x_min":121,"x_max":983,"o":"m 153 0 q 130 9 139 0 q 121 32 121 18 l 121 939 q 130 963 121 954 q 153 972 139 972 l 222 972 q 258 950 244 972 l 551 389 l 847 950 q 859 965 850 958 q 882 972 868 972 l 950 972 q 974 963 965 972 q 983 939 983 954 l 983 32 q 974 9 983 18 q 950 0 964 0 l 882 0 q 859 9 868 0 q 850 32 850 18 l 850 715 l 618 263 q 574 233 604 233 l 531 233 q 486 263 500 233 l 253 715 l 253 32 q 244 9 253 18 q 221 0 235 0 l 153 0 z "},"N":{"ha":965,"x_min":121,"x_max":844,"o":"m 153 0 q 130 9 139 0 q 121 32 121 18 l 121 939 q 130 963 121 954 q 153 972 139 972 l 217 972 q 251 953 242 972 l 713 244 l 713 939 q 722 963 713 954 q 744 972 731 972 l 811 972 q 835 963 826 972 q 844 939 844 954 l 844 33 q 835 10 844 19 q 813 0 826 0 l 746 0 q 713 19 725 0 l 253 721 l 253 32 q 243 9 253 18 q 219 0 233 0 l 153 0 z "},"Ń":{"ha":965,"x_min":121,"x_max":844,"o":"m 153 0 q 130 9 139 0 q 121 32 121 18 l 121 939 q 130 963 121 954 q 153 972 139 972 l 217 972 q 251 953 242 972 l 713 244 l 713 939 q 722 963 713 954 q 744 972 731 972 l 811 972 q 835 963 826 972 q 844 939 844 954 l 844 33 q 835 10 844 19 q 813 0 826 0 l 746 0 q 713 19 725 0 l 253 721 l 253 32 q 243 9 253 18 q 219 0 233 0 l 153 0 m 443 1042 q 421 1064 421 1042 q 428 1082 421 1075 l 532 1207 q 555 1228 546 1222 q 583 1233 564 1233 l 686 1233 q 706 1226 699 1233 q 713 1206 713 1218 q 706 1189 713 1196 l 544 1057 q 524 1044 533 1047 q 499 1042 514 1042 l 443 1042 z "},"Ň":{"ha":965,"x_min":121,"x_max":844,"o":"m 153 0 q 130 9 139 0 q 121 32 121 18 l 121 939 q 130 963 121 954 q 153 972 139 972 l 217 972 q 251 953 242 972 l 713 244 l 713 939 q 722 963 713 954 q 744 972 731 972 l 811 972 q 835 963 826 972 q 844 939 844 954 l 844 33 q 835 10 844 19 q 813 0 826 0 l 746 0 q 713 19 725 0 l 253 721 l 253 32 q 243 9 253 18 q 219 0 233 0 l 153 0 m 460 1042 q 437 1045 446 1042 q 414 1063 428 1049 l 286 1190 q 271 1217 271 1206 q 292 1233 271 1233 l 329 1233 q 368 1224 351 1233 l 482 1144 l 596 1224 q 635 1233 613 1233 l 672 1233 q 693 1217 693 1233 q 678 1190 693 1206 l 550 1063 q 527 1045 536 1049 q 504 1042 518 1042 l 460 1042 z "},"Ņ":{"ha":965,"x_min":121,"x_max":844,"o":"m 153 0 q 130 9 139 0 q 121 32 121 18 l 121 939 q 130 963 121 954 q 153 972 139 972 l 217 972 q 251 953 242 972 l 713 244 l 713 939 q 722 963 713 954 q 744 972 731 972 l 811 972 q 835 963 826 972 q 844 939 844 954 l 844 33 q 835 10 844 19 q 813 0 826 0 l 746 0 q 713 19 725 0 l 253 721 l 253 32 q 243 9 253 18 q 219 0 233 0 l 153 0 m 400 -303 q 381 -294 388 -303 q 376 -281 376 -287 q 378 -272 376 -276 l 403 -110 q 442 -69 408 -69 l 532 -69 q 548 -76 542 -69 q 554 -93 554 -83 q 550 -115 554 -107 l 490 -269 q 474 -294 482 -286 q 450 -303 465 -303 l 400 -303 z "},"Ŋ":{"ha":965,"x_min":121,"x_max":844,"o":"m 581 -312 q 558 -303 567 -312 q 549 -281 549 -294 l 549 -224 q 558 -201 549 -210 q 581 -192 567 -192 l 596 -192 q 688 -156 663 -192 q 713 -56 713 -121 l 713 19 l 253 721 l 253 32 q 243 9 253 18 q 219 0 233 0 l 153 0 q 130 9 139 0 q 121 32 121 18 l 121 939 q 130 963 121 954 q 153 972 139 972 l 217 972 q 251 953 242 972 l 713 244 l 713 939 q 722 963 713 954 q 744 972 731 972 l 811 972 q 835 963 826 972 q 844 939 844 954 l 844 -57 q 589 -312 844 -312 l 581 -312 z "},"Ñ":{"ha":965,"x_min":121,"x_max":844,"o":"m 153 0 q 130 9 139 0 q 121 32 121 18 l 121 939 q 130 963 121 954 q 153 972 139 972 l 217 972 q 251 953 242 972 l 713 244 l 713 939 q 722 963 713 954 q 744 972 731 972 l 811 972 q 835 963 826 972 q 844 939 844 954 l 844 33 q 835 10 844 19 q 813 0 826 0 l 746 0 q 713 19 725 0 l 253 721 l 253 32 q 243 9 253 18 q 219 0 233 0 l 153 0 m 554 1035 q 510 1042 529 1035 q 468 1063 492 1049 q 442 1076 456 1069 q 415 1082 428 1082 q 398 1078 404 1082 q 388 1068 392 1074 q 382 1061 383 1063 q 356 1042 371 1042 l 311 1042 q 294 1049 301 1042 q 288 1064 288 1056 q 302 1123 288 1093 q 344 1173 317 1153 q 407 1193 371 1193 q 450 1186 432 1193 q 494 1165 468 1179 q 522 1152 507 1158 q 549 1146 536 1146 q 567 1151 561 1146 q 581 1168 574 1157 q 592 1183 586 1178 q 607 1188 597 1188 l 651 1188 q 669 1181 663 1188 q 675 1164 675 1174 q 660 1106 675 1136 q 617 1055 644 1075 q 554 1035 589 1035 z "},"O":{"ha":940,"x_min":83,"x_max":858,"o":"m 471 -14 q 190 81 289 -14 q 85 368 90 176 q 83 486 83 410 q 85 603 83 563 q 193 888 90 790 q 471 986 296 986 q 747 888 644 986 q 856 603 850 790 q 858 486 858 522 q 856 368 858 451 q 751 81 850 176 q 471 -14 651 -14 m 471 104 q 646 171 581 104 q 717 375 711 238 q 719 486 719 458 q 717 597 719 517 q 645 801 711 735 q 471 868 579 868 q 295 801 361 868 q 224 597 229 735 q 222 486 222 557 q 224 375 222 417 q 295 171 229 238 q 471 104 361 104 z "},"Ó":{"ha":940,"x_min":83,"x_max":858,"o":"m 471 -14 q 190 81 289 -14 q 85 368 90 176 q 83 486 83 410 q 85 603 83 563 q 193 888 90 790 q 471 986 296 986 q 747 888 644 986 q 856 603 850 790 q 858 486 858 522 q 856 368 858 451 q 751 81 850 176 q 471 -14 651 -14 m 471 104 q 646 171 581 104 q 717 375 711 238 q 719 486 719 458 q 717 597 719 517 q 645 801 711 735 q 471 868 579 868 q 295 801 361 868 q 224 597 229 735 q 222 486 222 557 q 224 375 222 417 q 295 171 229 238 q 471 104 361 104 m 432 1042 q 410 1064 410 1042 q 417 1082 410 1075 l 521 1207 q 544 1228 535 1222 q 572 1233 553 1233 l 675 1233 q 694 1226 688 1233 q 701 1206 701 1218 q 694 1189 701 1196 l 533 1057 q 513 1044 522 1047 q 488 1042 503 1042 l 432 1042 z "},"Ŏ":{"ha":940,"x_min":83,"x_max":858,"o":"m 471 -14 q 190 81 289 -14 q 85 368 90 176 q 83 486 83 410 q 85 603 83 563 q 193 888 90 790 q 471 986 296 986 q 747 888 644 986 q 856 603 850 790 q 858 486 858 522 q 856 368 858 451 q 751 81 850 176 q 471 -14 651 -14 m 471 104 q 646 171 581 104 q 717 375 711 238 q 719 486 719 458 q 717 597 719 517 q 645 801 711 735 q 471 868 579 868 q 295 801 361 868 q 224 597 229 735 q 222 486 222 557 q 224 375 222 417 q 295 171 229 238 q 471 104 361 104 m 471 1029 q 336 1077 378 1029 q 294 1200 294 1125 q 301 1219 294 1211 q 321 1226 308 1226 l 364 1226 q 383 1219 376 1226 q 390 1200 390 1211 q 408 1138 390 1163 q 471 1113 426 1113 q 533 1138 515 1113 q 551 1200 551 1163 q 558 1219 551 1211 q 578 1226 565 1226 l 621 1226 q 640 1219 633 1226 q 647 1200 647 1211 q 606 1078 647 1126 q 471 1029 564 1029 z "},"Ô":{"ha":940,"x_min":83,"x_max":858,"o":"m 471 -14 q 190 81 289 -14 q 85 368 90 176 q 83 486 83 410 q 85 603 83 563 q 193 888 90 790 q 471 986 296 986 q 747 888 644 986 q 856 603 850 790 q 858 486 858 522 q 856 368 858 451 q 751 81 850 176 q 471 -14 651 -14 m 471 104 q 646 171 581 104 q 717 375 711 238 q 719 486 719 458 q 717 597 719 517 q 645 801 711 735 q 471 868 579 868 q 295 801 361 868 q 224 597 229 735 q 222 486 222 557 q 224 375 222 417 q 295 171 229 238 q 471 104 361 104 m 281 1042 q 260 1058 260 1042 q 275 1085 260 1069 l 403 1213 q 426 1230 417 1226 q 449 1233 435 1233 l 493 1233 q 516 1230 507 1233 q 539 1213 525 1226 l 667 1085 q 682 1058 682 1069 q 661 1042 682 1042 l 624 1042 q 585 1051 599 1042 l 471 1131 l 357 1051 q 318 1042 343 1042 l 281 1042 z "},"Ö":{"ha":940,"x_min":83,"x_max":858,"o":"m 471 -14 q 190 81 289 -14 q 85 368 90 176 q 83 486 83 410 q 85 603 83 563 q 193 888 90 790 q 471 986 296 986 q 747 888 644 986 q 856 603 850 790 q 858 486 858 522 q 856 368 858 451 q 751 81 850 176 q 471 -14 651 -14 m 471 104 q 646 171 581 104 q 717 375 711 238 q 719 486 719 458 q 717 597 719 517 q 645 801 711 735 q 471 868 579 868 q 295 801 361 868 q 224 597 229 735 q 222 486 222 557 q 224 375 222 417 q 295 171 229 238 q 471 104 361 104 m 293 1042 q 271 1050 279 1042 q 263 1072 263 1058 l 263 1147 q 271 1170 263 1161 q 293 1179 279 1179 l 369 1179 q 392 1170 383 1179 q 401 1147 401 1161 l 401 1072 q 392 1050 401 1058 q 369 1042 383 1042 l 293 1042 m 571 1042 q 548 1050 557 1042 q 539 1072 539 1058 l 539 1147 q 548 1170 539 1161 q 571 1179 557 1179 l 646 1179 q 669 1170 660 1179 q 678 1147 678 1161 l 678 1072 q 669 1050 678 1058 q 646 1042 660 1042 l 571 1042 z "},"Ò":{"ha":940,"x_min":83,"x_max":858,"o":"m 471 -14 q 190 81 289 -14 q 85 368 90 176 q 83 486 83 410 q 85 603 83 563 q 193 888 90 790 q 471 986 296 986 q 747 888 644 986 q 856 603 850 790 q 858 486 858 522 q 856 368 858 451 q 751 81 850 176 q 471 -14 651 -14 m 471 104 q 646 171 581 104 q 717 375 711 238 q 719 486 719 458 q 717 597 719 517 q 645 801 711 735 q 471 868 579 868 q 295 801 361 868 q 224 597 229 735 q 222 486 222 557 q 224 375 222 417 q 295 171 229 238 q 471 104 361 104 m 464 1042 q 439 1044 449 1042 q 418 1057 429 1047 l 257 1189 q 250 1206 250 1196 q 257 1226 250 1218 q 276 1233 264 1233 l 379 1233 q 408 1228 399 1233 q 431 1207 417 1222 l 535 1082 q 542 1064 542 1075 q 519 1042 542 1042 l 464 1042 z "},"Ő":{"ha":940,"x_min":83,"x_max":858,"o":"m 471 -14 q 190 81 289 -14 q 85 368 90 176 q 83 486 83 410 q 85 603 83 563 q 193 888 90 790 q 471 986 296 986 q 747 888 644 986 q 856 603 850 790 q 858 486 858 522 q 856 368 858 451 q 751 81 850 176 q 471 -14 651 -14 m 471 104 q 646 171 581 104 q 717 375 711 238 q 719 486 719 458 q 717 597 719 517 q 645 801 711 735 q 471 868 579 868 q 295 801 361 868 q 224 597 229 735 q 222 486 222 557 q 224 375 222 417 q 295 171 229 238 q 471 104 361 104 m 328 1042 q 306 1064 306 1042 q 313 1085 306 1071 l 368 1207 q 387 1227 375 1221 q 419 1233 399 1233 l 506 1233 q 526 1226 518 1233 q 533 1207 533 1219 q 525 1189 533 1197 l 415 1061 q 372 1042 399 1042 l 328 1042 m 558 1042 q 536 1064 536 1042 q 543 1085 536 1071 l 599 1207 q 617 1227 606 1221 q 650 1233 629 1233 l 736 1233 q 756 1226 749 1233 q 764 1207 764 1219 q 756 1189 764 1196 l 646 1061 q 603 1042 629 1042 l 558 1042 z "},"Ō":{"ha":940,"x_min":83,"x_max":858,"o":"m 471 -14 q 190 81 289 -14 q 85 368 90 176 q 83 486 83 410 q 85 603 83 563 q 193 888 90 790 q 471 986 296 986 q 747 888 644 986 q 856 603 850 790 q 858 486 858 522 q 856 368 858 451 q 751 81 850 176 q 471 -14 651 -14 m 471 104 q 646 171 581 104 q 717 375 711 238 q 719 486 719 458 q 717 597 719 517 q 645 801 711 735 q 471 868 579 868 q 295 801 361 868 q 224 597 229 735 q 222 486 222 557 q 224 375 222 417 q 295 171 229 238 q 471 104 361 104 m 308 1042 q 286 1050 294 1042 q 278 1072 278 1058 l 278 1125 q 286 1147 278 1139 q 308 1156 294 1156 l 632 1156 q 654 1147 646 1156 q 663 1125 663 1139 l 663 1072 q 654 1050 663 1058 q 632 1042 646 1042 l 308 1042 z "},"Ø":{"ha":972,"x_min":15,"x_max":957,"o":"m 489 -14 q 231 62 326 -14 q 113 290 135 138 l 60 271 q 43 267 49 267 q 23 274 31 267 q 15 293 15 281 l 15 343 q 22 365 15 358 q 46 379 28 372 l 101 401 l 100 485 q 103 603 100 519 q 211 888 108 790 q 489 986 314 986 q 734 913 638 986 q 860 696 831 839 l 913 717 q 929 721 924 721 q 949 714 942 721 q 957 694 957 707 l 957 646 q 951 622 957 629 q 926 608 944 615 l 874 589 q 876 478 876 511 q 874 368 876 446 q 769 81 868 176 q 489 -14 669 -14 m 729 646 q 651 813 714 758 q 489 868 588 868 q 313 801 379 868 q 242 597 247 735 q 240 456 239 496 l 729 646 m 489 104 q 664 171 599 104 q 735 375 729 238 q 736 489 736 418 l 736 535 l 243 343 q 320 163 256 221 q 489 104 385 104 z "},"Ǿ":{"ha":972,"x_min":15,"x_max":957,"o":"m 489 -14 q 231 62 326 -14 q 113 290 135 138 l 60 271 q 43 267 49 267 q 23 274 31 267 q 15 293 15 281 l 15 343 q 22 365 15 358 q 46 379 28 372 l 101 401 l 100 485 q 103 603 100 519 q 211 888 108 790 q 489 986 314 986 q 734 913 638 986 q 860 696 831 839 l 913 717 q 929 721 924 721 q 949 714 942 721 q 957 694 957 707 l 957 646 q 951 622 957 629 q 926 608 944 615 l 874 589 q 876 478 876 511 q 874 368 876 446 q 769 81 868 176 q 489 -14 669 -14 m 729 646 q 651 813 714 758 q 489 868 588 868 q 313 801 379 868 q 242 597 247 735 q 240 456 239 496 l 729 646 m 489 104 q 664 171 599 104 q 735 375 729 238 q 736 489 736 418 l 736 535 l 243 343 q 320 163 256 221 q 489 104 385 104 m 447 1042 q 425 1064 425 1042 q 432 1082 425 1075 l 536 1207 q 559 1228 550 1222 q 588 1233 568 1233 l 690 1233 q 710 1226 703 1233 q 717 1206 717 1218 q 710 1189 717 1196 l 549 1057 q 528 1044 538 1047 q 503 1042 518 1042 l 447 1042 z "},"Õ":{"ha":940,"x_min":83,"x_max":858,"o":"m 471 -14 q 190 81 289 -14 q 85 368 90 176 q 83 486 83 410 q 85 603 83 563 q 193 888 90 790 q 471 986 296 986 q 747 888 644 986 q 856 603 850 790 q 858 486 858 522 q 856 368 858 451 q 751 81 850 176 q 471 -14 651 -14 m 471 104 q 646 171 581 104 q 717 375 711 238 q 719 486 719 458 q 717 597 719 517 q 645 801 711 735 q 471 868 579 868 q 295 801 361 868 q 224 597 229 735 q 222 486 222 557 q 224 375 222 417 q 295 171 229 238 q 471 104 361 104 m 543 1035 q 499 1042 518 1035 q 457 1063 481 1049 q 431 1076 444 1069 q 404 1082 417 1082 q 387 1078 393 1082 q 376 1068 381 1074 q 371 1061 372 1063 q 344 1042 360 1042 l 300 1042 q 283 1049 290 1042 q 276 1064 276 1056 q 291 1123 276 1093 q 333 1173 306 1153 q 396 1193 360 1193 q 439 1186 421 1193 q 483 1165 457 1179 q 510 1152 496 1158 q 538 1146 525 1146 q 556 1151 550 1146 q 569 1168 563 1157 q 581 1183 575 1178 q 596 1188 586 1188 l 640 1188 q 658 1181 651 1188 q 664 1164 664 1174 q 649 1106 664 1136 q 606 1055 633 1075 q 543 1035 578 1035 z "},"Œ":{"ha":1276,"x_min":86,"x_max":1206,"o":"m 482 0 q 256 40 342 0 q 131 163 171 81 q 88 378 92 246 l 86 488 l 88 596 q 185 878 92 785 q 489 972 279 972 l 1161 972 q 1185 963 1176 972 q 1194 939 1194 954 l 1194 886 q 1185 863 1194 871 q 1161 854 1176 854 l 740 854 l 740 550 l 1131 550 q 1155 541 1146 550 q 1164 517 1164 532 l 1164 465 q 1155 442 1164 451 q 1131 433 1146 433 l 740 433 l 740 118 l 1172 118 q 1197 110 1188 118 q 1206 86 1206 101 l 1206 32 q 1197 9 1206 18 q 1172 0 1188 0 l 482 0 m 607 118 l 607 854 l 496 854 q 291 790 354 854 q 225 590 228 726 l 224 488 l 225 383 q 253 228 228 286 q 336 144 279 171 q 489 118 393 118 l 607 118 z "},"P":{"ha":892,"x_min":121,"x_max":843,"o":"m 153 0 q 130 9 139 0 q 121 32 121 18 l 121 939 q 130 963 121 954 q 153 972 139 972 l 506 972 q 753 896 663 972 q 843 675 843 819 q 753 455 843 531 q 506 379 664 379 l 260 379 l 260 32 q 250 9 260 18 q 226 0 240 0 l 153 0 m 499 496 q 652 542 600 496 q 704 675 704 588 q 653 809 704 763 q 499 856 601 856 l 258 856 l 258 496 l 499 496 z "},"Þ":{"ha":899,"x_min":121,"x_max":843,"o":"m 153 0 q 130 9 139 0 q 121 32 121 18 l 121 940 q 130 963 121 954 q 153 972 139 972 l 228 972 q 251 963 242 972 q 260 940 260 954 l 260 785 l 504 785 q 753 708 663 785 q 843 488 843 632 q 753 268 843 343 q 504 193 663 193 l 260 193 l 260 32 q 250 9 260 18 q 226 0 240 0 l 153 0 m 499 308 q 652 354 600 308 q 704 489 704 400 q 653 622 704 575 q 499 669 601 669 l 258 669 l 258 308 l 499 308 z "},"Q":{"ha":940,"x_min":83,"x_max":857,"o":"m 747 -90 q 721 -81 732 -90 q 700 -58 710 -72 l 643 19 q 469 -14 571 -14 q 190 81 289 -14 q 85 368 90 176 q 83 486 83 410 q 85 603 83 563 q 193 888 90 790 q 469 986 296 986 q 747 888 644 986 q 854 603 849 790 q 857 486 857 522 q 854 368 857 451 q 754 83 849 178 l 846 -47 q 850 -62 850 -56 l 850 -65 q 842 -83 850 -75 q 822 -90 833 -90 l 747 -90 m 469 104 q 645 171 579 104 q 717 375 711 238 q 719 486 719 458 q 717 597 719 517 q 645 801 711 735 q 469 868 579 868 q 294 801 360 868 q 224 597 229 735 q 222 486 222 557 q 224 375 222 417 q 294 171 229 238 q 469 104 360 104 z "},"R":{"ha":910,"x_min":121,"x_max":851,"o":"m 153 0 q 130 9 139 0 q 121 32 121 18 l 121 939 q 130 963 121 954 q 153 972 139 972 l 492 972 q 742 897 651 972 q 832 681 832 822 q 780 507 832 575 q 633 413 728 439 l 847 43 q 851 28 851 35 q 842 8 851 17 q 822 0 833 0 l 756 0 q 723 10 735 0 q 701 38 711 19 l 500 390 l 257 390 l 257 32 q 247 9 257 18 q 224 0 238 0 l 153 0 m 486 508 q 693 682 693 508 q 486 856 693 856 l 257 856 l 257 508 l 486 508 z "},"Ŕ":{"ha":910,"x_min":121,"x_max":851,"o":"m 153 0 q 130 9 139 0 q 121 32 121 18 l 121 939 q 130 963 121 954 q 153 972 139 972 l 492 972 q 742 897 651 972 q 832 681 832 822 q 780 507 832 575 q 633 413 728 439 l 847 43 q 851 28 851 35 q 842 8 851 17 q 822 0 833 0 l 756 0 q 723 10 735 0 q 701 38 711 19 l 500 390 l 257 390 l 257 32 q 247 9 257 18 q 224 0 238 0 l 153 0 m 486 508 q 693 682 693 508 q 486 856 693 856 l 257 856 l 257 508 l 486 508 m 389 1042 q 367 1064 367 1042 q 374 1082 367 1075 l 478 1207 q 501 1228 492 1222 q 529 1233 510 1233 l 632 1233 q 651 1226 644 1233 q 658 1206 658 1218 q 651 1189 658 1196 l 490 1057 q 469 1044 479 1047 q 444 1042 460 1042 l 389 1042 z "},"Ř":{"ha":910,"x_min":121,"x_max":851,"o":"m 153 0 q 130 9 139 0 q 121 32 121 18 l 121 939 q 130 963 121 954 q 153 972 139 972 l 492 972 q 742 897 651 972 q 832 681 832 822 q 780 507 832 575 q 633 413 728 439 l 847 43 q 851 28 851 35 q 842 8 851 17 q 822 0 833 0 l 756 0 q 723 10 735 0 q 701 38 711 19 l 500 390 l 257 390 l 257 32 q 247 9 257 18 q 224 0 238 0 l 153 0 m 486 508 q 693 682 693 508 q 486 856 693 856 l 257 856 l 257 508 l 486 508 m 406 1042 q 383 1045 392 1042 q 360 1063 374 1049 l 232 1190 q 217 1217 217 1206 q 238 1233 217 1233 l 275 1233 q 314 1224 297 1233 l 428 1144 l 542 1224 q 581 1233 558 1233 l 618 1233 q 639 1217 639 1233 q 624 1190 639 1206 l 496 1063 q 473 1045 482 1049 q 450 1042 464 1042 l 406 1042 z "},"Ŗ":{"ha":910,"x_min":121,"x_max":851,"o":"m 153 0 q 130 9 139 0 q 121 32 121 18 l 121 939 q 130 963 121 954 q 153 972 139 972 l 492 972 q 742 897 651 972 q 832 681 832 822 q 780 507 832 575 q 633 413 728 439 l 847 43 q 851 28 851 35 q 842 8 851 17 q 822 0 833 0 l 756 0 q 723 10 735 0 q 701 38 711 19 l 500 390 l 257 390 l 257 32 q 247 9 257 18 q 224 0 238 0 l 153 0 m 486 508 q 693 682 693 508 q 486 856 693 856 l 257 856 l 257 508 l 486 508 m 375 -303 q 356 -294 363 -303 q 351 -281 351 -287 q 353 -272 351 -276 l 378 -110 q 417 -69 383 -69 l 507 -69 q 523 -76 517 -69 q 529 -93 529 -83 q 525 -115 529 -107 l 465 -269 q 449 -294 457 -286 q 425 -303 440 -303 l 375 -303 z "},"S":{"ha":864,"x_min":58,"x_max":803,"o":"m 433 -14 q 234 22 318 -14 q 106 117 150 58 q 58 244 61 176 q 67 265 58 256 q 89 274 76 274 l 160 274 q 196 246 186 274 q 267 146 208 188 q 433 104 326 104 q 607 145 549 104 q 665 260 665 186 q 637 336 665 307 q 553 388 608 365 q 386 443 497 410 q 214 508 278 474 q 118 594 150 543 q 86 724 86 646 q 127 858 86 799 q 244 952 168 918 q 426 986 321 986 q 613 948 535 986 q 731 851 690 910 q 774 735 771 793 q 766 715 774 724 q 744 707 758 707 l 671 707 q 635 733 642 707 q 569 830 626 792 q 426 868 513 868 q 278 832 332 868 q 224 725 224 796 q 249 647 224 678 q 328 594 275 617 q 482 542 381 571 q 668 476 600 510 q 769 391 736 442 q 803 263 803 340 q 703 60 803 133 q 433 -14 603 -14 z "},"Ś":{"ha":864,"x_min":58,"x_max":803,"o":"m 433 -14 q 234 22 318 -14 q 106 117 150 58 q 58 244 61 176 q 67 265 58 256 q 89 274 76 274 l 160 274 q 196 246 186 274 q 267 146 208 188 q 433 104 326 104 q 607 145 549 104 q 665 260 665 186 q 637 336 665 307 q 553 388 608 365 q 386 443 497 410 q 214 508 278 474 q 118 594 150 543 q 86 724 86 646 q 127 858 86 799 q 244 952 168 918 q 426 986 321 986 q 613 948 535 986 q 731 851 690 910 q 774 735 771 793 q 766 715 774 724 q 744 707 758 707 l 671 707 q 635 733 642 707 q 569 830 626 792 q 426 868 513 868 q 278 832 332 868 q 224 725 224 796 q 249 647 224 678 q 328 594 275 617 q 482 542 381 571 q 668 476 600 510 q 769 391 736 442 q 803 263 803 340 q 703 60 803 133 q 433 -14 603 -14 m 394 1042 q 372 1064 372 1042 q 379 1082 372 1075 l 483 1207 q 506 1228 497 1222 q 535 1233 515 1233 l 638 1233 q 657 1226 650 1233 q 664 1206 664 1218 q 657 1189 664 1196 l 496 1057 q 475 1044 485 1047 q 450 1042 465 1042 l 394 1042 z "},"Š":{"ha":864,"x_min":58,"x_max":803,"o":"m 433 -14 q 234 22 318 -14 q 106 117 150 58 q 58 244 61 176 q 67 265 58 256 q 89 274 76 274 l 160 274 q 196 246 186 274 q 267 146 208 188 q 433 104 326 104 q 607 145 549 104 q 665 260 665 186 q 637 336 665 307 q 553 388 608 365 q 386 443 497 410 q 214 508 278 474 q 118 594 150 543 q 86 724 86 646 q 127 858 86 799 q 244 952 168 918 q 426 986 321 986 q 613 948 535 986 q 731 851 690 910 q 774 735 771 793 q 766 715 774 724 q 744 707 758 707 l 671 707 q 635 733 642 707 q 569 830 626 792 q 426 868 513 868 q 278 832 332 868 q 224 725 224 796 q 249 647 224 678 q 328 594 275 617 q 482 542 381 571 q 668 476 600 510 q 769 391 736 442 q 803 263 803 340 q 703 60 803 133 q 433 -14 603 -14 m 411 1042 q 388 1045 397 1042 q 365 1063 379 1049 l 238 1190 q 222 1217 222 1206 q 243 1233 222 1233 l 281 1233 q 319 1224 303 1233 l 433 1144 l 547 1224 q 586 1233 564 1233 l 624 1233 q 644 1217 644 1233 q 629 1190 644 1206 l 501 1063 q 478 1045 488 1049 q 456 1042 469 1042 l 411 1042 z "},"Ş":{"ha":864,"x_min":58,"x_max":803,"o":"m 432 -306 q 348 -285 385 -306 q 311 -246 311 -265 q 317 -235 311 -239 l 339 -215 q 351 -208 346 -208 q 379 -222 358 -208 q 429 -236 400 -236 q 469 -222 454 -236 q 485 -185 485 -208 q 469 -149 485 -162 q 429 -136 453 -136 q 394 -143 414 -136 q 367 -149 374 -149 q 347 -140 354 -149 l 324 -115 q 319 -104 319 -110 q 324 -87 319 -97 q 329 -74 328 -78 l 357 -8 q 197 40 264 3 q 95 131 131 76 q 58 244 60 185 q 67 265 58 256 q 89 274 76 274 l 160 274 q 196 246 186 274 q 267 146 208 188 q 433 104 326 104 q 607 145 549 104 q 665 260 665 186 q 637 336 665 307 q 553 388 608 365 q 386 443 497 410 q 214 508 278 474 q 118 594 150 543 q 86 724 86 646 q 127 858 86 799 q 244 952 168 918 q 426 986 321 986 q 613 948 535 986 q 731 851 690 910 q 774 735 771 793 q 766 715 774 724 q 744 707 758 707 l 671 707 q 635 733 642 707 q 569 830 626 792 q 426 868 513 868 q 278 832 332 868 q 224 725 224 796 q 249 647 224 678 q 328 594 275 617 q 482 542 381 571 q 668 476 600 510 q 769 391 736 442 q 803 263 803 340 q 703 60 803 133 q 435 -14 604 -14 l 404 -78 q 454 -67 422 -67 q 531 -99 501 -67 q 561 -183 561 -132 q 528 -271 561 -236 q 432 -306 494 -306 z "},"Ŝ":{"ha":864,"x_min":58,"x_max":803,"o":"m 433 -14 q 234 22 318 -14 q 106 117 150 58 q 58 244 61 176 q 67 265 58 256 q 89 274 76 274 l 160 274 q 196 246 186 274 q 267 146 208 188 q 433 104 326 104 q 607 145 549 104 q 665 260 665 186 q 637 336 665 307 q 553 388 608 365 q 386 443 497 410 q 214 508 278 474 q 118 594 150 543 q 86 724 86 646 q 127 858 86 799 q 244 952 168 918 q 426 986 321 986 q 613 948 535 986 q 731 851 690 910 q 774 735 771 793 q 766 715 774 724 q 744 707 758 707 l 671 707 q 635 733 642 707 q 569 830 626 792 q 426 868 513 868 q 278 832 332 868 q 224 725 224 796 q 249 647 224 678 q 328 594 275 617 q 482 542 381 571 q 668 476 600 510 q 769 391 736 442 q 803 263 803 340 q 703 60 803 133 q 433 -14 603 -14 m 243 1042 q 222 1058 222 1042 q 238 1085 222 1069 l 365 1213 q 388 1230 379 1226 q 411 1233 397 1233 l 456 1233 q 478 1230 469 1233 q 501 1213 488 1226 l 629 1085 q 644 1058 644 1069 q 624 1042 644 1042 l 586 1042 q 547 1051 561 1042 l 433 1131 l 319 1051 q 281 1042 306 1042 l 243 1042 z "},"Ș":{"ha":864,"x_min":58,"x_max":803,"o":"m 433 -14 q 234 22 318 -14 q 106 117 150 58 q 58 244 61 176 q 67 265 58 256 q 89 274 76 274 l 160 274 q 196 246 186 274 q 267 146 208 188 q 433 104 326 104 q 607 145 549 104 q 665 260 665 186 q 637 336 665 307 q 553 388 608 365 q 386 443 497 410 q 214 508 278 474 q 118 594 150 543 q 86 724 86 646 q 127 858 86 799 q 244 952 168 918 q 426 986 321 986 q 613 948 535 986 q 731 851 690 910 q 774 735 771 793 q 766 715 774 724 q 744 707 758 707 l 671 707 q 635 733 642 707 q 569 830 626 792 q 426 868 513 868 q 278 832 332 868 q 224 725 224 796 q 249 647 224 678 q 328 594 275 617 q 482 542 381 571 q 668 476 600 510 q 769 391 736 442 q 803 263 803 340 q 703 60 803 133 q 433 -14 603 -14 m 347 -303 q 328 -294 335 -303 q 324 -281 324 -287 q 325 -272 324 -276 l 350 -110 q 389 -69 356 -69 l 479 -69 q 495 -76 489 -69 q 501 -93 501 -83 q 497 -115 501 -107 l 438 -269 q 421 -294 429 -286 q 397 -303 413 -303 l 347 -303 z "},"T":{"ha":804,"x_min":35,"x_max":769,"o":"m 365 0 q 342 9 351 0 q 333 32 333 18 l 333 849 l 67 849 q 44 858 53 849 q 35 881 35 867 l 35 939 q 44 963 35 953 q 67 972 53 972 l 736 972 q 760 963 751 972 q 769 939 769 954 l 769 881 q 760 858 769 867 q 736 849 750 849 l 471 849 l 471 32 q 461 9 471 18 q 438 0 451 0 l 365 0 z "},"Ŧ":{"ha":818,"x_min":42,"x_max":776,"o":"m 372 0 q 349 9 358 0 q 340 32 340 18 l 340 463 l 183 463 q 160 472 169 463 q 151 494 151 481 l 151 529 q 160 553 151 543 q 183 563 169 563 l 340 563 l 340 849 l 74 849 q 51 858 60 849 q 42 881 42 867 l 42 939 q 51 963 42 953 q 74 972 60 972 l 743 972 q 767 963 758 972 q 776 939 776 954 l 776 881 q 767 858 776 867 q 743 849 757 849 l 478 849 l 478 563 l 633 563 q 656 553 647 563 q 665 529 665 544 l 665 494 q 657 472 665 481 q 633 463 649 463 l 478 463 l 478 32 q 468 9 478 18 q 444 0 458 0 l 372 0 z "},"Ť":{"ha":804,"x_min":35,"x_max":769,"o":"m 365 0 q 342 9 351 0 q 333 32 333 18 l 333 849 l 67 849 q 44 858 53 849 q 35 881 35 867 l 35 939 q 44 963 35 953 q 67 972 53 972 l 736 972 q 760 963 751 972 q 769 939 769 954 l 769 881 q 760 858 769 867 q 736 849 750 849 l 471 849 l 471 32 q 461 9 471 18 q 438 0 451 0 l 365 0 m 381 1042 q 358 1045 367 1042 q 335 1063 349 1049 l 207 1190 q 192 1217 192 1206 q 213 1233 192 1233 l 250 1233 q 289 1224 272 1233 l 403 1144 l 517 1224 q 556 1233 533 1233 l 593 1233 q 614 1217 614 1233 q 599 1190 614 1206 l 471 1063 q 448 1045 457 1049 q 425 1042 439 1042 l 381 1042 z "},"Ț":{"ha":804,"x_min":35,"x_max":769,"o":"m 365 0 q 342 9 351 0 q 333 32 333 18 l 333 849 l 67 849 q 44 858 53 849 q 35 881 35 867 l 35 939 q 44 963 35 953 q 67 972 53 972 l 736 972 q 760 963 751 972 q 769 939 769 954 l 769 881 q 760 858 769 867 q 736 849 750 849 l 471 849 l 471 32 q 461 9 471 18 q 438 0 451 0 l 365 0 m 315 -303 q 296 -294 303 -303 q 292 -281 292 -287 q 293 -272 292 -276 l 318 -110 q 357 -69 324 -69 l 447 -69 q 463 -76 457 -69 q 469 -93 469 -83 q 465 -115 469 -107 l 406 -269 q 389 -294 397 -286 q 365 -303 381 -303 l 315 -303 z "},"U":{"ha":974,"x_min":113,"x_max":863,"o":"m 488 -14 q 210 83 308 -14 q 113 375 113 179 l 113 939 q 122 963 113 954 q 144 972 131 972 l 215 972 q 240 963 231 972 q 249 939 249 954 l 249 372 q 311 172 249 239 q 488 106 374 106 q 664 172 601 106 q 726 372 726 239 l 726 939 q 735 963 726 954 q 758 972 744 972 l 831 972 q 853 963 844 972 q 863 939 863 953 l 863 375 q 765 83 863 179 q 488 -14 667 -14 z "},"Ú":{"ha":974,"x_min":113,"x_max":863,"o":"m 488 -14 q 210 83 308 -14 q 113 375 113 179 l 113 939 q 122 963 113 954 q 144 972 131 972 l 215 972 q 240 963 231 972 q 249 939 249 954 l 249 372 q 311 172 249 239 q 488 106 374 106 q 664 172 601 106 q 726 372 726 239 l 726 939 q 735 963 726 954 q 758 972 744 972 l 831 972 q 853 963 844 972 q 863 939 863 953 l 863 375 q 765 83 863 179 q 488 -14 667 -14 m 449 1042 q 426 1064 426 1042 q 433 1082 426 1075 l 538 1207 q 560 1228 551 1222 q 589 1233 569 1233 l 692 1233 q 711 1226 704 1233 q 718 1206 718 1218 q 711 1189 718 1196 l 550 1057 q 529 1044 539 1047 q 504 1042 519 1042 l 449 1042 z "},"Ŭ":{"ha":974,"x_min":113,"x_max":863,"o":"m 488 -14 q 210 83 308 -14 q 113 375 113 179 l 113 939 q 122 963 113 954 q 144 972 131 972 l 215 972 q 240 963 231 972 q 249 939 249 954 l 249 372 q 311 172 249 239 q 488 106 374 106 q 664 172 601 106 q 726 372 726 239 l 726 939 q 735 963 726 954 q 758 972 744 972 l 831 972 q 853 963 844 972 q 863 939 863 953 l 863 375 q 765 83 863 179 q 488 -14 667 -14 m 488 1029 q 353 1077 394 1029 q 311 1200 311 1125 q 318 1219 311 1211 q 338 1226 325 1226 l 381 1226 q 400 1219 393 1226 q 407 1200 407 1211 q 425 1138 407 1163 q 488 1113 443 1113 q 550 1138 532 1113 q 568 1200 568 1163 q 575 1219 568 1211 q 594 1226 582 1226 l 638 1226 q 657 1219 650 1226 q 664 1200 664 1211 q 622 1078 664 1126 q 488 1029 581 1029 z "},"Û":{"ha":974,"x_min":113,"x_max":863,"o":"m 488 -14 q 210 83 308 -14 q 113 375 113 179 l 113 939 q 122 963 113 954 q 144 972 131 972 l 215 972 q 240 963 231 972 q 249 939 249 954 l 249 372 q 311 172 249 239 q 488 106 374 106 q 664 172 601 106 q 726 372 726 239 l 726 939 q 735 963 726 954 q 758 972 744 972 l 831 972 q 853 963 844 972 q 863 939 863 953 l 863 375 q 765 83 863 179 q 488 -14 667 -14 m 297 1042 q 276 1058 276 1042 q 292 1085 276 1069 l 419 1213 q 442 1230 433 1226 q 465 1233 451 1233 l 510 1233 q 533 1230 524 1233 q 556 1213 542 1226 l 683 1085 q 699 1058 699 1069 q 678 1042 699 1042 l 640 1042 q 601 1051 615 1042 l 488 1131 l 374 1051 q 335 1042 360 1042 l 297 1042 z "},"Ü":{"ha":974,"x_min":113,"x_max":863,"o":"m 488 -14 q 210 83 308 -14 q 113 375 113 179 l 113 939 q 122 963 113 954 q 144 972 131 972 l 215 972 q 240 963 231 972 q 249 939 249 954 l 249 372 q 311 172 249 239 q 488 106 374 106 q 664 172 601 106 q 726 372 726 239 l 726 939 q 735 963 726 954 q 758 972 744 972 l 831 972 q 853 963 844 972 q 863 939 863 953 l 863 375 q 765 83 863 179 q 488 -14 667 -14 m 310 1042 q 288 1050 296 1042 q 279 1072 279 1058 l 279 1147 q 288 1170 279 1161 q 310 1179 296 1179 l 386 1179 q 409 1170 400 1179 q 418 1147 418 1161 l 418 1072 q 409 1050 418 1058 q 386 1042 400 1042 l 310 1042 m 588 1042 q 565 1050 574 1042 q 556 1072 556 1058 l 556 1147 q 565 1170 556 1161 q 588 1179 574 1179 l 663 1179 q 685 1170 676 1179 q 694 1147 694 1161 l 694 1072 q 685 1050 694 1058 q 663 1042 676 1042 l 588 1042 z "},"Ù":{"ha":974,"x_min":113,"x_max":863,"o":"m 488 -14 q 210 83 308 -14 q 113 375 113 179 l 113 939 q 122 963 113 954 q 144 972 131 972 l 215 972 q 240 963 231 972 q 249 939 249 954 l 249 372 q 311 172 249 239 q 488 106 374 106 q 664 172 601 106 q 726 372 726 239 l 726 939 q 735 963 726 954 q 758 972 744 972 l 831 972 q 853 963 844 972 q 863 939 863 953 l 863 375 q 765 83 863 179 q 488 -14 667 -14 m 481 1042 q 456 1044 465 1042 q 435 1057 446 1047 l 274 1189 q 267 1206 267 1196 q 274 1226 267 1218 q 293 1233 281 1233 l 396 1233 q 424 1228 415 1233 q 447 1207 433 1222 l 551 1082 q 558 1064 558 1075 q 536 1042 558 1042 l 481 1042 z "},"Ű":{"ha":974,"x_min":113,"x_max":863,"o":"m 488 -14 q 210 83 308 -14 q 113 375 113 179 l 113 939 q 122 963 113 954 q 144 972 131 972 l 215 972 q 240 963 231 972 q 249 939 249 954 l 249 372 q 311 172 249 239 q 488 106 374 106 q 664 172 601 106 q 726 372 726 239 l 726 939 q 735 963 726 954 q 758 972 744 972 l 831 972 q 853 963 844 972 q 863 939 863 953 l 863 375 q 765 83 863 179 q 488 -14 667 -14 m 344 1042 q 322 1064 322 1042 q 329 1085 322 1071 l 385 1207 q 403 1227 392 1221 q 436 1233 415 1233 l 522 1233 q 542 1226 535 1233 q 550 1207 550 1219 q 542 1189 550 1197 l 432 1061 q 389 1042 415 1042 l 344 1042 m 575 1042 q 553 1064 553 1042 q 560 1085 553 1071 l 615 1207 q 634 1227 622 1221 q 667 1233 646 1233 l 753 1233 q 773 1226 765 1233 q 781 1207 781 1219 q 772 1189 781 1196 l 663 1061 q 619 1042 646 1042 l 575 1042 z "},"Ū":{"ha":974,"x_min":113,"x_max":863,"o":"m 488 -14 q 210 83 308 -14 q 113 375 113 179 l 113 939 q 122 963 113 954 q 144 972 131 972 l 215 972 q 240 963 231 972 q 249 939 249 954 l 249 372 q 311 172 249 239 q 488 106 374 106 q 664 172 601 106 q 726 372 726 239 l 726 939 q 735 963 726 954 q 758 972 744 972 l 831 972 q 853 963 844 972 q 863 939 863 953 l 863 375 q 765 83 863 179 q 488 -14 667 -14 m 325 1042 q 303 1050 311 1042 q 294 1072 294 1058 l 294 1125 q 303 1147 294 1139 q 325 1156 311 1156 l 649 1156 q 671 1147 663 1156 q 679 1125 679 1139 l 679 1072 q 671 1050 679 1058 q 649 1042 663 1042 l 325 1042 z "},"Ų":{"ha":974,"x_min":113,"x_max":863,"o":"m 581 -306 q 439 -251 490 -306 q 388 -106 388 -197 q 404 -7 388 -44 q 188 107 264 13 q 113 375 113 201 l 113 939 q 122 963 113 954 q 144 972 131 972 l 215 972 q 240 963 231 972 q 249 939 249 954 l 249 372 q 311 172 249 239 q 488 106 374 106 q 664 172 601 106 q 726 372 726 239 l 726 939 q 735 963 726 954 q 758 972 744 972 l 831 972 q 853 963 844 972 q 863 939 863 953 l 863 375 q 790 111 863 206 q 582 -7 718 17 q 512 -38 536 -15 q 488 -106 488 -61 q 515 -181 488 -153 q 586 -210 542 -210 l 606 -210 q 628 -219 619 -210 q 638 -242 638 -228 l 638 -274 q 628 -297 638 -287 q 606 -306 619 -306 l 581 -306 z "},"Ů":{"ha":974,"x_min":113,"x_max":863,"o":"m 488 -14 q 210 83 308 -14 q 113 375 113 179 l 113 939 q 122 963 113 954 q 144 972 131 972 l 215 972 q 240 963 231 972 q 249 939 249 954 l 249 372 q 311 172 249 239 q 488 106 374 106 q 664 172 601 106 q 726 372 726 239 l 726 939 q 735 963 726 954 q 758 972 744 972 l 831 972 q 853 963 844 972 q 863 939 863 953 l 863 375 q 765 83 863 179 q 488 -14 667 -14 m 488 1028 q 405 1059 439 1028 q 371 1138 371 1090 q 405 1216 371 1185 q 488 1247 439 1247 q 570 1216 536 1247 q 604 1138 604 1185 q 570 1059 604 1090 q 488 1028 536 1028 m 488 1096 q 517 1108 506 1096 q 529 1138 529 1119 q 517 1167 529 1156 q 488 1179 506 1179 q 458 1167 469 1179 q 446 1138 446 1156 q 458 1108 446 1119 q 488 1096 469 1096 z "},"Ũ":{"ha":974,"x_min":113,"x_max":863,"o":"m 488 -14 q 210 83 308 -14 q 113 375 113 179 l 113 939 q 122 963 113 954 q 144 972 131 972 l 215 972 q 240 963 231 972 q 249 939 249 954 l 249 372 q 311 172 249 239 q 488 106 374 106 q 664 172 601 106 q 726 372 726 239 l 726 939 q 735 963 726 954 q 758 972 744 972 l 831 972 q 853 963 844 972 q 863 939 863 953 l 863 375 q 765 83 863 179 q 488 -14 667 -14 m 560 1035 q 516 1042 535 1035 q 474 1063 497 1049 q 447 1076 461 1069 q 421 1082 433 1082 q 403 1078 410 1082 q 393 1068 397 1074 q 388 1061 389 1063 q 361 1042 376 1042 l 317 1042 q 300 1049 307 1042 q 293 1064 293 1056 q 308 1123 293 1093 q 349 1173 322 1153 q 413 1193 376 1193 q 456 1186 438 1193 q 500 1165 474 1179 q 527 1152 513 1158 q 554 1146 542 1146 q 573 1151 567 1146 q 586 1168 579 1157 q 597 1183 592 1178 q 613 1188 603 1188 l 657 1188 q 674 1181 668 1188 q 681 1164 681 1174 q 665 1106 681 1136 q 622 1055 650 1075 q 560 1035 594 1035 z "},"V":{"ha":910,"x_min":46,"x_max":864,"o":"m 410 0 q 358 36 372 0 l 49 929 l 46 944 q 54 964 46 956 q 74 972 63 972 l 146 972 q 183 947 172 972 l 454 160 l 726 947 q 739 964 729 956 q 763 972 749 972 l 835 972 q 855 964 846 972 q 864 944 864 956 l 861 929 l 550 36 q 500 0 536 0 l 410 0 z "},"W":{"ha":1113,"x_min":61,"x_max":1051,"o":"m 285 0 q 242 38 249 0 l 63 929 q 61 944 61 936 q 69 964 61 956 q 89 972 78 972 l 161 972 q 194 949 190 972 l 336 232 l 486 724 q 531 757 499 757 l 582 757 q 610 747 600 757 q 625 724 621 738 l 776 232 l 917 949 q 951 972 921 972 l 1024 972 q 1043 964 1035 972 q 1051 944 1051 956 l 1050 929 l 871 38 q 828 0 863 0 l 774 0 q 728 35 738 0 l 556 564 l 385 35 q 339 0 374 0 l 285 0 z "},"Ẃ":{"ha":1113,"x_min":61,"x_max":1051,"o":"m 285 0 q 242 38 249 0 l 63 929 q 61 944 61 936 q 69 964 61 956 q 89 972 78 972 l 161 972 q 194 949 190 972 l 336 232 l 486 724 q 531 757 499 757 l 582 757 q 610 747 600 757 q 625 724 621 738 l 776 232 l 917 949 q 951 972 921 972 l 1024 972 q 1043 964 1035 972 q 1051 944 1051 956 l 1050 929 l 871 38 q 828 0 863 0 l 774 0 q 728 35 738 0 l 556 564 l 385 35 q 339 0 374 0 l 285 0 m 517 1042 q 494 1064 494 1042 q 501 1082 494 1075 l 606 1207 q 628 1228 619 1222 q 657 1233 638 1233 l 760 1233 q 779 1226 772 1233 q 786 1206 786 1218 q 779 1189 786 1196 l 618 1057 q 597 1044 607 1047 q 572 1042 588 1042 l 517 1042 z "},"Ŵ":{"ha":1113,"x_min":61,"x_max":1051,"o":"m 285 0 q 242 38 249 0 l 63 929 q 61 944 61 936 q 69 964 61 956 q 89 972 78 972 l 161 972 q 194 949 190 972 l 336 232 l 486 724 q 531 757 499 757 l 582 757 q 610 747 600 757 q 625 724 621 738 l 776 232 l 917 949 q 951 972 921 972 l 1024 972 q 1043 964 1035 972 q 1051 944 1051 956 l 1050 929 l 871 38 q 828 0 863 0 l 774 0 q 728 35 738 0 l 556 564 l 385 35 q 339 0 374 0 l 285 0 m 365 1042 q 344 1058 344 1042 q 360 1085 344 1069 l 488 1213 q 510 1230 501 1226 q 533 1233 519 1233 l 578 1233 q 601 1230 592 1233 q 624 1213 610 1226 l 751 1085 q 767 1058 767 1069 q 746 1042 767 1042 l 708 1042 q 669 1051 683 1042 l 556 1131 l 442 1051 q 403 1042 428 1042 l 365 1042 z "},"Ẅ":{"ha":1113,"x_min":61,"x_max":1051,"o":"m 285 0 q 242 38 249 0 l 63 929 q 61 944 61 936 q 69 964 61 956 q 89 972 78 972 l 161 972 q 194 949 190 972 l 336 232 l 486 724 q 531 757 499 757 l 582 757 q 610 747 600 757 q 625 724 621 738 l 776 232 l 917 949 q 951 972 921 972 l 1024 972 q 1043 964 1035 972 q 1051 944 1051 956 l 1050 929 l 871 38 q 828 0 863 0 l 774 0 q 728 35 738 0 l 556 564 l 385 35 q 339 0 374 0 l 285 0 m 378 1042 q 356 1050 364 1042 q 347 1072 347 1058 l 347 1147 q 356 1170 347 1161 q 378 1179 364 1179 l 454 1179 q 477 1170 468 1179 q 486 1147 486 1161 l 486 1072 q 477 1050 486 1058 q 454 1042 468 1042 l 378 1042 m 656 1042 q 633 1050 642 1042 q 624 1072 624 1058 l 624 1147 q 633 1170 624 1161 q 656 1179 642 1179 l 731 1179 q 753 1170 744 1179 q 763 1147 763 1161 l 763 1072 q 753 1050 763 1058 q 731 1042 744 1042 l 656 1042 z "},"Ẁ":{"ha":1113,"x_min":61,"x_max":1051,"o":"m 285 0 q 242 38 249 0 l 63 929 q 61 944 61 936 q 69 964 61 956 q 89 972 78 972 l 161 972 q 194 949 190 972 l 336 232 l 486 724 q 531 757 499 757 l 582 757 q 610 747 600 757 q 625 724 621 738 l 776 232 l 917 949 q 951 972 921 972 l 1024 972 q 1043 964 1035 972 q 1051 944 1051 956 l 1050 929 l 871 38 q 828 0 863 0 l 774 0 q 728 35 738 0 l 556 564 l 385 35 q 339 0 374 0 l 285 0 m 549 1042 q 524 1044 533 1042 q 503 1057 514 1047 l 342 1189 q 335 1206 335 1196 q 342 1226 335 1218 q 361 1233 349 1233 l 464 1233 q 492 1228 483 1233 q 515 1207 501 1222 l 619 1082 q 626 1064 626 1075 q 604 1042 626 1042 l 549 1042 z "},"X":{"ha":879,"x_min":33,"x_max":847,"o":"m 63 0 q 42 8 51 0 q 33 28 33 17 q 39 46 33 38 l 357 494 l 54 926 q 50 944 50 933 q 58 964 50 956 q 78 972 67 972 l 161 972 q 199 949 182 972 l 443 601 l 686 949 q 722 972 700 972 l 801 972 q 821 964 813 972 q 829 944 829 956 q 824 926 829 932 l 525 493 l 842 46 q 847 28 847 38 q 839 8 847 17 q 818 0 831 0 l 733 0 q 696 24 713 0 l 438 383 l 181 24 q 144 0 167 0 l 63 0 z "},"Y":{"ha":899,"x_min":42,"x_max":857,"o":"m 413 0 q 390 9 399 0 q 381 32 381 18 l 381 360 l 46 926 q 44 935 46 929 q 42 944 42 940 q 50 964 42 956 q 69 972 58 972 l 142 972 q 178 949 165 972 l 449 499 l 719 949 q 757 972 735 972 l 828 972 q 849 964 840 972 q 857 944 857 956 q 851 926 857 938 l 518 360 l 518 32 q 508 9 518 18 q 485 0 499 0 l 413 0 z "},"Ý":{"ha":899,"x_min":42,"x_max":857,"o":"m 413 0 q 390 9 399 0 q 381 32 381 18 l 381 360 l 46 926 q 44 935 46 929 q 42 944 42 940 q 50 964 42 956 q 69 972 58 972 l 142 972 q 178 949 165 972 l 449 499 l 719 949 q 757 972 735 972 l 828 972 q 849 964 840 972 q 857 944 857 956 q 851 926 857 938 l 518 360 l 518 32 q 508 9 518 18 q 485 0 499 0 l 413 0 m 410 1042 q 388 1064 388 1042 q 394 1082 388 1075 l 499 1207 q 522 1228 513 1222 q 550 1233 531 1233 l 653 1233 q 672 1226 665 1233 q 679 1206 679 1218 q 672 1189 679 1196 l 511 1057 q 490 1044 500 1047 q 465 1042 481 1042 l 410 1042 z "},"Ŷ":{"ha":899,"x_min":42,"x_max":857,"o":"m 413 0 q 390 9 399 0 q 381 32 381 18 l 381 360 l 46 926 q 44 935 46 929 q 42 944 42 940 q 50 964 42 956 q 69 972 58 972 l 142 972 q 178 949 165 972 l 449 499 l 719 949 q 757 972 735 972 l 828 972 q 849 964 840 972 q 857 944 857 956 q 851 926 857 938 l 518 360 l 518 32 q 508 9 518 18 q 485 0 499 0 l 413 0 m 258 1042 q 238 1058 238 1042 q 253 1085 238 1069 l 381 1213 q 403 1230 394 1226 q 426 1233 413 1233 l 471 1233 q 494 1230 485 1233 q 517 1213 503 1226 l 644 1085 q 660 1058 660 1069 q 639 1042 660 1042 l 601 1042 q 563 1051 576 1042 l 449 1131 l 335 1051 q 296 1042 321 1042 l 258 1042 z "},"Ÿ":{"ha":899,"x_min":42,"x_max":857,"o":"m 413 0 q 390 9 399 0 q 381 32 381 18 l 381 360 l 46 926 q 44 935 46 929 q 42 944 42 940 q 50 964 42 956 q 69 972 58 972 l 142 972 q 178 949 165 972 l 449 499 l 719 949 q 757 972 735 972 l 828 972 q 849 964 840 972 q 857 944 857 956 q 851 926 857 938 l 518 360 l 518 32 q 508 9 518 18 q 485 0 499 0 l 413 0 m 271 1042 q 249 1050 257 1042 q 240 1072 240 1058 l 240 1147 q 249 1170 240 1161 q 271 1179 257 1179 l 347 1179 q 370 1170 361 1179 q 379 1147 379 1161 l 379 1072 q 370 1050 379 1058 q 347 1042 361 1042 l 271 1042 m 549 1042 q 526 1050 535 1042 q 517 1072 517 1058 l 517 1147 q 526 1170 517 1161 q 549 1179 535 1179 l 624 1179 q 647 1170 638 1179 q 656 1147 656 1161 l 656 1072 q 647 1050 656 1058 q 624 1042 638 1042 l 549 1042 z "},"Ỳ":{"ha":899,"x_min":42,"x_max":857,"o":"m 413 0 q 390 9 399 0 q 381 32 381 18 l 381 360 l 46 926 q 44 935 46 929 q 42 944 42 940 q 50 964 42 956 q 69 972 58 972 l 142 972 q 178 949 165 972 l 449 499 l 719 949 q 757 972 735 972 l 828 972 q 849 964 840 972 q 857 944 857 956 q 851 926 857 938 l 518 360 l 518 32 q 508 9 518 18 q 485 0 499 0 l 413 0 m 442 1042 q 417 1044 426 1042 q 396 1057 407 1047 l 235 1189 q 228 1206 228 1196 q 235 1226 228 1218 q 254 1233 242 1233 l 357 1233 q 385 1228 376 1233 q 408 1207 394 1222 l 513 1082 q 519 1064 519 1075 q 497 1042 519 1042 l 442 1042 z "},"Z":{"ha":833,"x_min":57,"x_max":778,"o":"m 89 0 q 66 9 75 0 q 57 33 57 18 l 57 93 q 63 122 57 111 q 78 144 69 133 l 594 851 l 101 851 q 78 860 88 851 q 69 883 69 869 l 69 939 q 78 963 69 954 q 101 972 88 972 l 731 972 q 755 963 746 972 q 764 939 764 954 l 764 879 q 759 854 764 864 q 746 831 754 844 l 233 121 l 744 121 q 769 112 760 121 q 778 88 778 103 l 778 32 q 769 9 778 18 q 744 0 760 0 l 89 0 z "},"Ź":{"ha":833,"x_min":57,"x_max":778,"o":"m 89 0 q 66 9 75 0 q 57 33 57 18 l 57 93 q 63 122 57 111 q 78 144 69 133 l 594 851 l 101 851 q 78 860 88 851 q 69 883 69 869 l 69 939 q 78 963 69 954 q 101 972 88 972 l 731 972 q 755 963 746 972 q 764 939 764 954 l 764 879 q 759 854 764 864 q 746 831 754 844 l 233 121 l 744 121 q 769 112 760 121 q 778 88 778 103 l 778 32 q 769 9 778 18 q 744 0 760 0 l 89 0 m 365 1042 q 343 1064 343 1042 q 350 1082 343 1075 l 454 1207 q 477 1228 468 1222 q 506 1233 486 1233 l 608 1233 q 628 1226 621 1233 q 635 1206 635 1218 q 628 1189 635 1196 l 467 1057 q 446 1044 456 1047 q 421 1042 436 1042 l 365 1042 z "},"Ž":{"ha":833,"x_min":57,"x_max":778,"o":"m 89 0 q 66 9 75 0 q 57 33 57 18 l 57 93 q 63 122 57 111 q 78 144 69 133 l 594 851 l 101 851 q 78 860 88 851 q 69 883 69 869 l 69 939 q 78 963 69 954 q 101 972 88 972 l 731 972 q 755 963 746 972 q 764 939 764 954 l 764 879 q 759 854 764 864 q 746 831 754 844 l 233 121 l 744 121 q 769 112 760 121 q 778 88 778 103 l 778 32 q 769 9 778 18 q 744 0 760 0 l 89 0 m 382 1042 q 359 1045 368 1042 q 336 1063 350 1049 l 208 1190 q 193 1217 193 1206 q 214 1233 193 1233 l 251 1233 q 290 1224 274 1233 l 404 1144 l 518 1224 q 557 1233 535 1233 l 594 1233 q 615 1217 615 1233 q 600 1190 615 1206 l 472 1063 q 449 1045 458 1049 q 426 1042 440 1042 l 382 1042 z "},"Ż":{"ha":833,"x_min":57,"x_max":778,"o":"m 89 0 q 66 9 75 0 q 57 33 57 18 l 57 93 q 63 122 57 111 q 78 144 69 133 l 594 851 l 101 851 q 78 860 88 851 q 69 883 69 869 l 69 939 q 78 963 69 954 q 101 972 88 972 l 731 972 q 755 963 746 972 q 764 939 764 954 l 764 879 q 759 854 764 864 q 746 831 754 844 l 233 121 l 744 121 q 769 112 760 121 q 778 88 778 103 l 778 32 q 769 9 778 18 q 744 0 760 0 l 89 0 m 358 1042 q 336 1050 344 1042 q 328 1072 328 1058 l 328 1163 q 336 1185 328 1176 q 358 1194 344 1194 l 449 1194 q 472 1185 463 1194 q 481 1163 481 1176 l 481 1072 q 472 1050 481 1058 q 449 1042 463 1042 l 358 1042 z "},"a":{"ha":767,"x_min":51,"x_max":669,"o":"m 304 -14 q 178 14 236 -14 q 85 90 119 42 q 51 196 51 138 q 127 347 51 288 q 332 424 203 406 l 539 453 l 539 493 q 376 635 539 635 q 276 609 315 635 q 218 549 238 583 q 208 531 214 536 q 190 525 201 525 l 131 525 q 109 534 118 525 q 100 556 100 543 q 131 631 101 589 q 224 705 161 674 q 378 736 286 736 q 601 663 533 736 q 669 482 669 590 l 669 32 q 660 9 669 18 q 638 0 651 0 l 574 0 q 551 9 560 0 q 542 32 542 18 l 542 92 q 453 17 511 47 q 304 -14 394 -14 m 333 90 q 481 149 424 90 q 539 319 539 208 l 539 358 l 378 335 q 229 288 279 321 q 179 206 179 256 q 225 120 179 150 q 333 90 271 90 z "},"á":{"ha":767,"x_min":51,"x_max":669,"o":"m 304 -14 q 178 14 236 -14 q 85 90 119 42 q 51 196 51 138 q 127 347 51 288 q 332 424 203 406 l 539 453 l 539 493 q 376 635 539 635 q 276 609 315 635 q 218 549 238 583 q 208 531 214 536 q 190 525 201 525 l 131 525 q 109 534 118 525 q 100 556 100 543 q 131 631 101 589 q 224 705 161 674 q 378 736 286 736 q 601 663 533 736 q 669 482 669 590 l 669 32 q 660 9 669 18 q 638 0 651 0 l 574 0 q 551 9 560 0 q 542 32 542 18 l 542 92 q 453 17 511 47 q 304 -14 394 -14 m 333 90 q 481 149 424 90 q 539 319 539 208 l 539 358 l 378 335 q 229 288 279 321 q 179 206 179 256 q 225 120 179 150 q 333 90 271 90 m 318 826 q 296 849 296 826 q 303 867 296 860 l 407 992 q 430 1013 421 1007 q 458 1018 439 1018 l 553 1018 q 572 1010 565 1018 q 579 990 579 1003 q 572 974 579 981 l 411 842 q 390 829 400 832 q 365 826 381 826 l 318 826 z "},"ă":{"ha":767,"x_min":51,"x_max":669,"o":"m 304 -14 q 178 14 236 -14 q 85 90 119 42 q 51 196 51 138 q 127 347 51 288 q 332 424 203 406 l 539 453 l 539 493 q 376 635 539 635 q 276 609 315 635 q 218 549 238 583 q 208 531 214 536 q 190 525 201 525 l 131 525 q 109 534 118 525 q 100 556 100 543 q 131 631 101 589 q 224 705 161 674 q 378 736 286 736 q 601 663 533 736 q 669 482 669 590 l 669 32 q 660 9 669 18 q 638 0 651 0 l 574 0 q 551 9 560 0 q 542 32 542 18 l 542 92 q 453 17 511 47 q 304 -14 394 -14 m 333 90 q 481 149 424 90 q 539 319 539 208 l 539 358 l 378 335 q 229 288 279 321 q 179 206 179 256 q 225 120 179 150 q 333 90 271 90 m 375 819 q 246 868 286 819 q 206 992 206 917 q 213 1010 206 1003 q 232 1018 219 1018 l 274 1018 q 293 1010 286 1018 q 300 992 300 1003 q 375 903 300 903 q 450 992 450 903 q 457 1010 450 1003 q 476 1018 464 1018 l 518 1018 q 538 1010 531 1018 q 544 992 544 1003 q 504 868 544 917 q 375 819 464 819 z "},"â":{"ha":767,"x_min":51,"x_max":669,"o":"m 304 -14 q 178 14 236 -14 q 85 90 119 42 q 51 196 51 138 q 127 347 51 288 q 332 424 203 406 l 539 453 l 539 493 q 376 635 539 635 q 276 609 315 635 q 218 549 238 583 q 208 531 214 536 q 190 525 201 525 l 131 525 q 109 534 118 525 q 100 556 100 543 q 131 631 101 589 q 224 705 161 674 q 378 736 286 736 q 601 663 533 736 q 669 482 669 590 l 669 32 q 660 9 669 18 q 638 0 651 0 l 574 0 q 551 9 560 0 q 542 32 542 18 l 542 92 q 453 17 511 47 q 304 -14 394 -14 m 333 90 q 481 149 424 90 q 539 319 539 208 l 539 358 l 378 335 q 229 288 279 321 q 179 206 179 256 q 225 120 179 150 q 333 90 271 90 m 185 826 q 164 843 164 826 q 179 869 164 854 l 307 997 q 329 1015 319 1011 q 353 1018 339 1018 l 394 1018 q 417 1015 408 1018 q 440 997 426 1011 l 568 869 q 583 843 583 854 q 563 826 583 826 l 526 826 q 488 836 501 826 l 374 915 l 260 836 q 221 826 246 826 l 185 826 z "},"ä":{"ha":767,"x_min":51,"x_max":669,"o":"m 304 -14 q 178 14 236 -14 q 85 90 119 42 q 51 196 51 138 q 127 347 51 288 q 332 424 203 406 l 539 453 l 539 493 q 376 635 539 635 q 276 609 315 635 q 218 549 238 583 q 208 531 214 536 q 190 525 201 525 l 131 525 q 109 534 118 525 q 100 556 100 543 q 131 631 101 589 q 224 705 161 674 q 378 736 286 736 q 601 663 533 736 q 669 482 669 590 l 669 32 q 660 9 669 18 q 638 0 651 0 l 574 0 q 551 9 560 0 q 542 32 542 18 l 542 92 q 453 17 511 47 q 304 -14 394 -14 m 333 90 q 481 149 424 90 q 539 319 539 208 l 539 358 l 378 335 q 229 288 279 321 q 179 206 179 256 q 225 120 179 150 q 333 90 271 90 m 224 863 q 201 871 210 863 q 193 893 193 879 l 193 968 q 201 991 193 982 q 224 1000 210 1000 l 300 1000 q 323 991 314 1000 q 332 968 332 982 l 332 893 q 323 871 332 879 q 300 863 314 863 l 224 863 m 460 863 q 437 871 446 863 q 428 893 428 879 l 428 968 q 437 991 428 982 q 460 1000 446 1000 l 535 1000 q 558 991 549 1000 q 567 968 567 982 l 567 893 q 558 871 567 879 q 535 863 549 863 l 460 863 z "},"à":{"ha":767,"x_min":51,"x_max":669,"o":"m 304 -14 q 178 14 236 -14 q 85 90 119 42 q 51 196 51 138 q 127 347 51 288 q 332 424 203 406 l 539 453 l 539 493 q 376 635 539 635 q 276 609 315 635 q 218 549 238 583 q 208 531 214 536 q 190 525 201 525 l 131 525 q 109 534 118 525 q 100 556 100 543 q 131 631 101 589 q 224 705 161 674 q 378 736 286 736 q 601 663 533 736 q 669 482 669 590 l 669 32 q 660 9 669 18 q 638 0 651 0 l 574 0 q 551 9 560 0 q 542 32 542 18 l 542 92 q 453 17 511 47 q 304 -14 394 -14 m 333 90 q 481 149 424 90 q 539 319 539 208 l 539 358 l 378 335 q 229 288 279 321 q 179 206 179 256 q 225 120 179 150 q 333 90 271 90 m 375 826 q 350 829 360 826 q 329 842 340 832 l 168 974 q 161 990 161 981 q 168 1010 161 1003 q 188 1018 175 1018 l 282 1018 q 310 1013 301 1018 q 333 992 319 1007 l 438 867 q 444 849 444 860 q 422 826 444 826 l 375 826 z "},"ā":{"ha":767,"x_min":51,"x_max":669,"o":"m 304 -14 q 178 14 236 -14 q 85 90 119 42 q 51 196 51 138 q 127 347 51 288 q 332 424 203 406 l 539 453 l 539 493 q 376 635 539 635 q 276 609 315 635 q 218 549 238 583 q 208 531 214 536 q 190 525 201 525 l 131 525 q 109 534 118 525 q 100 556 100 543 q 131 631 101 589 q 224 705 161 674 q 378 736 286 736 q 601 663 533 736 q 669 482 669 590 l 669 32 q 660 9 669 18 q 638 0 651 0 l 574 0 q 551 9 560 0 q 542 32 542 18 l 542 92 q 453 17 511 47 q 304 -14 394 -14 m 333 90 q 481 149 424 90 q 539 319 539 208 l 539 358 l 378 335 q 229 288 279 321 q 179 206 179 256 q 225 120 179 150 q 333 90 271 90 m 219 857 q 197 865 206 857 q 189 888 189 874 l 189 931 q 197 953 189 944 q 219 961 206 961 l 529 961 q 552 953 543 961 q 561 931 561 944 l 561 888 q 552 865 561 874 q 529 857 543 857 l 219 857 z "},"ą":{"ha":767,"x_min":51,"x_max":669,"o":"m 624 -306 q 500 -254 547 -306 q 453 -114 453 -203 q 481 -21 453 -61 q 546 39 510 19 q 542 50 542 43 l 542 92 q 453 17 511 47 q 304 -14 394 -14 q 178 14 236 -14 q 85 90 119 42 q 51 196 51 138 q 127 347 51 288 q 332 424 203 406 l 539 453 l 539 493 q 376 635 539 635 q 276 609 315 635 q 218 549 238 583 q 208 531 214 536 q 190 525 201 525 l 131 525 q 109 534 118 525 q 100 556 100 543 q 131 631 101 589 q 224 705 161 674 q 378 736 286 736 q 601 663 533 736 q 669 482 669 590 l 669 32 q 647 1 669 11 l 640 0 q 574 -45 594 -18 q 553 -114 553 -72 q 572 -185 553 -161 q 629 -210 592 -210 l 638 -210 q 661 -219 653 -210 q 669 -242 669 -228 l 669 -274 q 660 -297 669 -287 q 638 -306 651 -306 l 624 -306 m 333 90 q 481 149 424 90 q 539 319 539 208 l 539 358 l 378 335 q 229 288 279 321 q 179 206 179 256 q 225 120 179 150 q 333 90 271 90 z "},"å":{"ha":767,"x_min":51,"x_max":669,"o":"m 304 -14 q 178 14 236 -14 q 85 90 119 42 q 51 196 51 138 q 127 347 51 288 q 332 424 203 406 l 539 453 l 539 493 q 376 635 539 635 q 276 609 315 635 q 218 549 238 583 q 208 531 214 536 q 190 525 201 525 l 131 525 q 109 534 118 525 q 100 556 100 543 q 131 631 101 589 q 224 705 161 674 q 378 736 286 736 q 601 663 533 736 q 669 482 669 590 l 669 32 q 660 9 669 18 q 638 0 651 0 l 574 0 q 551 9 560 0 q 542 32 542 18 l 542 92 q 453 17 511 47 q 304 -14 394 -14 m 333 90 q 481 149 424 90 q 539 319 539 208 l 539 358 l 378 335 q 229 288 279 321 q 179 206 179 256 q 225 120 179 150 q 333 90 271 90 m 374 819 q 291 851 325 819 q 257 929 257 882 q 291 1008 257 976 q 374 1039 325 1039 q 456 1008 422 1039 q 490 929 490 976 q 456 851 490 882 q 374 819 422 819 m 374 888 q 403 899 392 888 q 415 929 415 911 q 403 959 415 947 q 374 971 392 971 q 344 959 356 971 q 332 929 332 947 q 344 899 332 911 q 374 888 356 888 z "},"ã":{"ha":767,"x_min":51,"x_max":669,"o":"m 304 -14 q 178 14 236 -14 q 85 90 119 42 q 51 196 51 138 q 127 347 51 288 q 332 424 203 406 l 539 453 l 539 493 q 376 635 539 635 q 276 609 315 635 q 218 549 238 583 q 208 531 214 536 q 190 525 201 525 l 131 525 q 109 534 118 525 q 100 556 100 543 q 131 631 101 589 q 224 705 161 674 q 378 736 286 736 q 601 663 533 736 q 669 482 669 590 l 669 32 q 660 9 669 18 q 638 0 651 0 l 574 0 q 551 9 560 0 q 542 32 542 18 l 542 92 q 453 17 511 47 q 304 -14 394 -14 m 333 90 q 481 149 424 90 q 539 319 539 208 l 539 358 l 378 335 q 229 288 279 321 q 179 206 179 256 q 225 120 179 150 q 333 90 271 90 m 446 819 q 403 826 421 819 q 363 847 385 833 q 339 860 351 854 q 314 867 326 867 q 297 863 303 867 q 286 853 290 858 q 281 846 282 847 q 254 826 269 826 l 210 826 q 193 833 200 826 q 186 849 186 840 q 218 933 186 894 q 301 972 250 972 q 344 965 326 972 q 386 944 361 958 q 404 935 389 943 q 436 925 419 925 q 455 931 449 925 q 468 947 461 936 q 479 962 474 957 q 494 967 485 967 l 539 967 q 556 960 550 967 q 563 943 563 953 q 530 859 563 899 q 446 819 497 819 z "},"æ":{"ha":1238,"x_min":53,"x_max":1174,"o":"m 311 -14 q 176 14 235 -14 q 85 90 118 42 q 53 196 53 138 q 128 349 53 289 q 333 426 204 408 l 539 456 l 539 493 q 378 635 539 635 q 276 609 315 635 q 218 549 238 583 q 208 531 214 536 q 190 525 201 525 l 131 525 q 109 534 118 525 q 100 556 100 543 q 131 631 100 588 q 224 705 161 674 q 379 736 288 736 q 621 628 557 736 q 857 736 703 736 q 1103 628 1032 736 q 1174 374 1174 519 l 1174 350 q 1164 327 1174 336 q 1140 318 1154 318 l 672 318 l 672 306 q 728 142 675 196 q 856 89 782 89 q 948 108 904 89 q 1019 168 992 128 q 1038 188 1031 183 q 1063 192 1046 192 l 1125 192 q 1146 184 1138 192 q 1154 163 1154 176 q 1119 92 1154 135 q 1015 18 1083 50 q 856 -14 947 -14 q 593 126 672 -14 q 311 -14 507 -14 m 1040 414 l 1040 419 q 994 576 1040 517 q 857 635 947 635 q 728 579 782 635 q 672 419 675 524 l 672 414 l 1040 414 m 335 90 q 483 149 425 90 q 540 319 540 208 l 540 358 l 379 335 q 231 288 281 321 q 181 206 181 256 q 226 120 181 150 q 335 90 272 90 z "},"ǽ":{"ha":1238,"x_min":53,"x_max":1174,"o":"m 581 826 q 558 849 558 826 q 565 867 558 860 l 669 992 q 692 1013 683 1007 q 721 1018 701 1018 l 815 1018 q 835 1010 828 1018 q 842 990 842 1003 q 835 974 842 981 l 674 842 q 653 829 663 832 q 628 826 643 826 l 581 826 m 311 -14 q 176 14 235 -14 q 85 90 118 42 q 53 196 53 138 q 128 349 53 289 q 333 426 204 408 l 539 456 l 539 493 q 378 635 539 635 q 276 609 315 635 q 218 549 238 583 q 208 531 214 536 q 190 525 201 525 l 131 525 q 109 534 118 525 q 100 556 100 543 q 131 631 100 588 q 224 705 161 674 q 379 736 288 736 q 621 628 557 736 q 857 736 703 736 q 1103 628 1032 736 q 1174 374 1174 519 l 1174 350 q 1164 327 1174 336 q 1140 318 1154 318 l 672 318 l 672 306 q 728 142 675 196 q 856 89 782 89 q 948 108 904 89 q 1019 168 992 128 q 1038 188 1031 183 q 1063 192 1046 192 l 1125 192 q 1146 184 1138 192 q 1154 163 1154 176 q 1119 92 1154 135 q 1015 18 1083 50 q 856 -14 947 -14 q 593 126 672 -14 q 311 -14 507 -14 m 1040 414 l 1040 419 q 994 576 1040 517 q 857 635 947 635 q 728 579 782 635 q 672 419 675 524 l 672 414 l 1040 414 m 335 90 q 483 149 425 90 q 540 319 540 208 l 540 358 l 379 335 q 231 288 281 321 q 181 206 181 256 q 226 120 181 150 q 335 90 272 90 z "},"b":{"ha":826,"x_min":104,"x_max":758,"o":"m 460 -14 q 232 90 310 -14 l 232 32 q 223 9 232 18 q 200 0 214 0 l 136 0 q 113 9 122 0 q 104 32 104 18 l 104 954 q 113 977 104 968 q 136 986 122 986 l 204 986 q 226 977 218 986 q 235 954 235 968 l 235 635 q 460 736 317 736 q 678 641 604 736 q 757 403 751 546 q 758 361 758 388 q 757 319 758 335 q 678 81 751 175 q 460 -14 604 -14 m 431 99 q 574 160 529 99 q 624 321 619 221 q 625 361 625 335 q 431 624 625 624 q 288 563 338 624 q 235 419 238 501 l 233 365 l 235 313 q 287 162 239 225 q 431 99 335 99 z "},"c":{"ha":767,"x_min":71,"x_max":706,"o":"m 394 -14 q 162 70 246 -14 q 72 306 78 154 l 71 361 l 72 417 q 162 652 78 568 q 394 736 246 736 q 564 700 494 736 q 667 611 633 664 q 704 506 701 558 q 696 483 706 492 q 672 475 686 475 l 606 475 q 585 481 592 475 q 571 503 578 486 q 504 598 547 569 q 396 626 461 626 q 259 573 310 626 q 204 410 208 519 l 203 360 l 204 313 q 258 149 208 201 q 396 96 308 96 q 504 124 461 96 q 571 219 547 153 q 585 242 578 236 q 606 249 592 249 l 672 249 q 696 240 686 249 q 704 217 706 231 q 667 112 701 165 q 565 22 633 58 q 394 -14 496 -14 z "},"ć":{"ha":767,"x_min":71,"x_max":706,"o":"m 394 -14 q 162 70 246 -14 q 72 306 78 154 l 71 361 l 72 417 q 162 652 78 568 q 394 736 246 736 q 564 700 494 736 q 667 611 633 664 q 704 506 701 558 q 696 483 706 492 q 672 475 686 475 l 606 475 q 585 481 592 475 q 571 503 578 486 q 504 598 547 569 q 396 626 461 626 q 259 573 310 626 q 204 410 208 519 l 203 360 l 204 313 q 258 149 208 201 q 396 96 308 96 q 504 124 461 96 q 571 219 547 153 q 585 242 578 236 q 606 249 592 249 l 672 249 q 696 240 686 249 q 704 217 706 231 q 667 112 701 165 q 565 22 633 58 q 394 -14 496 -14 m 343 826 q 321 849 321 826 q 328 867 321 860 l 432 992 q 455 1013 446 1007 q 483 1018 464 1018 l 578 1018 q 597 1010 590 1018 q 604 990 604 1003 q 597 974 604 981 l 436 842 q 415 829 425 832 q 390 826 406 826 l 343 826 z "},"č":{"ha":767,"x_min":71,"x_max":706,"o":"m 394 -14 q 162 70 246 -14 q 72 306 78 154 l 71 361 l 72 417 q 162 652 78 568 q 394 736 246 736 q 564 700 494 736 q 667 611 633 664 q 704 506 701 558 q 696 483 706 492 q 672 475 686 475 l 606 475 q 585 481 592 475 q 571 503 578 486 q 504 598 547 569 q 396 626 461 626 q 259 573 310 626 q 204 410 208 519 l 203 360 l 204 313 q 258 149 208 201 q 396 96 308 96 q 504 124 461 96 q 571 219 547 153 q 585 242 578 236 q 606 249 592 249 l 672 249 q 696 240 686 249 q 704 217 706 231 q 667 112 701 165 q 565 22 633 58 q 394 -14 496 -14 m 368 826 q 344 830 354 826 q 322 847 335 833 l 194 975 q 179 1001 179 990 q 200 1018 179 1018 l 236 1018 q 275 1008 258 1018 l 389 929 l 503 1008 q 542 1018 519 1018 l 578 1018 q 599 1001 599 1018 q 583 975 599 990 l 456 847 q 433 830 442 833 q 410 826 424 826 l 368 826 z "},"ç":{"ha":767,"x_min":71,"x_max":706,"o":"m 394 -306 q 310 -286 347 -306 q 274 -247 274 -267 q 279 -235 274 -240 l 300 -215 q 314 -208 307 -208 q 342 -222 319 -208 q 392 -236 363 -236 q 431 -222 415 -236 q 447 -185 447 -208 q 431 -150 447 -164 q 392 -136 415 -136 q 356 -143 375 -136 q 329 -149 336 -149 q 310 -140 317 -149 l 286 -115 q 282 -104 282 -110 q 286 -87 282 -97 q 292 -74 290 -78 l 319 -7 q 141 93 206 11 q 72 306 76 175 l 71 361 l 72 417 q 162 652 78 568 q 394 736 246 736 q 564 700 494 736 q 667 611 633 664 q 704 506 701 558 q 696 483 706 492 q 672 475 686 475 l 606 475 q 585 481 592 475 q 571 503 578 486 q 504 598 547 569 q 396 626 461 626 q 259 573 310 626 q 204 410 208 519 l 203 360 l 204 313 q 258 149 208 201 q 396 96 308 96 q 504 124 461 96 q 571 219 547 153 q 585 242 578 236 q 606 249 592 249 l 672 249 q 696 240 686 249 q 704 217 706 231 q 667 113 701 165 q 565 23 633 60 q 396 -14 496 -14 l 365 -78 q 417 -67 383 -67 q 494 -99 464 -67 q 524 -183 524 -132 q 490 -271 524 -236 q 394 -306 456 -306 z "},"ĉ":{"ha":767,"x_min":71,"x_max":706,"o":"m 394 -14 q 162 70 246 -14 q 72 306 78 154 l 71 361 l 72 417 q 162 652 78 568 q 394 736 246 736 q 564 700 494 736 q 667 611 633 664 q 704 506 701 558 q 696 483 706 492 q 672 475 686 475 l 606 475 q 585 481 592 475 q 571 503 578 486 q 504 598 547 569 q 396 626 461 626 q 259 573 310 626 q 204 410 208 519 l 203 360 l 204 313 q 258 149 208 201 q 396 96 308 96 q 504 124 461 96 q 571 219 547 153 q 585 242 578 236 q 606 249 592 249 l 672 249 q 696 240 686 249 q 704 217 706 231 q 667 112 701 165 q 565 22 633 58 q 394 -14 496 -14 m 200 838 q 179 854 179 838 q 194 881 179 865 l 322 1008 q 344 1026 335 1022 q 368 1029 354 1029 l 410 1029 q 433 1026 424 1029 q 456 1008 442 1022 l 583 881 q 599 854 599 865 q 578 838 599 838 l 542 838 q 503 847 517 838 l 389 926 l 275 847 q 236 838 261 838 l 200 838 z "},"ċ":{"ha":767,"x_min":71,"x_max":706,"o":"m 394 -14 q 162 70 246 -14 q 72 306 78 154 l 71 361 l 72 417 q 162 652 78 568 q 394 736 246 736 q 564 700 494 736 q 667 611 633 664 q 704 506 701 558 q 696 483 706 492 q 672 475 686 475 l 606 475 q 585 481 592 475 q 571 503 578 486 q 504 598 547 569 q 396 626 461 626 q 259 573 310 626 q 204 410 208 519 l 203 360 l 204 313 q 258 149 208 201 q 396 96 308 96 q 504 124 461 96 q 571 219 547 153 q 585 242 578 236 q 606 249 592 249 l 672 249 q 696 240 686 249 q 704 217 706 231 q 667 112 701 165 q 565 22 633 58 q 394 -14 496 -14 m 343 851 q 321 860 329 851 q 313 882 313 868 l 313 971 q 321 994 313 985 q 343 1003 329 1003 l 432 1003 q 455 994 446 1003 q 464 971 464 985 l 464 882 q 455 860 464 868 q 432 851 446 851 l 343 851 z "},"d":{"ha":826,"x_min":69,"x_max":722,"o":"m 367 -14 q 149 81 222 -14 q 71 319 75 175 l 69 361 l 71 403 q 149 641 75 546 q 367 736 222 736 q 592 635 510 736 l 592 954 q 601 977 592 968 q 624 986 610 986 l 690 986 q 713 977 704 986 q 722 954 722 968 l 722 32 q 713 9 722 18 q 690 0 704 0 l 628 0 q 605 9 614 0 q 596 32 596 18 l 596 90 q 367 -14 515 -14 m 396 99 q 540 162 492 99 q 592 313 588 225 q 593 365 593 328 q 592 419 593 404 q 539 563 589 501 q 396 624 489 624 q 252 563 297 624 q 203 401 207 501 l 201 361 q 396 99 201 99 z "},"ð":{"ha":788,"x_min":67,"x_max":714,"o":"m 390 -14 q 152 78 238 -14 q 68 321 67 169 q 106 494 67 419 q 217 611 144 569 q 390 653 290 653 q 543 608 482 653 q 463 761 511 699 l 322 707 q 306 703 313 703 q 285 709 293 703 q 278 728 278 715 l 278 757 q 284 781 278 774 q 308 794 290 788 l 399 829 q 299 914 343 879 q 276 944 276 931 q 284 965 276 957 q 304 972 292 972 l 376 972 q 431 954 408 972 q 517 874 486 906 l 646 924 q 663 928 657 928 q 690 903 690 928 l 690 874 q 684 850 690 857 q 660 836 678 843 l 579 806 q 676 613 643 724 q 713 338 710 501 q 714 328 714 333 q 713 317 714 322 q 626 76 711 167 q 390 -14 542 -14 m 390 93 q 531 153 482 93 q 581 310 579 214 l 581 329 q 531 485 581 425 q 390 546 482 546 q 250 485 299 546 q 200 329 201 425 l 200 308 q 251 153 203 213 q 390 93 300 93 z "},"ď":{"ha":826,"x_min":69,"x_max":971,"o":"m 367 -14 q 149 81 222 -14 q 71 319 75 175 l 69 361 l 71 403 q 149 641 75 546 q 367 736 222 736 q 592 635 510 736 l 592 954 q 601 977 592 968 q 624 986 610 986 l 690 986 q 713 977 704 986 q 722 954 722 968 l 722 32 q 713 9 722 18 q 690 0 704 0 l 628 0 q 605 9 614 0 q 596 32 596 18 l 596 90 q 367 -14 515 -14 m 396 99 q 540 162 492 99 q 592 313 588 225 q 593 365 593 328 q 592 419 593 404 q 539 563 589 501 q 396 624 489 624 q 252 563 297 624 q 203 401 207 501 l 201 361 q 396 99 201 99 m 818 753 q 800 761 807 753 q 796 775 796 768 q 797 783 796 779 l 821 946 q 833 975 824 964 q 861 986 843 986 l 947 986 q 964 979 957 986 q 971 963 971 972 q 965 940 971 951 l 907 786 q 891 761 900 769 q 865 753 882 753 l 818 753 z "},"đ":{"ha":826,"x_min":71,"x_max":829,"o":"m 368 -14 q 144 83 213 -14 q 72 319 76 181 l 71 361 l 72 403 q 144 638 76 540 q 368 736 213 736 q 593 635 511 736 l 593 788 l 519 788 q 497 797 506 788 q 488 819 488 806 l 488 849 q 497 872 488 863 q 519 881 506 881 l 593 881 l 593 954 q 602 977 593 968 q 625 986 611 986 l 692 986 q 715 977 706 986 q 724 954 724 968 l 724 881 l 797 881 q 820 872 811 881 q 829 849 829 863 l 829 819 q 820 797 829 806 q 797 788 811 788 l 724 788 l 724 32 q 715 9 724 18 q 692 0 706 0 l 628 0 q 605 9 614 0 q 596 32 596 18 l 596 93 q 368 -14 518 -14 m 397 99 q 541 162 493 99 q 593 313 589 225 q 594 365 594 328 q 593 419 594 404 q 540 563 590 501 q 397 624 490 624 q 253 562 299 624 q 204 401 208 500 l 203 361 l 204 321 q 253 160 208 222 q 397 99 299 99 z "},"e":{"ha":778,"x_min":68,"x_max":714,"o":"m 392 -14 q 163 74 249 -14 q 69 315 78 163 l 68 363 l 69 408 q 165 647 79 558 q 390 736 250 736 q 629 638 544 736 q 714 374 714 540 l 714 350 q 705 327 714 336 q 682 318 696 318 l 201 318 l 201 306 q 256 152 206 215 q 390 89 307 89 q 495 115 454 89 q 556 168 536 140 q 574 188 568 185 q 597 192 581 192 l 665 192 q 686 185 678 192 q 694 165 694 178 q 656 92 694 135 q 549 17 618 49 q 392 -14 481 -14 m 582 414 l 582 418 q 530 574 582 514 q 390 635 478 635 q 252 574 303 635 q 201 418 201 514 l 201 414 l 582 414 z "},"é":{"ha":778,"x_min":68,"x_max":714,"o":"m 392 -14 q 163 74 249 -14 q 69 315 78 163 l 68 363 l 69 408 q 165 647 79 558 q 390 736 250 736 q 629 638 544 736 q 714 374 714 540 l 714 350 q 705 327 714 336 q 682 318 696 318 l 201 318 l 201 306 q 256 152 206 215 q 390 89 307 89 q 495 115 454 89 q 556 168 536 140 q 574 188 568 185 q 597 192 581 192 l 665 192 q 686 185 678 192 q 694 165 694 178 q 656 92 694 135 q 549 17 618 49 q 392 -14 481 -14 m 582 414 l 582 418 q 530 574 582 514 q 390 635 478 635 q 252 574 303 635 q 201 418 201 514 l 201 414 l 582 414 m 353 826 q 331 849 331 826 q 338 867 331 860 l 442 992 q 465 1013 456 1007 q 493 1018 474 1018 l 588 1018 q 607 1010 600 1018 q 614 990 614 1003 q 607 974 614 981 l 446 842 q 425 829 435 832 q 400 826 415 826 l 353 826 z "},"ĕ":{"ha":778,"x_min":68,"x_max":714,"o":"m 392 -14 q 163 74 249 -14 q 69 315 78 163 l 68 363 l 69 408 q 165 647 79 558 q 390 736 250 736 q 629 638 544 736 q 714 374 714 540 l 714 350 q 705 327 714 336 q 682 318 696 318 l 201 318 l 201 306 q 256 152 206 215 q 390 89 307 89 q 495 115 454 89 q 556 168 536 140 q 574 188 568 185 q 597 192 581 192 l 665 192 q 686 185 678 192 q 694 165 694 178 q 656 92 694 135 q 549 17 618 49 q 392 -14 481 -14 m 582 414 l 582 418 q 530 574 582 514 q 390 635 478 635 q 252 574 303 635 q 201 418 201 514 l 201 414 l 582 414 m 390 819 q 261 868 301 819 q 221 992 221 917 q 228 1010 221 1003 q 247 1018 235 1018 l 289 1018 q 308 1010 301 1018 q 315 992 315 1003 q 390 903 315 903 q 465 992 465 903 q 472 1010 465 1003 q 492 1018 479 1018 l 533 1018 q 553 1010 546 1018 q 560 992 560 1003 q 519 868 560 917 q 390 819 479 819 z "},"ě":{"ha":778,"x_min":68,"x_max":714,"o":"m 392 -14 q 163 74 249 -14 q 69 315 78 163 l 68 363 l 69 408 q 165 647 79 558 q 390 736 250 736 q 629 638 544 736 q 714 374 714 540 l 714 350 q 705 327 714 336 q 682 318 696 318 l 201 318 l 201 306 q 256 152 206 215 q 390 89 307 89 q 495 115 454 89 q 556 168 536 140 q 574 188 568 185 q 597 192 581 192 l 665 192 q 686 185 678 192 q 694 165 694 178 q 656 92 694 135 q 549 17 618 49 q 392 -14 481 -14 m 582 414 l 582 418 q 530 574 582 514 q 390 635 478 635 q 252 574 303 635 q 201 418 201 514 l 201 414 l 582 414 m 369 826 q 346 830 356 826 q 324 847 336 833 l 196 975 q 181 1001 181 990 q 201 1018 181 1018 l 238 1018 q 276 1008 260 1018 l 390 929 l 504 1008 q 543 1018 521 1018 l 579 1018 q 600 1001 600 1018 q 585 975 600 990 l 457 847 q 434 830 443 833 q 411 826 425 826 l 369 826 z "},"ê":{"ha":778,"x_min":68,"x_max":714,"o":"m 392 -14 q 163 74 249 -14 q 69 315 78 163 l 68 363 l 69 408 q 165 647 79 558 q 390 736 250 736 q 629 638 544 736 q 714 374 714 540 l 714 350 q 705 327 714 336 q 682 318 696 318 l 201 318 l 201 306 q 256 152 206 215 q 390 89 307 89 q 495 115 454 89 q 556 168 536 140 q 574 188 568 185 q 597 192 581 192 l 665 192 q 686 185 678 192 q 694 165 694 178 q 656 92 694 135 q 549 17 618 49 q 392 -14 481 -14 m 582 414 l 582 418 q 530 574 582 514 q 390 635 478 635 q 252 574 303 635 q 201 418 201 514 l 201 414 l 582 414 m 201 826 q 181 843 181 826 q 196 869 181 854 l 324 997 q 346 1015 336 1011 q 369 1018 356 1018 l 411 1018 q 434 1015 425 1018 q 457 997 443 1011 l 585 869 q 600 843 600 854 q 579 826 600 826 l 543 826 q 504 836 518 826 l 390 915 l 276 836 q 238 826 263 826 l 201 826 z "},"ë":{"ha":778,"x_min":68,"x_max":714,"o":"m 392 -14 q 163 74 249 -14 q 69 315 78 163 l 68 363 l 69 408 q 165 647 79 558 q 390 736 250 736 q 629 638 544 736 q 714 374 714 540 l 714 350 q 705 327 714 336 q 682 318 696 318 l 201 318 l 201 306 q 256 152 206 215 q 390 89 307 89 q 495 115 454 89 q 556 168 536 140 q 574 188 568 185 q 597 192 581 192 l 665 192 q 686 185 678 192 q 694 165 694 178 q 656 92 694 135 q 549 17 618 49 q 392 -14 481 -14 m 582 414 l 582 418 q 530 574 582 514 q 390 635 478 635 q 252 574 303 635 q 201 418 201 514 l 201 414 l 582 414 m 235 863 q 213 871 221 863 q 204 893 204 879 l 204 968 q 213 991 204 982 q 235 1000 221 1000 l 311 1000 q 334 991 325 1000 q 343 968 343 982 l 343 893 q 334 871 343 879 q 311 863 325 863 l 235 863 m 471 863 q 448 871 457 863 q 439 893 439 879 l 439 968 q 448 991 439 982 q 471 1000 457 1000 l 546 1000 q 569 991 560 1000 q 578 968 578 982 l 578 893 q 569 871 578 879 q 546 863 560 863 l 471 863 z "},"ė":{"ha":778,"x_min":68,"x_max":714,"o":"m 392 -14 q 163 74 249 -14 q 69 315 78 163 l 68 363 l 69 408 q 165 647 79 558 q 390 736 250 736 q 629 638 544 736 q 714 374 714 540 l 714 350 q 705 327 714 336 q 682 318 696 318 l 201 318 l 201 306 q 256 152 206 215 q 390 89 307 89 q 495 115 454 89 q 556 168 536 140 q 574 188 568 185 q 597 192 581 192 l 665 192 q 686 185 678 192 q 694 165 694 178 q 656 92 694 135 q 549 17 618 49 q 392 -14 481 -14 m 582 414 l 582 418 q 530 574 582 514 q 390 635 478 635 q 252 574 303 635 q 201 418 201 514 l 201 414 l 582 414 m 346 851 q 324 860 332 851 q 315 882 315 868 l 315 971 q 324 994 315 985 q 346 1003 332 1003 l 435 1003 q 458 994 449 1003 q 467 971 467 985 l 467 882 q 458 860 467 868 q 435 851 449 851 l 346 851 z "},"è":{"ha":778,"x_min":68,"x_max":714,"o":"m 392 -14 q 163 74 249 -14 q 69 315 78 163 l 68 363 l 69 408 q 165 647 79 558 q 390 736 250 736 q 629 638 544 736 q 714 374 714 540 l 714 350 q 705 327 714 336 q 682 318 696 318 l 201 318 l 201 306 q 256 152 206 215 q 390 89 307 89 q 495 115 454 89 q 556 168 536 140 q 574 188 568 185 q 597 192 581 192 l 665 192 q 686 185 678 192 q 694 165 694 178 q 656 92 694 135 q 549 17 618 49 q 392 -14 481 -14 m 582 414 l 582 418 q 530 574 582 514 q 390 635 478 635 q 252 574 303 635 q 201 418 201 514 l 201 414 l 582 414 m 385 826 q 360 829 369 826 q 339 842 350 832 l 178 974 q 171 990 171 981 q 178 1010 171 1003 q 197 1018 185 1018 l 292 1018 q 320 1013 311 1018 q 343 992 329 1007 l 447 867 q 454 849 454 860 q 432 826 454 826 l 385 826 z "},"ē":{"ha":778,"x_min":68,"x_max":714,"o":"m 392 -14 q 163 74 249 -14 q 69 315 78 163 l 68 363 l 69 408 q 165 647 79 558 q 390 736 250 736 q 629 638 544 736 q 714 374 714 540 l 714 350 q 705 327 714 336 q 682 318 696 318 l 201 318 l 201 306 q 256 152 206 215 q 390 89 307 89 q 495 115 454 89 q 556 168 536 140 q 574 188 568 185 q 597 192 581 192 l 665 192 q 686 185 678 192 q 694 165 694 178 q 656 92 694 135 q 549 17 618 49 q 392 -14 481 -14 m 582 414 l 582 418 q 530 574 582 514 q 390 635 478 635 q 252 574 303 635 q 201 418 201 514 l 201 414 l 582 414 m 236 857 q 214 865 222 857 q 206 888 206 874 l 206 931 q 214 953 206 944 q 236 961 222 961 l 546 961 q 569 953 560 961 q 578 931 578 944 l 578 888 q 569 865 578 874 q 546 857 560 857 l 236 857 z "},"ę":{"ha":779,"x_min":69,"x_max":715,"o":"m 464 -306 q 321 -251 372 -306 q 269 -106 269 -197 q 293 -1 269 -44 q 135 108 193 25 q 71 315 78 192 l 69 361 l 71 407 q 165 647 79 558 q 392 736 250 736 q 631 638 546 736 q 715 374 715 540 l 715 350 q 706 327 715 336 q 682 318 697 318 l 203 318 l 203 306 q 258 152 207 215 q 392 89 308 89 q 496 115 456 89 q 556 168 536 140 q 575 188 568 185 q 599 192 582 192 l 665 192 q 687 185 678 192 q 696 165 696 178 q 667 103 696 139 q 584 35 638 67 q 460 -8 531 4 q 394 -40 417 -17 q 371 -106 371 -64 q 398 -181 371 -153 q 469 -210 425 -210 l 489 -210 q 512 -219 503 -210 q 521 -242 521 -228 l 521 -274 q 512 -297 521 -287 q 489 -306 503 -306 l 464 -306 m 582 414 l 582 418 q 530 574 582 514 q 390 635 478 635 q 252 574 303 635 q 201 418 201 514 l 201 414 l 582 414 z "},"f":{"ha":535,"x_min":25,"x_max":529,"o":"m 207 0 q 184 9 193 0 q 175 32 175 18 l 175 611 l 57 611 q 34 620 43 611 q 25 643 25 629 l 25 690 q 34 713 25 704 q 57 722 43 722 l 175 722 l 175 792 q 414 1028 175 1028 l 497 1028 q 520 1019 511 1028 q 529 996 529 1010 l 529 949 q 520 926 529 935 q 497 917 511 917 l 417 917 q 329 884 354 917 q 304 785 304 851 l 304 722 l 483 722 q 506 713 497 722 q 515 690 515 704 l 515 643 q 506 620 515 629 q 483 611 497 611 l 304 611 l 304 32 q 295 9 304 18 q 272 0 286 0 l 207 0 z "},"g":{"ha":829,"x_min":69,"x_max":725,"o":"m 399 -306 q 215 -267 285 -306 q 117 -181 146 -229 q 85 -93 88 -132 q 94 -69 83 -79 q 117 -60 104 -60 l 183 -60 q 204 -66 196 -60 q 218 -89 213 -72 q 273 -166 235 -133 q 392 -199 311 -199 q 543 -155 494 -199 q 592 0 592 -111 l 592 94 q 500 22 556 49 q 368 -6 444 -6 q 148 88 221 -6 q 71 326 75 182 l 69 365 l 71 403 q 149 641 75 546 q 368 736 222 736 q 596 629 514 736 l 596 689 q 605 713 596 703 q 628 722 614 722 l 692 722 q 715 713 706 722 q 725 689 725 703 l 725 15 q 399 -306 725 -306 m 396 106 q 539 168 490 106 q 592 317 588 231 q 593 365 593 329 q 592 413 593 400 q 540 561 588 499 q 396 624 492 624 q 253 563 297 624 q 204 401 208 501 l 203 365 l 204 328 q 253 167 208 229 q 396 106 297 106 z "},"ğ":{"ha":829,"x_min":69,"x_max":725,"o":"m 399 -306 q 215 -267 285 -306 q 117 -181 146 -229 q 85 -93 88 -132 q 94 -69 83 -79 q 117 -60 104 -60 l 183 -60 q 204 -66 196 -60 q 218 -89 213 -72 q 273 -166 235 -133 q 392 -199 311 -199 q 543 -155 494 -199 q 592 0 592 -111 l 592 94 q 500 22 556 49 q 368 -6 444 -6 q 148 88 221 -6 q 71 326 75 182 l 69 365 l 71 403 q 149 641 75 546 q 368 736 222 736 q 596 629 514 736 l 596 689 q 605 713 596 703 q 628 722 614 722 l 692 722 q 715 713 706 722 q 725 689 725 703 l 725 15 q 399 -306 725 -306 m 396 106 q 539 168 490 106 q 592 317 588 231 q 593 365 593 329 q 592 413 593 400 q 540 561 588 499 q 396 624 492 624 q 253 563 297 624 q 204 401 208 501 l 203 365 l 204 328 q 253 167 208 229 q 396 106 297 106 m 397 819 q 268 868 308 819 q 228 992 228 917 q 235 1010 228 1003 q 254 1018 242 1018 l 296 1018 q 315 1010 308 1018 q 322 992 322 1003 q 397 903 322 903 q 472 992 472 903 q 479 1010 472 1003 q 499 1018 486 1018 l 540 1018 q 560 1010 553 1018 q 567 992 567 1003 q 526 868 567 917 q 397 819 486 819 z "},"ĝ":{"ha":829,"x_min":69,"x_max":725,"o":"m 399 -306 q 215 -267 285 -306 q 117 -181 146 -229 q 85 -93 88 -132 q 94 -69 83 -79 q 117 -60 104 -60 l 183 -60 q 204 -66 196 -60 q 218 -89 213 -72 q 273 -166 235 -133 q 392 -199 311 -199 q 543 -155 494 -199 q 592 0 592 -111 l 592 94 q 500 22 556 49 q 368 -6 444 -6 q 148 88 221 -6 q 71 326 75 182 l 69 365 l 71 403 q 149 641 75 546 q 368 736 222 736 q 596 629 514 736 l 596 689 q 605 713 596 703 q 628 722 614 722 l 692 722 q 715 713 706 722 q 725 689 725 703 l 725 15 q 399 -306 725 -306 m 396 106 q 539 168 490 106 q 592 317 588 231 q 593 365 593 329 q 592 413 593 400 q 540 561 588 499 q 396 624 492 624 q 253 563 297 624 q 204 401 208 501 l 203 365 l 204 328 q 253 167 208 229 q 396 106 297 106 m 208 826 q 188 843 188 826 q 203 869 188 854 l 331 997 q 353 1015 343 1011 q 376 1018 363 1018 l 418 1018 q 441 1015 432 1018 q 464 997 450 1011 l 592 869 q 607 843 607 854 q 586 826 607 826 l 550 826 q 511 836 525 826 l 397 915 l 283 836 q 244 826 269 826 l 208 826 z "},"ģ":{"ha":829,"x_min":69,"x_max":725,"o":"m 483 1060 q 501 1051 494 1060 q 506 1038 506 1044 q 504 1029 506 1033 l 481 867 q 468 838 478 849 q 440 826 458 826 l 354 826 q 338 833 344 826 q 331 850 331 840 q 336 872 331 861 l 394 1026 q 410 1051 401 1043 q 436 1060 419 1060 l 483 1060 m 399 -306 q 215 -267 285 -306 q 117 -181 146 -229 q 85 -93 88 -132 q 94 -69 83 -79 q 117 -60 104 -60 l 183 -60 q 204 -66 196 -60 q 218 -89 213 -72 q 273 -166 235 -133 q 392 -199 311 -199 q 543 -155 494 -199 q 592 0 592 -111 l 592 94 q 500 22 556 49 q 368 -6 444 -6 q 148 88 221 -6 q 71 326 75 182 l 69 365 l 71 403 q 149 641 75 546 q 368 736 222 736 q 596 629 514 736 l 596 689 q 605 713 596 703 q 628 722 614 722 l 692 722 q 715 713 706 722 q 725 689 725 703 l 725 15 q 399 -306 725 -306 m 396 106 q 539 168 490 106 q 592 317 588 231 q 593 365 593 329 q 592 413 593 400 q 540 561 588 499 q 396 624 492 624 q 253 563 297 624 q 204 401 208 501 l 203 365 l 204 328 q 253 167 208 229 q 396 106 297 106 z "},"ġ":{"ha":829,"x_min":69,"x_max":725,"o":"m 399 -306 q 215 -267 285 -306 q 117 -181 146 -229 q 85 -93 88 -132 q 94 -69 83 -79 q 117 -60 104 -60 l 183 -60 q 204 -66 196 -60 q 218 -89 213 -72 q 273 -166 235 -133 q 392 -199 311 -199 q 543 -155 494 -199 q 592 0 592 -111 l 592 94 q 500 22 556 49 q 368 -6 444 -6 q 148 88 221 -6 q 71 326 75 182 l 69 365 l 71 403 q 149 641 75 546 q 368 736 222 736 q 596 629 514 736 l 596 689 q 605 713 596 703 q 628 722 614 722 l 692 722 q 715 713 706 722 q 725 689 725 703 l 725 15 q 399 -306 725 -306 m 396 106 q 539 168 490 106 q 592 317 588 231 q 593 365 593 329 q 592 413 593 400 q 540 561 588 499 q 396 624 492 624 q 253 563 297 624 q 204 401 208 501 l 203 365 l 204 328 q 253 167 208 229 q 396 106 297 106 m 353 851 q 331 860 339 851 q 322 882 322 868 l 322 971 q 331 994 322 985 q 353 1003 339 1003 l 442 1003 q 465 994 456 1003 q 474 971 474 985 l 474 882 q 465 860 474 868 q 442 851 456 851 l 353 851 z "},"h":{"ha":846,"x_min":104,"x_max":749,"o":"m 136 0 q 113 9 122 0 q 104 32 104 18 l 104 954 q 113 977 104 968 q 136 986 122 986 l 206 986 q 228 977 219 986 q 238 954 238 968 l 238 631 q 332 709 278 682 q 467 736 386 736 q 674 651 600 736 q 749 424 749 565 l 749 32 q 740 9 749 18 q 717 0 731 0 l 647 0 q 624 9 633 0 q 615 32 615 18 l 615 417 q 567 569 615 515 q 429 624 519 624 q 290 569 342 624 q 238 417 238 514 l 238 32 q 228 9 238 18 q 206 0 219 0 l 136 0 z "},"ħ":{"ha":844,"x_min":-1,"x_max":749,"o":"m 135 0 q 112 9 121 0 q 103 32 103 18 l 103 785 l 31 785 q 8 794 17 785 q -1 817 -1 803 l -1 846 q 8 869 -1 860 q 31 878 17 878 l 103 878 l 103 954 q 112 977 103 968 q 135 986 121 986 l 206 986 q 228 977 219 986 q 238 954 238 968 l 238 878 l 308 878 q 331 869 322 878 q 340 846 340 860 l 340 817 q 332 794 340 803 q 308 785 324 785 l 238 785 l 238 631 q 332 709 278 682 q 467 736 386 736 q 674 651 599 736 q 749 424 749 565 l 749 32 q 740 9 749 18 q 717 0 731 0 l 646 0 q 623 9 632 0 q 614 32 614 18 l 614 417 q 567 569 614 515 q 429 624 519 624 q 289 569 340 624 q 238 417 238 514 l 238 32 q 228 9 238 18 q 206 0 219 0 l 135 0 z "},"ĥ":{"ha":846,"x_min":104,"x_max":749,"o":"m 136 0 q 113 9 122 0 q 104 32 104 18 l 104 954 q 113 977 104 968 q 136 986 122 986 l 206 986 q 228 977 219 986 q 238 954 238 968 l 238 631 q 332 709 278 682 q 467 736 386 736 q 674 651 600 736 q 749 424 749 565 l 749 32 q 740 9 749 18 q 717 0 731 0 l 647 0 q 624 9 633 0 q 615 32 615 18 l 615 417 q 567 569 615 515 q 429 624 519 624 q 290 569 342 624 q 238 417 238 514 l 238 32 q 228 9 238 18 q 206 0 219 0 l 136 0 m 238 1042 q 217 1058 217 1042 q 232 1085 217 1069 l 360 1213 q 382 1230 372 1226 q 406 1233 392 1233 l 447 1233 q 470 1230 461 1233 q 493 1213 479 1226 l 621 1085 q 636 1058 636 1069 q 615 1042 636 1042 l 579 1042 q 540 1051 554 1042 l 426 1131 l 313 1051 q 274 1042 299 1042 l 238 1042 z "},"i":{"ha":336,"x_min":92,"x_max":244,"o":"m 124 857 q 101 866 110 857 q 92 889 92 875 l 92 964 q 101 988 92 978 q 124 997 110 997 l 211 997 q 235 988 225 997 q 244 964 244 978 l 244 889 q 235 866 244 875 q 211 857 225 857 l 124 857 m 135 0 q 112 9 121 0 q 103 32 103 18 l 103 690 q 112 713 103 704 q 135 722 121 722 l 201 722 q 224 713 215 722 q 233 690 233 704 l 233 32 q 224 9 233 18 q 201 0 215 0 l 135 0 z "},"ı":{"ha":336,"x_min":103,"x_max":233,"o":"m 135 0 q 112 9 121 0 q 103 32 103 18 l 103 690 q 112 713 103 704 q 135 722 121 722 l 201 722 q 224 713 215 722 q 233 690 233 704 l 233 32 q 224 9 233 18 q 201 0 215 0 l 135 0 z "},"í":{"ha":336,"x_min":103,"x_max":389,"o":"m 135 0 q 112 9 121 0 q 103 32 103 18 l 103 690 q 112 713 103 704 q 135 722 121 722 l 201 722 q 224 713 215 722 q 233 690 233 704 l 233 32 q 224 9 233 18 q 201 0 215 0 l 135 0 m 128 826 q 106 849 106 826 q 113 867 106 860 l 217 992 q 240 1013 231 1007 q 268 1018 249 1018 l 363 1018 q 382 1010 375 1018 q 389 990 389 1003 q 382 974 389 981 l 221 842 q 200 829 210 832 q 175 826 190 826 l 128 826 z "},"ĭ":{"ha":336,"x_min":-3,"x_max":336,"o":"m 135 0 q 112 9 121 0 q 103 32 103 18 l 103 690 q 112 713 103 704 q 135 722 121 722 l 201 722 q 224 713 215 722 q 233 690 233 704 l 233 32 q 224 9 233 18 q 201 0 215 0 l 135 0 m 167 819 q 38 868 78 819 q -3 992 -3 917 q 4 1010 -3 1003 q 24 1018 11 1018 l 65 1018 q 85 1010 78 1018 q 92 992 92 1003 q 167 903 92 903 q 242 992 242 903 q 249 1010 242 1003 q 268 1018 256 1018 l 310 1018 q 329 1010 322 1018 q 336 992 336 1003 q 296 868 336 917 q 167 819 256 819 z "},"î":{"ha":336,"x_min":-43,"x_max":376,"o":"m 135 0 q 112 9 121 0 q 103 32 103 18 l 103 690 q 112 713 103 704 q 135 722 121 722 l 201 722 q 224 713 215 722 q 233 690 233 704 l 233 32 q 224 9 233 18 q 201 0 215 0 l 135 0 m -22 826 q -43 843 -43 826 q -28 869 -43 854 l 100 997 q 122 1015 113 1011 q 146 1018 132 1018 l 188 1018 q 210 1015 201 1018 q 233 997 219 1011 l 361 869 q 376 843 376 854 q 356 826 376 826 l 319 826 q 281 836 294 826 l 167 915 l 53 836 q 14 826 39 826 l -22 826 z "},"ï":{"ha":336,"x_min":-19,"x_max":354,"o":"m 135 0 q 112 9 121 0 q 103 32 103 18 l 103 690 q 112 713 103 704 q 135 722 121 722 l 201 722 q 224 713 215 722 q 233 690 233 704 l 233 32 q 224 9 233 18 q 201 0 215 0 l 135 0 m 11 863 q -11 871 -3 863 q -19 893 -19 879 l -19 968 q -11 991 -19 982 q 11 1000 -3 1000 l 88 1000 q 110 991 101 1000 q 119 968 119 982 l 119 893 q 110 871 119 879 q 88 863 101 863 l 11 863 m 247 863 q 224 871 233 863 q 215 893 215 879 l 215 968 q 224 991 215 982 q 247 1000 233 1000 l 322 1000 q 345 991 336 1000 q 354 968 354 982 l 354 893 q 345 871 354 879 q 322 863 336 863 l 247 863 z "},"ì":{"ha":336,"x_min":-53,"x_max":233,"o":"m 135 0 q 112 9 121 0 q 103 32 103 18 l 103 690 q 112 713 103 704 q 135 722 121 722 l 201 722 q 224 713 215 722 q 233 690 233 704 l 233 32 q 224 9 233 18 q 201 0 215 0 l 135 0 m 161 826 q 136 829 146 826 q 115 842 126 832 l -46 974 q -53 990 -53 981 q -46 1010 -53 1003 q -26 1018 -39 1018 l 68 1018 q 97 1013 88 1018 q 119 992 106 1007 l 224 867 q 231 849 231 860 q 208 826 231 826 l 161 826 z "},"ĳ":{"ha":689,"x_min":92,"x_max":596,"o":"m 124 857 q 101 866 110 857 q 92 889 92 875 l 92 964 q 101 988 92 978 q 124 997 110 997 l 211 997 q 235 988 225 997 q 244 964 244 978 l 244 889 q 235 866 244 875 q 211 857 225 857 l 124 857 m 135 0 q 112 9 121 0 q 103 32 103 18 l 103 690 q 112 713 103 704 q 135 722 121 722 l 201 722 q 224 713 215 722 q 233 690 233 704 l 233 32 q 224 9 233 18 q 201 0 215 0 l 135 0 m 474 857 q 451 866 460 857 q 442 889 442 875 l 442 964 q 451 988 442 978 q 474 997 460 997 l 563 997 q 586 988 576 997 q 596 964 596 978 l 596 889 q 586 866 596 875 q 563 857 576 857 l 474 857 m 321 -264 q 298 -255 307 -264 q 289 -232 289 -246 l 289 -185 q 298 -162 289 -171 q 321 -153 307 -153 l 340 -153 q 431 -118 408 -153 q 453 -15 453 -83 l 453 690 q 462 713 453 704 q 485 722 471 722 l 553 722 q 576 713 567 722 q 585 690 585 704 l 585 -17 q 347 -264 585 -264 l 321 -264 z "},"ī":{"ha":336,"x_min":-18,"x_max":354,"o":"m 135 0 q 112 9 121 0 q 103 32 103 18 l 103 690 q 112 713 103 704 q 135 722 121 722 l 201 722 q 224 713 215 722 q 233 690 233 704 l 233 32 q 224 9 233 18 q 201 0 215 0 l 135 0 m 13 857 q -10 865 -1 857 q -18 888 -18 874 l -18 931 q -10 953 -18 944 q 13 961 -1 961 l 322 961 q 345 953 336 961 q 354 931 354 944 l 354 888 q 345 865 354 874 q 322 857 336 857 l 13 857 z "},"į":{"ha":360,"x_min":19,"x_max":268,"o":"m 147 857 q 124 866 133 857 q 115 889 115 875 l 115 964 q 124 988 115 978 q 147 997 133 997 l 235 997 q 258 988 249 997 q 268 964 268 978 l 268 889 q 258 866 268 875 q 235 857 249 857 l 147 857 m 211 -299 q 70 -245 121 -299 q 19 -103 19 -192 q 51 6 19 -37 q 136 61 82 49 l 133 65 q 126 79 126 72 l 126 690 q 135 713 126 704 q 158 722 144 722 l 225 722 q 248 713 239 722 q 257 690 257 704 l 257 32 q 248 9 257 18 q 225 0 239 0 l 217 0 q 145 -28 172 0 q 118 -103 118 -56 q 144 -177 118 -150 q 217 -204 171 -204 l 236 -204 q 259 -213 250 -204 q 268 -236 268 -222 l 268 -267 q 259 -290 268 -281 q 236 -299 250 -299 l 211 -299 z "},"ĩ":{"ha":336,"x_min":-21,"x_max":356,"o":"m 135 0 q 112 9 121 0 q 103 32 103 18 l 103 690 q 112 713 103 704 q 135 722 121 722 l 201 722 q 224 713 215 722 q 233 690 233 704 l 233 32 q 224 9 233 18 q 201 0 215 0 l 135 0 m 239 819 q 196 826 214 819 q 156 847 178 833 q 132 860 144 854 q 107 867 119 867 q 90 863 96 867 q 79 853 83 858 q 74 846 75 847 q 47 826 63 826 l 3 826 q -14 833 -7 826 q -21 849 -21 840 q 11 933 -21 894 q 94 972 43 972 q 137 965 119 972 q 179 944 154 958 q 197 935 182 943 q 229 925 213 925 q 248 931 242 925 q 261 947 254 936 q 272 962 267 957 q 288 967 278 967 l 332 967 q 349 960 343 967 q 356 943 356 953 q 323 859 356 899 q 239 819 290 819 z "},"j":{"ha":353,"x_min":-47,"x_max":260,"o":"m 138 857 q 115 866 124 857 q 106 889 106 875 l 106 964 q 115 988 106 978 q 138 997 124 997 l 226 997 q 250 988 240 997 q 260 964 260 978 l 260 889 q 250 866 260 875 q 226 857 240 857 l 138 857 m -15 -264 q -38 -255 -29 -264 q -47 -232 -47 -246 l -47 -185 q -38 -162 -47 -171 q -15 -153 -29 -153 l 4 -153 q 94 -118 72 -153 q 117 -15 117 -83 l 117 690 q 126 713 117 704 q 149 722 135 722 l 217 722 q 240 713 231 722 q 249 690 249 704 l 249 -17 q 11 -264 249 -264 l -15 -264 z "},"ȷ":{"ha":429,"x_min":17,"x_max":325,"o":"m 49 -264 q 26 -255 35 -264 q 17 -232 17 -246 l 17 -175 q 26 -153 17 -161 q 49 -144 35 -144 l 79 -144 q 170 -109 147 -144 q 193 -7 193 -74 l 193 610 l 61 610 q 38 619 47 610 q 29 642 29 628 l 29 690 q 38 713 29 704 q 61 722 47 722 l 293 722 q 316 713 307 722 q 325 690 325 704 l 325 -7 q 88 -264 325 -264 l 49 -264 z "},"ĵ":{"ha":429,"x_min":-17,"x_max":403,"o":"m 49 -264 q 26 -255 35 -264 q 17 -232 17 -246 l 17 -175 q 26 -153 17 -161 q 49 -144 35 -144 l 79 -144 q 170 -109 147 -144 q 193 -7 193 -74 l 193 610 l 61 610 q 38 619 47 610 q 29 642 29 628 l 29 690 q 38 713 29 704 q 61 722 47 722 l 293 722 q 316 713 307 722 q 325 690 325 704 l 325 -7 q 88 -264 325 -264 l 49 -264 m 4 826 q -17 843 -17 826 q -1 869 -17 854 l 126 997 q 149 1015 139 1011 q 172 1018 158 1018 l 214 1018 q 237 1015 228 1018 q 260 997 246 1011 l 388 869 q 403 843 403 854 q 382 826 403 826 l 346 826 q 307 836 321 826 l 193 915 l 79 836 q 40 826 65 826 l 4 826 z "},"k":{"ha":717,"x_min":104,"x_max":700,"o":"m 136 0 q 113 9 122 0 q 104 32 104 18 l 104 954 q 113 977 104 968 q 136 986 122 986 l 201 986 q 224 977 215 986 q 233 954 233 968 l 233 471 l 507 699 q 521 710 511 701 q 540 719 531 717 q 563 722 549 722 l 636 722 q 657 714 649 722 q 665 693 665 706 q 649 667 665 678 l 328 400 l 683 54 q 700 29 700 40 q 692 8 700 17 q 671 0 683 0 l 599 0 q 569 4 578 0 q 543 24 560 8 l 233 319 l 233 32 q 224 9 233 18 q 201 0 215 0 l 136 0 z "},"ķ":{"ha":717,"x_min":104,"x_max":700,"o":"m 136 0 q 113 9 122 0 q 104 32 104 18 l 104 954 q 113 977 104 968 q 136 986 122 986 l 201 986 q 224 977 215 986 q 233 954 233 968 l 233 471 l 507 699 q 521 710 511 701 q 540 719 531 717 q 563 722 549 722 l 636 722 q 657 714 649 722 q 665 693 665 706 q 649 667 665 678 l 328 400 l 683 54 q 700 29 700 40 q 692 8 700 17 q 671 0 683 0 l 599 0 q 569 4 578 0 q 543 24 560 8 l 233 319 l 233 32 q 224 9 233 18 q 201 0 215 0 l 136 0 m 271 -303 q 253 -294 260 -303 q 249 -281 249 -287 q 250 -272 249 -276 l 274 -110 q 286 -81 276 -92 q 314 -69 296 -69 l 400 -69 q 417 -76 410 -69 q 424 -93 424 -83 q 418 -115 424 -104 l 360 -269 q 344 -294 353 -286 q 318 -303 335 -303 l 271 -303 z "},"ĸ":{"ha":718,"x_min":103,"x_max":699,"o":"m 135 0 q 112 9 121 0 q 103 32 103 18 l 103 690 q 112 713 103 704 q 135 722 121 722 l 200 722 q 223 713 214 722 q 232 690 232 704 l 232 433 l 518 699 q 532 710 522 701 q 551 719 542 717 q 572 722 560 722 l 640 722 q 662 714 654 722 q 669 693 669 706 q 654 667 669 678 l 328 363 l 683 54 q 699 29 699 42 q 690 8 699 17 q 669 0 682 0 l 594 0 q 567 5 576 0 q 539 24 557 10 l 232 288 l 232 32 q 223 9 232 18 q 200 0 214 0 l 135 0 z "},"l":{"ha":338,"x_min":104,"x_max":233,"o":"m 136 0 q 113 9 122 0 q 104 32 104 18 l 104 954 q 113 977 104 968 q 136 986 122 986 l 201 986 q 224 977 215 986 q 233 954 233 968 l 233 32 q 224 9 233 18 q 201 0 215 0 l 136 0 z "},"ĺ":{"ha":338,"x_min":104,"x_max":403,"o":"m 136 0 q 113 9 122 0 q 104 32 104 18 l 104 954 q 113 977 104 968 q 136 986 122 986 l 201 986 q 224 977 215 986 q 233 954 233 968 l 233 32 q 224 9 233 18 q 201 0 215 0 l 136 0 m 142 1042 q 119 1064 119 1042 q 126 1082 119 1075 l 231 1207 q 253 1228 244 1222 q 282 1233 263 1233 l 376 1233 q 396 1226 389 1233 q 403 1206 403 1218 q 396 1189 403 1196 l 235 1057 q 214 1044 224 1047 q 189 1042 204 1042 l 142 1042 z "},"ľ":{"ha":406,"x_min":104,"x_max":482,"o":"m 136 0 q 113 9 122 0 q 104 32 104 18 l 104 954 q 113 977 104 968 q 136 986 122 986 l 201 986 q 224 977 215 986 q 233 954 233 968 l 233 32 q 224 9 233 18 q 201 0 215 0 l 136 0 m 329 753 q 311 761 318 753 q 307 775 307 768 q 308 783 307 779 l 332 946 q 344 975 335 964 q 372 986 354 986 l 458 986 q 475 979 468 986 q 482 963 482 972 q 476 940 482 951 l 418 786 q 402 761 411 769 q 376 753 393 753 l 329 753 z "},"ļ":{"ha":338,"x_min":61,"x_max":236,"o":"m 136 0 q 113 9 122 0 q 104 32 104 18 l 104 954 q 113 977 104 968 q 136 986 122 986 l 201 986 q 224 977 215 986 q 233 954 233 968 l 233 32 q 224 9 233 18 q 201 0 215 0 l 136 0 m 83 -303 q 65 -294 72 -303 q 61 -281 61 -287 q 63 -272 61 -276 l 86 -110 q 99 -81 89 -92 q 126 -69 108 -69 l 213 -69 q 229 -76 222 -69 q 236 -93 236 -83 q 231 -115 236 -104 l 172 -269 q 156 -294 165 -286 q 131 -303 147 -303 l 83 -303 z "},"ŀ":{"ha":421,"x_min":104,"x_max":454,"o":"m 136 0 q 113 9 122 0 q 104 32 104 18 l 104 954 q 113 977 104 968 q 136 986 122 986 l 201 986 q 224 977 215 986 q 233 954 233 968 l 233 32 q 224 9 233 18 q 201 0 215 0 l 136 0 m 333 424 q 311 432 319 424 q 303 454 303 440 l 303 543 q 311 566 303 557 q 333 575 319 575 l 422 575 q 445 566 436 575 q 454 543 454 557 l 454 454 q 445 432 454 440 q 422 424 436 424 l 333 424 z "},"ł":{"ha":383,"x_min":33,"x_max":353,"o":"m 160 0 q 137 9 146 0 q 128 32 128 18 l 128 418 l 78 400 q 60 396 67 396 q 40 402 47 396 q 33 421 33 408 l 33 471 q 40 494 33 488 q 64 508 46 501 l 128 532 l 128 954 q 137 977 128 968 q 160 986 146 986 l 225 986 q 248 977 239 986 q 257 954 257 968 l 257 582 l 308 601 q 325 606 319 606 q 345 599 338 606 q 353 579 353 592 l 353 531 q 347 507 353 514 q 322 493 340 500 l 257 468 l 257 32 q 248 9 257 18 q 225 0 239 0 l 160 0 z "},"m":{"ha":1235,"x_min":103,"x_max":1139,"o":"m 135 0 q 112 9 121 0 q 103 32 103 18 l 103 690 q 112 713 103 704 q 135 722 121 722 l 197 722 q 220 713 211 722 q 229 690 229 704 l 229 642 q 431 736 301 736 q 649 608 585 736 q 743 701 682 667 q 881 736 804 736 q 1067 658 994 736 q 1139 433 1139 581 l 1139 32 q 1130 9 1139 18 q 1107 0 1121 0 l 1042 0 q 1019 9 1028 0 q 1010 32 1010 18 l 1010 421 q 965 576 1010 529 q 846 624 919 624 q 733 576 781 624 q 686 421 686 528 l 686 32 q 677 9 686 18 q 654 0 668 0 l 589 0 q 566 9 575 0 q 557 32 557 18 l 557 421 q 510 576 557 529 q 393 624 464 624 q 281 576 328 624 q 233 422 233 528 l 233 32 q 224 9 233 18 q 201 0 215 0 l 135 0 z "},"n":{"ha":842,"x_min":103,"x_max":746,"o":"m 135 0 q 112 9 121 0 q 103 32 103 18 l 103 690 q 112 713 103 704 q 135 722 121 722 l 200 722 q 223 713 214 722 q 232 690 232 704 l 232 629 q 327 708 272 681 q 464 736 382 736 q 672 651 597 736 q 746 424 746 565 l 746 32 q 737 9 746 18 q 714 0 728 0 l 644 0 q 622 9 631 0 q 613 32 613 18 l 613 417 q 565 569 613 515 q 426 624 517 624 q 288 569 339 624 q 236 417 236 514 l 236 32 q 227 9 236 18 q 204 0 218 0 l 135 0 z "},"ń":{"ha":842,"x_min":103,"x_max":746,"o":"m 135 0 q 112 9 121 0 q 103 32 103 18 l 103 690 q 112 713 103 704 q 135 722 121 722 l 200 722 q 223 713 214 722 q 232 690 232 704 l 232 629 q 327 708 272 681 q 464 736 382 736 q 672 651 597 736 q 746 424 746 565 l 746 32 q 737 9 746 18 q 714 0 728 0 l 644 0 q 622 9 631 0 q 613 32 613 18 l 613 417 q 565 569 613 515 q 426 624 517 624 q 288 569 339 624 q 236 417 236 514 l 236 32 q 227 9 236 18 q 204 0 218 0 l 135 0 m 379 826 q 357 849 357 826 q 364 867 357 860 l 468 992 q 491 1013 482 1007 q 519 1018 500 1018 l 614 1018 q 633 1010 626 1018 q 640 990 640 1003 q 633 974 640 981 l 472 842 q 451 829 461 832 q 426 826 442 826 l 379 826 z "},"ŉ":{"ha":842,"x_min":103,"x_max":746,"o":"m 135 0 q 112 9 121 0 q 103 32 103 18 l 103 690 q 112 713 103 704 q 135 722 121 722 l 200 722 q 223 713 214 722 q 232 690 232 704 l 232 629 q 327 708 272 681 q 464 736 382 736 q 672 651 597 736 q 746 424 746 565 l 746 32 q 737 9 746 18 q 714 0 728 0 l 644 0 q 622 9 631 0 q 613 32 613 18 l 613 417 q 565 569 613 515 q 426 624 517 624 q 288 569 339 624 q 236 417 236 514 l 236 32 q 227 9 236 18 q 204 0 218 0 l 135 0 m 143 811 q 125 819 132 811 q 121 833 121 826 q 122 842 121 838 l 146 1004 q 158 1033 149 1022 q 186 1044 168 1044 l 272 1044 q 289 1038 282 1044 q 296 1021 296 1031 q 290 999 296 1010 l 232 844 q 216 819 225 828 q 190 811 207 811 l 143 811 z "},"ň":{"ha":842,"x_min":103,"x_max":746,"o":"m 135 0 q 112 9 121 0 q 103 32 103 18 l 103 690 q 112 713 103 704 q 135 722 121 722 l 200 722 q 223 713 214 722 q 232 690 232 704 l 232 629 q 327 708 272 681 q 464 736 382 736 q 672 651 597 736 q 746 424 746 565 l 746 32 q 737 9 746 18 q 714 0 728 0 l 644 0 q 622 9 631 0 q 613 32 613 18 l 613 417 q 565 569 613 515 q 426 624 517 624 q 288 569 339 624 q 236 417 236 514 l 236 32 q 227 9 236 18 q 204 0 218 0 l 135 0 m 403 826 q 379 830 389 826 q 357 847 369 833 l 229 975 q 214 1001 214 990 q 235 1018 214 1018 l 271 1018 q 310 1008 293 1018 l 424 929 l 538 1008 q 576 1018 554 1018 l 613 1018 q 633 1001 633 1018 q 618 975 633 990 l 490 847 q 467 830 476 833 q 444 826 458 826 l 403 826 z "},"ņ":{"ha":842,"x_min":103,"x_max":746,"o":"m 135 0 q 112 9 121 0 q 103 32 103 18 l 103 690 q 112 713 103 704 q 135 722 121 722 l 200 722 q 223 713 214 722 q 232 690 232 704 l 232 629 q 327 708 272 681 q 464 736 382 736 q 672 651 597 736 q 746 424 746 565 l 746 32 q 737 9 746 18 q 714 0 728 0 l 644 0 q 622 9 631 0 q 613 32 613 18 l 613 417 q 565 569 613 515 q 426 624 517 624 q 288 569 339 624 q 236 417 236 514 l 236 32 q 227 9 236 18 q 204 0 218 0 l 135 0 m 346 -303 q 328 -294 335 -303 q 324 -281 324 -287 q 325 -272 324 -276 l 349 -110 q 361 -81 351 -92 q 389 -69 371 -69 l 475 -69 q 492 -76 485 -69 q 499 -93 499 -83 q 493 -115 499 -104 l 435 -269 q 419 -294 428 -286 q 393 -303 410 -303 l 346 -303 z "},"ŋ":{"ha":842,"x_min":103,"x_max":746,"o":"m 479 -312 q 456 -303 465 -312 q 447 -281 447 -294 l 447 -226 q 456 -203 447 -212 q 479 -194 465 -194 l 493 -194 q 588 -158 564 -194 q 613 -49 613 -121 l 613 417 q 565 569 613 515 q 426 624 517 624 q 288 569 339 624 q 236 417 236 514 l 236 32 q 227 9 236 18 q 204 0 218 0 l 135 0 q 112 9 121 0 q 103 32 103 18 l 103 690 q 112 713 103 704 q 135 722 121 722 l 200 722 q 223 713 214 722 q 232 690 232 704 l 232 629 q 327 708 272 681 q 464 736 382 736 q 672 651 597 736 q 746 424 746 565 l 746 -51 q 490 -312 746 -312 l 479 -312 z "},"ñ":{"ha":842,"x_min":103,"x_max":746,"o":"m 135 0 q 112 9 121 0 q 103 32 103 18 l 103 690 q 112 713 103 704 q 135 722 121 722 l 200 722 q 223 713 214 722 q 232 690 232 704 l 232 629 q 327 708 272 681 q 464 736 382 736 q 672 651 597 736 q 746 424 746 565 l 746 32 q 737 9 746 18 q 714 0 728 0 l 644 0 q 622 9 631 0 q 613 32 613 18 l 613 417 q 565 569 613 515 q 426 624 517 624 q 288 569 339 624 q 236 417 236 514 l 236 32 q 227 9 236 18 q 204 0 218 0 l 135 0 m 496 819 q 453 826 471 819 q 413 847 435 833 q 389 860 401 854 q 364 867 376 867 q 347 863 353 867 q 336 853 340 858 q 331 846 332 847 q 304 826 319 826 l 260 826 q 243 833 250 826 q 236 849 236 840 q 268 933 236 894 q 351 972 300 972 q 394 965 376 972 q 436 944 411 958 q 454 935 439 943 q 486 925 469 925 q 505 931 499 925 q 518 947 511 936 q 529 962 524 957 q 544 967 535 967 l 589 967 q 606 960 600 967 q 613 943 613 953 q 580 859 613 899 q 496 819 547 819 z "},"o":{"ha":797,"x_min":71,"x_max":726,"o":"m 399 -14 q 162 72 246 -14 q 72 301 78 158 l 71 361 l 72 421 q 163 649 78 563 q 399 736 247 736 q 635 649 550 736 q 725 421 719 563 q 726 361 726 406 q 725 301 726 317 q 635 72 719 158 q 399 -14 551 -14 m 399 93 q 537 149 486 93 q 592 308 588 204 q 593 361 593 322 q 592 414 593 400 q 537 574 588 518 q 399 629 486 629 q 260 574 311 629 q 206 414 208 518 l 204 361 l 206 308 q 260 149 208 204 q 399 93 311 93 z "},"ó":{"ha":797,"x_min":71,"x_max":726,"o":"m 399 -14 q 162 72 246 -14 q 72 301 78 158 l 71 361 l 72 421 q 163 649 78 563 q 399 736 247 736 q 635 649 550 736 q 725 421 719 563 q 726 361 726 406 q 725 301 726 317 q 635 72 719 158 q 399 -14 551 -14 m 399 93 q 537 149 486 93 q 592 308 588 204 q 593 361 593 322 q 592 414 593 400 q 537 574 588 518 q 399 629 486 629 q 260 574 311 629 q 206 414 208 518 l 204 361 l 206 308 q 260 149 208 204 q 399 93 311 93 m 357 826 q 335 849 335 826 q 342 867 335 860 l 446 992 q 469 1013 460 1007 q 497 1018 478 1018 l 592 1018 q 611 1010 604 1018 q 618 990 618 1003 q 611 974 618 981 l 450 842 q 429 829 439 832 q 404 826 419 826 l 357 826 z "},"ŏ":{"ha":797,"x_min":71,"x_max":726,"o":"m 399 -14 q 162 72 246 -14 q 72 301 78 158 l 71 361 l 72 421 q 163 649 78 563 q 399 736 247 736 q 635 649 550 736 q 725 421 719 563 q 726 361 726 406 q 725 301 726 317 q 635 72 719 158 q 399 -14 551 -14 m 399 93 q 537 149 486 93 q 592 308 588 204 q 593 361 593 322 q 592 414 593 400 q 537 574 588 518 q 399 629 486 629 q 260 574 311 629 q 206 414 208 518 l 204 361 l 206 308 q 260 149 208 204 q 399 93 311 93 m 399 819 q 269 868 310 819 q 229 992 229 917 q 236 1010 229 1003 q 256 1018 243 1018 l 297 1018 q 317 1010 310 1018 q 324 992 324 1003 q 399 903 324 903 q 474 992 474 903 q 481 1010 474 1003 q 500 1018 488 1018 l 542 1018 q 561 1010 554 1018 q 568 992 568 1003 q 528 868 568 917 q 399 819 488 819 z "},"ô":{"ha":797,"x_min":71,"x_max":726,"o":"m 399 -14 q 162 72 246 -14 q 72 301 78 158 l 71 361 l 72 421 q 163 649 78 563 q 399 736 247 736 q 635 649 550 736 q 725 421 719 563 q 726 361 726 406 q 725 301 726 317 q 635 72 719 158 q 399 -14 551 -14 m 399 93 q 537 149 486 93 q 592 308 588 204 q 593 361 593 322 q 592 414 593 400 q 537 574 588 518 q 399 629 486 629 q 260 574 311 629 q 206 414 208 518 l 204 361 l 206 308 q 260 149 208 204 q 399 93 311 93 m 210 826 q 189 843 189 826 q 204 869 189 854 l 332 997 q 354 1015 344 1011 q 378 1018 364 1018 l 419 1018 q 442 1015 433 1018 q 465 997 451 1011 l 593 869 q 608 843 608 854 q 588 826 608 826 l 551 826 q 513 836 526 826 l 399 915 l 285 836 q 246 826 271 826 l 210 826 z "},"ö":{"ha":797,"x_min":71,"x_max":726,"o":"m 399 -14 q 162 72 246 -14 q 72 301 78 158 l 71 361 l 72 421 q 163 649 78 563 q 399 736 247 736 q 635 649 550 736 q 725 421 719 563 q 726 361 726 406 q 725 301 726 317 q 635 72 719 158 q 399 -14 551 -14 m 399 93 q 537 149 486 93 q 592 308 588 204 q 593 361 593 322 q 592 414 593 400 q 537 574 588 518 q 399 629 486 629 q 260 574 311 629 q 206 414 208 518 l 204 361 l 206 308 q 260 149 208 204 q 399 93 311 93 m 243 863 q 221 871 229 863 q 213 893 213 879 l 213 968 q 221 991 213 982 q 243 1000 229 1000 l 319 1000 q 342 991 333 1000 q 351 968 351 982 l 351 893 q 342 871 351 879 q 319 863 333 863 l 243 863 m 479 863 q 456 871 465 863 q 447 893 447 879 l 447 968 q 456 991 447 982 q 479 1000 465 1000 l 554 1000 q 577 991 568 1000 q 586 968 586 982 l 586 893 q 577 871 586 879 q 554 863 568 863 l 479 863 z "},"ò":{"ha":797,"x_min":71,"x_max":726,"o":"m 399 -14 q 162 72 246 -14 q 72 301 78 158 l 71 361 l 72 421 q 163 649 78 563 q 399 736 247 736 q 635 649 550 736 q 725 421 719 563 q 726 361 726 406 q 725 301 726 317 q 635 72 719 158 q 399 -14 551 -14 m 399 93 q 537 149 486 93 q 592 308 588 204 q 593 361 593 322 q 592 414 593 400 q 537 574 588 518 q 399 629 486 629 q 260 574 311 629 q 206 414 208 518 l 204 361 l 206 308 q 260 149 208 204 q 399 93 311 93 m 393 826 q 368 829 378 826 q 347 842 358 832 l 186 974 q 179 990 179 981 q 186 1010 179 1003 q 206 1018 193 1018 l 300 1018 q 328 1013 319 1018 q 351 992 338 1007 l 456 867 q 463 849 463 860 q 440 826 463 826 l 393 826 z "},"ő":{"ha":797,"x_min":71,"x_max":726,"o":"m 399 -14 q 162 72 246 -14 q 72 301 78 158 l 71 361 l 72 421 q 163 649 78 563 q 399 736 247 736 q 635 649 550 736 q 725 421 719 563 q 726 361 726 406 q 725 301 726 317 q 635 72 719 158 q 399 -14 551 -14 m 399 93 q 537 149 486 93 q 592 308 588 204 q 593 361 593 322 q 592 414 593 400 q 537 574 588 518 q 399 629 486 629 q 260 574 311 629 q 206 414 208 518 l 204 361 l 206 308 q 260 149 208 204 q 399 93 311 93 m 249 826 q 226 849 226 826 q 233 869 226 856 l 288 992 q 306 1012 294 1006 q 339 1018 318 1018 l 417 1018 q 437 1011 429 1018 q 444 992 444 1004 q 436 974 444 981 l 326 846 q 283 826 310 826 l 249 826 m 476 826 q 454 849 454 826 q 461 869 454 856 l 515 992 q 534 1012 522 1006 q 567 1018 546 1018 l 644 1018 q 665 1011 657 1018 q 672 992 672 1004 q 664 974 672 981 l 554 846 q 511 826 538 826 l 476 826 z "},"ō":{"ha":797,"x_min":71,"x_max":726,"o":"m 399 -14 q 162 72 246 -14 q 72 301 78 158 l 71 361 l 72 421 q 163 649 78 563 q 399 736 247 736 q 635 649 550 736 q 725 421 719 563 q 726 361 726 406 q 725 301 726 317 q 635 72 719 158 q 399 -14 551 -14 m 399 93 q 537 149 486 93 q 592 308 588 204 q 593 361 593 322 q 592 414 593 400 q 537 574 588 518 q 399 629 486 629 q 260 574 311 629 q 206 414 208 518 l 204 361 l 206 308 q 260 149 208 204 q 399 93 311 93 m 243 857 q 221 865 229 857 q 213 888 213 874 l 213 931 q 221 953 213 944 q 243 961 229 961 l 553 961 q 576 953 567 961 q 585 931 585 944 l 585 888 q 576 865 585 874 q 553 857 567 857 l 243 857 z "},"ø":{"ha":844,"x_min":19,"x_max":825,"o":"m 422 -14 q 222 42 297 -14 q 115 189 146 97 l 64 169 q 46 165 54 165 q 26 172 33 165 q 19 190 19 178 l 19 229 q 26 253 19 246 q 50 267 32 260 l 97 285 q 94 361 94 311 q 96 421 94 401 q 181 646 101 556 q 422 736 261 736 q 624 680 549 736 q 728 529 699 624 l 781 550 q 797 554 792 554 q 825 529 825 554 l 825 489 q 819 467 825 474 q 794 453 813 460 l 747 435 q 750 356 750 393 l 749 301 q 665 76 744 167 q 422 -14 585 -14 m 607 483 q 542 593 592 557 q 422 629 492 629 q 286 579 339 629 q 229 422 233 529 l 228 381 l 229 336 l 607 483 m 422 93 q 560 144 507 93 q 615 303 613 194 q 617 340 617 313 q 615 383 617 371 l 236 236 q 303 128 254 163 q 422 93 353 93 z "},"ǿ":{"ha":844,"x_min":19,"x_max":825,"o":"m 379 826 q 357 849 357 826 q 364 867 357 860 l 468 992 q 491 1013 482 1007 q 519 1018 500 1018 l 614 1018 q 633 1010 626 1018 q 640 990 640 1003 q 633 974 640 981 l 472 842 q 451 829 461 832 q 426 826 442 826 l 379 826 m 422 -14 q 222 42 297 -14 q 115 189 146 97 l 64 169 q 46 165 54 165 q 26 172 33 165 q 19 190 19 178 l 19 229 q 26 253 19 246 q 50 267 32 260 l 97 285 q 94 361 94 311 q 96 421 94 401 q 181 646 101 556 q 422 736 261 736 q 624 680 549 736 q 728 529 699 624 l 781 550 q 797 554 792 554 q 825 529 825 554 l 825 489 q 819 467 825 474 q 794 453 813 460 l 747 435 q 750 356 750 393 l 749 301 q 665 76 744 167 q 422 -14 585 -14 m 607 483 q 542 593 592 557 q 422 629 492 629 q 286 579 339 629 q 229 422 233 529 l 228 381 l 229 336 l 607 483 m 422 93 q 560 144 507 93 q 615 303 613 194 q 617 340 617 313 q 615 383 617 371 l 236 236 q 303 128 254 163 q 422 93 353 93 z "},"õ":{"ha":797,"x_min":71,"x_max":726,"o":"m 399 -14 q 162 72 246 -14 q 72 301 78 158 l 71 361 l 72 421 q 163 649 78 563 q 399 736 247 736 q 635 649 550 736 q 725 421 719 563 q 726 361 726 406 q 725 301 726 317 q 635 72 719 158 q 399 -14 551 -14 m 399 93 q 537 149 486 93 q 592 308 588 204 q 593 361 593 322 q 592 414 593 400 q 537 574 588 518 q 399 629 486 629 q 260 574 311 629 q 206 414 208 518 l 204 361 l 206 308 q 260 149 208 204 q 399 93 311 93 m 471 819 q 428 826 446 819 q 388 847 410 833 q 364 860 376 854 q 339 867 351 867 q 322 863 328 867 q 311 853 315 858 q 306 846 307 847 q 279 826 294 826 l 235 826 q 218 833 225 826 q 211 849 211 840 q 243 933 211 894 q 326 972 275 972 q 369 965 351 972 q 411 944 386 958 q 429 935 414 943 q 461 925 444 925 q 480 931 474 925 q 493 947 486 936 q 504 962 499 957 q 519 967 510 967 l 564 967 q 581 960 575 967 q 588 943 588 953 q 555 859 588 899 q 471 819 522 819 z "},"œ":{"ha":1301,"x_min":72,"x_max":1240,"o":"m 400 -14 q 163 72 247 -14 q 74 301 79 158 l 72 361 l 74 421 q 164 649 79 563 q 400 736 249 736 q 558 700 492 736 q 664 600 625 664 q 767 701 703 665 q 917 736 832 736 q 1156 638 1071 736 q 1240 374 1240 540 l 1240 350 q 1231 327 1240 336 q 1208 318 1222 318 l 728 318 l 728 306 q 783 152 732 215 q 917 89 833 89 q 1017 115 978 89 q 1075 168 1056 140 q 1094 188 1088 185 q 1118 192 1101 192 l 1185 192 q 1206 185 1197 192 q 1215 165 1215 178 q 1178 92 1215 135 q 1072 17 1140 49 q 918 -14 1004 -14 q 768 21 833 -14 q 663 119 703 56 q 558 21 625 56 q 400 -14 492 -14 m 1108 414 l 1108 418 q 1056 574 1108 514 q 917 635 1004 635 q 778 574 829 635 q 728 418 728 514 l 728 414 l 1108 414 m 400 93 q 538 149 486 93 q 593 308 589 204 q 594 361 594 322 q 593 414 594 400 q 538 574 589 518 q 400 629 486 629 q 261 574 313 629 q 206 414 210 518 l 204 361 l 206 308 q 261 149 210 204 q 400 93 313 93 z "},"p":{"ha":828,"x_min":104,"x_max":758,"o":"m 136 -264 q 113 -255 122 -264 q 104 -232 104 -246 l 104 690 q 113 713 104 704 q 136 722 122 722 l 200 722 q 223 713 214 722 q 232 690 232 704 l 232 629 q 460 736 310 736 q 678 644 606 736 q 757 408 751 553 q 758 361 758 393 q 757 314 758 329 q 678 78 751 171 q 460 -14 604 -14 q 235 90 315 -14 l 235 -232 q 226 -255 235 -246 q 204 -264 218 -264 l 136 -264 m 431 99 q 574 160 529 99 q 624 321 619 221 q 625 361 625 335 q 431 624 625 624 q 287 560 335 624 q 235 410 239 497 l 233 357 l 235 303 q 288 160 238 221 q 431 99 338 99 z "},"þ":{"ha":828,"x_min":104,"x_max":758,"o":"m 136 -264 q 113 -255 122 -264 q 104 -232 104 -246 l 104 954 q 113 977 104 968 q 136 986 122 986 l 204 986 q 227 977 218 986 q 236 954 236 968 l 236 632 q 460 736 313 736 q 678 644 606 736 q 757 408 751 553 q 758 361 758 393 q 757 314 758 329 q 678 78 751 171 q 460 -14 606 -14 q 236 90 314 -14 l 236 -232 q 227 -255 236 -246 q 204 -264 218 -264 l 136 -264 m 432 99 q 624 321 613 99 q 625 361 625 335 q 432 624 625 624 q 288 560 336 624 q 236 410 239 497 q 235 357 235 396 q 236 303 235 318 q 288 159 239 219 q 432 99 338 99 z "},"q":{"ha":828,"x_min":71,"x_max":724,"o":"m 625 -264 q 602 -255 611 -264 q 593 -232 593 -246 l 593 90 q 368 -14 513 -14 q 150 78 224 -14 q 72 314 76 171 l 71 361 l 72 408 q 149 644 76 553 q 368 736 222 736 q 596 629 518 736 l 596 690 q 605 713 596 704 q 628 722 614 722 l 692 722 q 715 713 706 722 q 724 690 724 704 l 724 -232 q 715 -255 724 -246 q 692 -264 706 -264 l 625 -264 m 397 99 q 540 160 490 99 q 593 303 590 221 q 594 357 594 318 q 593 410 594 396 q 541 560 589 497 q 397 624 493 624 q 253 563 299 624 q 204 401 208 501 l 203 361 q 397 99 203 99 z "},"r":{"ha":528,"x_min":103,"x_max":513,"o":"m 135 0 q 112 9 121 0 q 103 32 103 18 l 103 689 q 112 713 103 703 q 135 722 121 722 l 199 722 q 222 713 213 722 q 232 689 232 703 l 232 628 q 426 722 289 722 l 481 722 q 503 713 494 722 q 513 690 513 704 l 513 633 q 503 611 513 619 q 481 603 494 603 l 397 603 q 279 559 322 603 q 236 440 236 515 l 236 32 q 226 9 236 18 q 203 0 217 0 l 135 0 z "},"ŕ":{"ha":528,"x_min":103,"x_max":513,"o":"m 135 0 q 112 9 121 0 q 103 32 103 18 l 103 689 q 112 713 103 703 q 135 722 121 722 l 199 722 q 222 713 213 722 q 232 689 232 703 l 232 628 q 426 722 289 722 l 481 722 q 503 713 494 722 q 513 690 513 704 l 513 633 q 503 611 513 619 q 481 603 494 603 l 397 603 q 279 559 322 603 q 236 440 236 515 l 236 32 q 226 9 236 18 q 203 0 217 0 l 135 0 m 249 826 q 226 849 226 826 q 233 867 226 860 l 338 992 q 360 1013 351 1007 q 389 1018 369 1018 l 483 1018 q 503 1010 496 1018 q 510 990 510 1003 q 503 974 510 981 l 342 842 q 321 829 331 832 q 296 826 311 826 l 249 826 z "},"ř":{"ha":528,"x_min":72,"x_max":513,"o":"m 135 0 q 112 9 121 0 q 103 32 103 18 l 103 689 q 112 713 103 703 q 135 722 121 722 l 199 722 q 222 713 213 722 q 232 689 232 703 l 232 628 q 426 722 289 722 l 481 722 q 503 713 494 722 q 513 690 513 704 l 513 633 q 503 611 513 619 q 481 603 494 603 l 397 603 q 279 559 322 603 q 236 440 236 515 l 236 32 q 226 9 236 18 q 203 0 217 0 l 135 0 m 261 826 q 238 830 247 826 q 215 847 228 833 l 88 975 q 72 1001 72 990 q 93 1018 72 1018 l 129 1018 q 168 1008 151 1018 l 282 929 l 396 1008 q 435 1018 413 1018 l 471 1018 q 492 1001 492 1018 q 476 975 492 990 l 349 847 q 326 830 335 833 q 303 826 317 826 l 261 826 z "},"ŗ":{"ha":528,"x_min":54,"x_max":513,"o":"m 135 0 q 112 9 121 0 q 103 32 103 18 l 103 689 q 112 713 103 703 q 135 722 121 722 l 199 722 q 222 713 213 722 q 232 689 232 703 l 232 628 q 426 722 289 722 l 481 722 q 503 713 494 722 q 513 690 513 704 l 513 633 q 503 611 513 619 q 481 603 494 603 l 397 603 q 279 559 322 603 q 236 440 236 515 l 236 32 q 226 9 236 18 q 203 0 217 0 l 135 0 m 76 -303 q 58 -294 65 -303 q 54 -281 54 -287 q 56 -272 54 -276 l 79 -110 q 92 -81 82 -92 q 119 -69 101 -69 l 206 -69 q 222 -76 215 -69 q 229 -93 229 -83 q 224 -115 229 -104 l 165 -269 q 149 -294 158 -286 q 124 -303 140 -303 l 76 -303 z "},"s":{"ha":708,"x_min":58,"x_max":650,"o":"m 353 -14 q 190 17 256 -14 q 91 89 124 49 q 58 156 58 129 q 69 177 58 169 q 90 185 79 185 l 153 185 q 178 171 167 185 q 250 110 211 132 q 354 88 289 88 q 472 116 426 88 q 517 194 517 144 q 498 249 517 228 q 434 287 479 271 q 300 322 389 303 q 128 399 179 349 q 78 528 78 449 q 109 628 78 581 q 201 706 140 676 q 346 736 261 736 q 497 707 435 736 q 591 638 560 678 q 622 572 622 599 q 613 551 622 560 q 592 543 604 543 l 533 543 q 506 557 517 543 q 467 598 483 583 q 422 624 451 613 q 346 635 392 635 q 243 606 279 635 q 207 532 207 578 q 222 483 207 503 q 281 446 238 463 q 408 411 325 429 q 595 331 540 383 q 650 199 650 279 q 615 90 650 139 q 513 14 581 42 q 353 -14 446 -14 z "},"ś":{"ha":708,"x_min":58,"x_max":650,"o":"m 353 -14 q 190 17 256 -14 q 91 89 124 49 q 58 156 58 129 q 69 177 58 169 q 90 185 79 185 l 153 185 q 178 171 167 185 q 250 110 211 132 q 354 88 289 88 q 472 116 426 88 q 517 194 517 144 q 498 249 517 228 q 434 287 479 271 q 300 322 389 303 q 128 399 179 349 q 78 528 78 449 q 109 628 78 581 q 201 706 140 676 q 346 736 261 736 q 497 707 435 736 q 591 638 560 678 q 622 572 622 599 q 613 551 622 560 q 592 543 604 543 l 533 543 q 506 557 517 543 q 467 598 483 583 q 422 624 451 613 q 346 635 392 635 q 243 606 279 635 q 207 532 207 578 q 222 483 207 503 q 281 446 238 463 q 408 411 325 429 q 595 331 540 383 q 650 199 650 279 q 615 90 650 139 q 513 14 581 42 q 353 -14 446 -14 m 300 826 q 278 849 278 826 q 285 867 278 860 l 389 992 q 412 1013 403 1007 q 440 1018 421 1018 l 535 1018 q 554 1010 547 1018 q 561 990 561 1003 q 554 974 561 981 l 393 842 q 372 829 382 832 q 347 826 363 826 l 300 826 z "},"š":{"ha":708,"x_min":58,"x_max":650,"o":"m 353 -14 q 190 17 256 -14 q 91 89 124 49 q 58 156 58 129 q 69 177 58 169 q 90 185 79 185 l 153 185 q 178 171 167 185 q 250 110 211 132 q 354 88 289 88 q 472 116 426 88 q 517 194 517 144 q 498 249 517 228 q 434 287 479 271 q 300 322 389 303 q 128 399 179 349 q 78 528 78 449 q 109 628 78 581 q 201 706 140 676 q 346 736 261 736 q 497 707 435 736 q 591 638 560 678 q 622 572 622 599 q 613 551 622 560 q 592 543 604 543 l 533 543 q 506 557 517 543 q 467 598 483 583 q 422 624 451 613 q 346 635 392 635 q 243 606 279 635 q 207 532 207 578 q 222 483 207 503 q 281 446 238 463 q 408 411 325 429 q 595 331 540 383 q 650 199 650 279 q 615 90 650 139 q 513 14 581 42 q 353 -14 446 -14 m 333 826 q 310 830 319 826 q 288 847 300 833 l 160 975 q 144 1001 144 990 q 165 1018 144 1018 l 201 1018 q 240 1008 224 1018 l 354 929 l 468 1008 q 507 1018 485 1018 l 543 1018 q 564 1001 564 1018 q 549 975 564 990 l 421 847 q 398 830 407 833 q 375 826 389 826 l 333 826 z "},"ş":{"ha":708,"x_min":58,"x_max":650,"o":"m 353 -306 q 268 -286 304 -306 q 232 -247 232 -267 q 238 -235 232 -240 l 258 -215 q 272 -208 265 -208 q 300 -222 278 -208 q 350 -236 321 -236 q 390 -222 374 -236 q 406 -185 406 -208 q 390 -150 406 -164 q 350 -136 374 -136 q 314 -143 333 -136 q 286 -149 293 -149 q 268 -140 275 -149 l 244 -115 q 239 -103 239 -110 q 243 -88 239 -97 q 250 -74 247 -79 l 278 -7 q 156 34 206 4 q 83 99 107 64 q 58 156 58 133 q 69 177 58 169 q 90 185 79 185 l 150 185 q 164 182 158 185 q 176 171 169 179 q 251 109 213 131 q 354 88 289 88 q 472 116 426 88 q 517 194 517 144 q 498 249 517 228 q 434 287 479 271 q 300 322 389 303 q 128 399 179 349 q 78 528 78 449 q 109 628 78 581 q 201 706 140 676 q 346 736 261 736 q 497 707 435 736 q 591 638 560 678 q 622 572 622 599 q 613 551 622 560 q 592 543 604 543 l 533 543 q 506 557 517 543 q 467 598 483 583 q 422 624 451 613 q 346 635 392 635 q 243 606 279 635 q 207 532 207 578 q 222 483 207 503 q 281 446 238 463 q 408 411 325 429 q 595 331 540 383 q 650 199 650 279 q 616 90 650 139 q 515 14 582 42 q 354 -14 447 -14 l 324 -78 q 375 -67 342 -67 q 452 -99 422 -67 q 482 -183 482 -132 q 448 -271 482 -236 q 353 -306 414 -306 z "},"ŝ":{"ha":708,"x_min":58,"x_max":650,"o":"m 353 -14 q 190 17 256 -14 q 91 89 124 49 q 58 156 58 129 q 69 177 58 169 q 90 185 79 185 l 153 185 q 178 171 167 185 q 250 110 211 132 q 354 88 289 88 q 472 116 426 88 q 517 194 517 144 q 498 249 517 228 q 434 287 479 271 q 300 322 389 303 q 128 399 179 349 q 78 528 78 449 q 109 628 78 581 q 201 706 140 676 q 346 736 261 736 q 497 707 435 736 q 591 638 560 678 q 622 572 622 599 q 613 551 622 560 q 592 543 604 543 l 533 543 q 506 557 517 543 q 467 598 483 583 q 422 624 451 613 q 346 635 392 635 q 243 606 279 635 q 207 532 207 578 q 222 483 207 503 q 281 446 238 463 q 408 411 325 429 q 595 331 540 383 q 650 199 650 279 q 615 90 650 139 q 513 14 581 42 q 353 -14 446 -14 m 165 826 q 144 843 144 826 q 160 869 144 854 l 288 997 q 310 1015 300 1011 q 333 1018 319 1018 l 375 1018 q 398 1015 389 1018 q 421 997 407 1011 l 549 869 q 564 843 564 854 q 543 826 564 826 l 507 826 q 468 836 482 826 l 354 915 l 240 836 q 201 826 226 826 l 165 826 z "},"ș":{"ha":708,"x_min":58,"x_max":650,"o":"m 353 -14 q 190 17 256 -14 q 91 89 124 49 q 58 156 58 129 q 69 177 58 169 q 90 185 79 185 l 153 185 q 178 171 167 185 q 250 110 211 132 q 354 88 289 88 q 472 116 426 88 q 517 194 517 144 q 498 249 517 228 q 434 287 479 271 q 300 322 389 303 q 128 399 179 349 q 78 528 78 449 q 109 628 78 581 q 201 706 140 676 q 346 736 261 736 q 497 707 435 736 q 591 638 560 678 q 622 572 622 599 q 613 551 622 560 q 592 543 604 543 l 533 543 q 506 557 517 543 q 467 598 483 583 q 422 624 451 613 q 346 635 392 635 q 243 606 279 635 q 207 532 207 578 q 222 483 207 503 q 281 446 238 463 q 408 411 325 429 q 595 331 540 383 q 650 199 650 279 q 615 90 650 139 q 513 14 581 42 q 353 -14 446 -14 m 271 -303 q 253 -294 260 -303 q 249 -281 249 -287 q 250 -272 249 -276 l 274 -110 q 286 -81 276 -92 q 314 -69 296 -69 l 400 -69 q 417 -76 410 -69 q 424 -93 424 -83 q 418 -115 424 -104 l 360 -269 q 344 -294 353 -286 q 318 -303 335 -303 l 271 -303 z "},"ß":{"ha":818,"x_min":104,"x_max":753,"o":"m 136 0 q 113 9 122 0 q 104 32 104 18 l 104 685 q 180 901 104 817 q 410 986 256 986 q 581 949 513 986 q 681 852 649 911 q 713 726 713 793 q 678 599 713 650 q 596 524 644 549 q 753 285 753 469 q 719 150 753 215 q 614 42 685 85 q 436 0 543 0 l 343 0 q 319 9 328 0 q 310 32 310 18 l 310 78 q 319 101 310 92 q 343 110 328 110 l 417 110 q 566 160 513 110 q 619 288 619 210 q 566 416 619 365 q 415 467 513 467 l 342 467 q 318 475 326 467 q 310 499 310 483 l 310 539 q 318 563 310 554 q 342 571 326 571 l 404 571 q 540 611 494 572 q 586 724 586 650 q 538 833 586 790 q 410 876 489 876 q 281 827 328 876 q 233 681 233 778 l 233 32 q 224 9 233 18 q 201 0 215 0 l 136 0 z "},"ſ":{"ha":408,"x_min":25,"x_max":529,"o":"m 208 0 q 185 9 194 0 q 176 32 176 18 l 176 611 l 57 611 q 34 620 43 611 q 25 643 25 629 l 25 690 q 34 713 25 704 q 57 722 43 722 l 176 722 l 176 785 q 232 965 176 903 q 414 1028 288 1028 l 497 1028 q 520 1019 511 1028 q 529 996 529 1010 l 529 949 q 520 926 529 935 q 497 917 511 917 l 417 917 q 326 883 349 917 q 304 785 304 849 l 304 32 q 295 9 304 18 q 272 0 286 0 l 208 0 z "},"t":{"ha":543,"x_min":25,"x_max":513,"o":"m 385 0 q 165 244 165 0 l 165 611 l 57 611 q 34 620 43 611 q 25 643 25 629 l 25 690 q 34 713 25 704 q 57 722 43 722 l 165 722 l 165 954 q 174 977 165 968 q 197 986 183 986 l 263 986 q 285 977 276 986 q 294 954 294 968 l 294 722 l 467 722 q 490 713 481 722 q 499 690 499 704 l 499 643 q 490 620 499 629 q 467 611 481 611 l 294 611 l 294 254 q 318 149 294 185 q 396 114 342 114 l 481 114 q 503 105 494 114 q 513 82 513 96 l 513 32 q 503 9 513 18 q 481 0 494 0 l 385 0 z "},"ŧ":{"ha":553,"x_min":32,"x_max":518,"o":"m 390 0 q 225 64 278 0 q 172 244 172 128 l 172 413 l 64 413 q 41 422 50 413 q 32 444 32 431 l 32 474 q 41 497 32 488 q 64 506 50 506 l 172 506 l 172 629 l 64 629 q 41 638 50 629 q 32 661 32 647 l 32 690 q 41 713 32 704 q 64 722 50 722 l 172 722 l 172 954 q 181 977 172 968 q 204 986 190 986 l 268 986 q 291 977 282 986 q 300 954 300 968 l 300 722 l 474 722 q 497 713 488 722 q 506 690 506 704 l 506 661 q 497 638 506 647 q 474 629 488 629 l 300 629 l 300 506 l 474 506 q 497 497 488 506 q 506 474 506 488 l 506 444 q 497 422 506 431 q 474 413 488 413 l 300 413 l 300 254 q 324 149 300 185 q 401 114 347 114 l 486 114 q 509 105 500 114 q 518 82 518 96 l 518 32 q 509 9 518 18 q 486 0 500 0 l 390 0 z "},"ť":{"ha":504,"x_min":25,"x_max":585,"o":"m 385 0 q 165 244 165 0 l 165 611 l 57 611 q 34 620 43 611 q 25 643 25 629 l 25 690 q 34 713 25 704 q 57 722 43 722 l 165 722 l 165 954 q 174 977 165 968 q 197 986 183 986 l 263 986 q 285 977 276 986 q 294 954 294 968 l 294 722 l 467 722 q 490 713 481 722 q 499 690 499 704 l 499 643 q 490 620 499 629 q 467 611 481 611 l 294 611 l 294 254 q 318 149 294 185 q 396 114 342 114 l 481 114 q 503 105 494 114 q 513 82 513 96 l 513 32 q 503 9 513 18 q 481 0 494 0 l 385 0 m 432 847 q 414 856 421 847 q 410 869 410 863 q 411 878 410 874 l 435 1040 q 447 1069 438 1058 q 475 1081 457 1081 l 561 1081 q 578 1074 571 1081 q 585 1057 585 1067 q 579 1035 585 1046 l 521 881 q 505 856 514 864 q 479 847 496 847 l 432 847 z "},"ț":{"ha":543,"x_min":25,"x_max":513,"o":"m 385 0 q 165 244 165 0 l 165 611 l 57 611 q 34 620 43 611 q 25 643 25 629 l 25 690 q 34 713 25 704 q 57 722 43 722 l 165 722 l 165 954 q 174 977 165 968 q 197 986 183 986 l 263 986 q 285 977 276 986 q 294 954 294 968 l 294 722 l 467 722 q 490 713 481 722 q 499 690 499 704 l 499 643 q 490 620 499 629 q 467 611 481 611 l 294 611 l 294 254 q 318 149 294 185 q 396 114 342 114 l 481 114 q 503 105 494 114 q 513 82 513 96 l 513 32 q 503 9 513 18 q 481 0 494 0 l 385 0 m 169 -303 q 151 -294 158 -303 q 147 -281 147 -287 q 149 -272 147 -276 l 172 -110 q 185 -81 175 -92 q 213 -69 194 -69 l 299 -69 q 315 -76 308 -69 q 322 -93 322 -83 q 317 -115 322 -104 l 258 -269 q 242 -294 251 -286 q 217 -303 233 -303 l 169 -303 z "},"u":{"ha":836,"x_min":96,"x_max":732,"o":"m 372 -14 q 168 72 240 -14 q 96 299 96 157 l 96 690 q 105 713 96 704 q 128 722 114 722 l 197 722 q 220 713 211 722 q 229 690 229 704 l 229 306 q 410 99 229 99 q 549 153 497 99 q 600 306 600 208 l 600 690 q 609 713 600 704 q 632 722 618 722 l 701 722 q 724 713 715 722 q 732 690 732 704 l 732 32 q 724 9 732 18 q 701 0 715 0 l 636 0 q 613 9 622 0 q 604 32 604 18 l 604 93 q 510 13 565 40 q 372 -14 454 -14 z "},"ú":{"ha":836,"x_min":96,"x_max":732,"o":"m 372 -14 q 168 72 240 -14 q 96 299 96 157 l 96 690 q 105 713 96 704 q 128 722 114 722 l 197 722 q 220 713 211 722 q 229 690 229 704 l 229 306 q 410 99 229 99 q 549 153 497 99 q 600 306 600 208 l 600 690 q 609 713 600 704 q 632 722 618 722 l 701 722 q 724 713 715 722 q 732 690 732 704 l 732 32 q 724 9 732 18 q 701 0 715 0 l 636 0 q 613 9 622 0 q 604 32 604 18 l 604 93 q 510 13 565 40 q 372 -14 454 -14 m 372 826 q 350 849 350 826 q 357 867 350 860 l 461 992 q 484 1013 475 1007 q 513 1018 493 1018 l 607 1018 q 626 1010 619 1018 q 633 990 633 1003 q 626 974 633 981 l 465 842 q 444 829 454 832 q 419 826 435 826 l 372 826 z "},"ŭ":{"ha":836,"x_min":96,"x_max":732,"o":"m 372 -14 q 168 72 240 -14 q 96 299 96 157 l 96 690 q 105 713 96 704 q 128 722 114 722 l 197 722 q 220 713 211 722 q 229 690 229 704 l 229 306 q 410 99 229 99 q 549 153 497 99 q 600 306 600 208 l 600 690 q 609 713 600 704 q 632 722 618 722 l 701 722 q 724 713 715 722 q 732 690 732 704 l 732 32 q 724 9 732 18 q 701 0 715 0 l 636 0 q 613 9 622 0 q 604 32 604 18 l 604 93 q 510 13 565 40 q 372 -14 454 -14 m 414 819 q 285 868 325 819 q 244 992 244 917 q 251 1010 244 1003 q 271 1018 258 1018 l 313 1018 q 332 1010 325 1018 q 339 992 339 1003 q 414 903 339 903 q 489 992 489 903 q 496 1010 489 1003 q 515 1018 503 1018 l 557 1018 q 576 1010 569 1018 q 583 992 583 1003 q 543 868 583 917 q 414 819 503 819 z "},"û":{"ha":836,"x_min":96,"x_max":732,"o":"m 372 -14 q 168 72 240 -14 q 96 299 96 157 l 96 690 q 105 713 96 704 q 128 722 114 722 l 197 722 q 220 713 211 722 q 229 690 229 704 l 229 306 q 410 99 229 99 q 549 153 497 99 q 600 306 600 208 l 600 690 q 609 713 600 704 q 632 722 618 722 l 701 722 q 724 713 715 722 q 732 690 732 704 l 732 32 q 724 9 732 18 q 701 0 715 0 l 636 0 q 613 9 622 0 q 604 32 604 18 l 604 93 q 510 13 565 40 q 372 -14 454 -14 m 225 826 q 204 843 204 826 q 219 869 204 854 l 347 997 q 369 1015 360 1011 q 393 1018 379 1018 l 435 1018 q 458 1015 449 1018 q 481 997 467 1011 l 608 869 q 624 843 624 854 q 603 826 624 826 l 567 826 q 528 836 542 826 l 414 915 l 300 836 q 261 826 286 826 l 225 826 z "},"ü":{"ha":836,"x_min":96,"x_max":732,"o":"m 372 -14 q 168 72 240 -14 q 96 299 96 157 l 96 690 q 105 713 96 704 q 128 722 114 722 l 197 722 q 220 713 211 722 q 229 690 229 704 l 229 306 q 410 99 229 99 q 549 153 497 99 q 600 306 600 208 l 600 690 q 609 713 600 704 q 632 722 618 722 l 701 722 q 724 713 715 722 q 732 690 732 704 l 732 32 q 724 9 732 18 q 701 0 715 0 l 636 0 q 613 9 622 0 q 604 32 604 18 l 604 93 q 510 13 565 40 q 372 -14 454 -14 m 258 863 q 236 871 244 863 q 228 893 228 879 l 228 968 q 236 991 228 982 q 258 1000 244 1000 l 335 1000 q 358 991 349 1000 q 367 968 367 982 l 367 893 q 358 871 367 879 q 335 863 349 863 l 258 863 m 494 863 q 472 871 481 863 q 463 893 463 879 l 463 968 q 472 991 463 982 q 494 1000 481 1000 l 569 1000 q 592 991 583 1000 q 601 968 601 982 l 601 893 q 592 871 601 879 q 569 863 583 863 l 494 863 z "},"ù":{"ha":836,"x_min":96,"x_max":732,"o":"m 372 -14 q 168 72 240 -14 q 96 299 96 157 l 96 690 q 105 713 96 704 q 128 722 114 722 l 197 722 q 220 713 211 722 q 229 690 229 704 l 229 306 q 410 99 229 99 q 549 153 497 99 q 600 306 600 208 l 600 690 q 609 713 600 704 q 632 722 618 722 l 701 722 q 724 713 715 722 q 732 690 732 704 l 732 32 q 724 9 732 18 q 701 0 715 0 l 636 0 q 613 9 622 0 q 604 32 604 18 l 604 93 q 510 13 565 40 q 372 -14 454 -14 m 408 826 q 383 829 393 826 q 363 842 374 832 l 201 974 q 194 990 194 981 q 201 1010 194 1003 q 221 1018 208 1018 l 315 1018 q 344 1013 335 1018 q 367 992 353 1007 l 471 867 q 478 849 478 860 q 456 826 478 826 l 408 826 z "},"ű":{"ha":836,"x_min":96,"x_max":732,"o":"m 372 -14 q 168 72 240 -14 q 96 299 96 157 l 96 690 q 105 713 96 704 q 128 722 114 722 l 197 722 q 220 713 211 722 q 229 690 229 704 l 229 306 q 410 99 229 99 q 549 153 497 99 q 600 306 600 208 l 600 690 q 609 713 600 704 q 632 722 618 722 l 701 722 q 724 713 715 722 q 732 690 732 704 l 732 32 q 724 9 732 18 q 701 0 715 0 l 636 0 q 613 9 622 0 q 604 32 604 18 l 604 93 q 510 13 565 40 q 372 -14 454 -14 m 256 826 q 233 849 233 826 q 240 869 233 856 l 294 992 q 313 1012 301 1006 q 346 1018 325 1018 l 424 1018 q 444 1011 436 1018 q 451 992 451 1004 q 443 974 451 981 l 333 846 q 290 826 317 826 l 256 826 m 483 826 q 461 849 461 826 q 468 869 461 856 l 522 992 q 541 1012 529 1006 q 574 1018 553 1018 l 651 1018 q 672 1011 664 1018 q 679 992 679 1004 q 671 974 679 981 l 561 846 q 518 826 544 826 l 483 826 z "},"ū":{"ha":836,"x_min":96,"x_max":732,"o":"m 372 -14 q 168 72 240 -14 q 96 299 96 157 l 96 690 q 105 713 96 704 q 128 722 114 722 l 197 722 q 220 713 211 722 q 229 690 229 704 l 229 306 q 410 99 229 99 q 549 153 497 99 q 600 306 600 208 l 600 690 q 609 713 600 704 q 632 722 618 722 l 701 722 q 724 713 715 722 q 732 690 732 704 l 732 32 q 724 9 732 18 q 701 0 715 0 l 636 0 q 613 9 622 0 q 604 32 604 18 l 604 93 q 510 13 565 40 q 372 -14 454 -14 m 260 857 q 238 865 246 857 q 229 888 229 874 l 229 931 q 238 953 229 944 q 260 961 246 961 l 569 961 q 592 953 583 961 q 601 931 601 944 l 601 888 q 592 865 601 874 q 569 857 583 857 l 260 857 z "},"ų":{"ha":836,"x_min":96,"x_max":732,"o":"m 688 -306 q 563 -254 610 -306 q 515 -114 515 -203 q 544 -21 515 -61 q 610 39 572 19 q 604 56 604 47 l 604 93 q 510 13 565 40 q 372 -14 454 -14 q 168 72 240 -14 q 96 299 96 157 l 96 690 q 105 713 96 704 q 128 722 114 722 l 197 722 q 220 713 211 722 q 229 690 229 704 l 229 306 q 410 99 229 99 q 549 153 497 99 q 600 306 600 208 l 600 690 q 609 713 600 704 q 632 722 618 722 l 701 722 q 724 713 715 722 q 732 690 732 704 l 732 32 q 707 0 732 10 l 700 -3 q 637 -45 657 -18 q 617 -114 617 -72 q 636 -185 617 -161 q 693 -210 656 -210 l 701 -210 q 724 -219 715 -210 q 732 -242 732 -228 l 732 -274 q 724 -297 732 -287 q 701 -306 715 -306 l 688 -306 z "},"ů":{"ha":836,"x_min":96,"x_max":732,"o":"m 372 -14 q 168 72 240 -14 q 96 299 96 157 l 96 690 q 105 713 96 704 q 128 722 114 722 l 197 722 q 220 713 211 722 q 229 690 229 704 l 229 306 q 410 99 229 99 q 549 153 497 99 q 600 306 600 208 l 600 690 q 609 713 600 704 q 632 722 618 722 l 701 722 q 724 713 715 722 q 732 690 732 704 l 732 32 q 724 9 732 18 q 701 0 715 0 l 636 0 q 613 9 622 0 q 604 32 604 18 l 604 93 q 510 13 565 40 q 372 -14 454 -14 m 414 819 q 331 851 365 819 q 297 929 297 882 q 331 1008 297 976 q 414 1039 365 1039 q 497 1008 463 1039 q 531 929 531 976 q 497 851 531 882 q 414 819 463 819 m 414 888 q 444 899 432 888 q 456 929 456 911 q 444 959 456 947 q 414 971 432 971 q 384 959 396 971 q 372 929 372 947 q 384 899 372 911 q 414 888 396 888 z "},"ũ":{"ha":836,"x_min":96,"x_max":732,"o":"m 372 -14 q 168 72 240 -14 q 96 299 96 157 l 96 690 q 105 713 96 704 q 128 722 114 722 l 197 722 q 220 713 211 722 q 229 690 229 704 l 229 306 q 410 99 229 99 q 549 153 497 99 q 600 306 600 208 l 600 690 q 609 713 600 704 q 632 722 618 722 l 701 722 q 724 713 715 722 q 732 690 732 704 l 732 32 q 724 9 732 18 q 701 0 715 0 l 636 0 q 613 9 622 0 q 604 32 604 18 l 604 93 q 510 13 565 40 q 372 -14 454 -14 m 486 819 q 443 826 461 819 q 403 847 425 833 q 379 860 392 854 q 354 867 367 867 q 337 863 343 867 q 326 853 331 858 q 321 846 322 847 q 294 826 310 826 l 250 826 q 233 833 240 826 q 226 849 226 840 q 258 933 226 894 q 342 972 290 972 q 384 965 367 972 q 426 944 401 958 q 444 935 429 943 q 476 925 460 925 q 495 931 489 925 q 508 947 501 936 q 519 962 514 957 q 535 967 525 967 l 579 967 q 597 960 590 967 q 603 943 603 953 q 570 859 603 899 q 486 819 538 819 z "},"v":{"ha":769,"x_min":43,"x_max":726,"o":"m 354 0 q 303 35 318 0 l 46 679 l 43 693 q 51 714 43 706 q 72 722 60 722 l 139 722 q 174 699 163 722 l 385 151 l 596 699 q 629 722 608 722 l 697 722 q 717 714 708 722 q 726 693 726 706 l 724 679 l 465 35 q 414 0 450 0 l 354 0 z "},"w":{"ha":1114,"x_min":50,"x_max":1063,"o":"m 294 0 q 267 8 276 0 q 250 35 257 17 l 53 679 l 50 693 q 59 714 50 706 q 79 722 68 722 l 140 722 q 163 715 154 722 q 175 699 172 707 l 329 175 l 494 693 q 507 713 497 704 q 533 722 517 722 l 581 722 q 607 713 597 722 q 619 693 617 704 l 785 175 l 939 699 q 949 714 940 706 q 972 722 958 722 l 1035 722 q 1054 714 1046 722 q 1063 693 1063 706 l 1060 679 l 864 35 q 847 8 857 17 q 818 0 838 0 l 764 0 q 718 35 726 0 l 557 532 l 396 35 q 349 0 385 0 l 294 0 z "},"ẃ":{"ha":1114,"x_min":50,"x_max":1063,"o":"m 294 0 q 267 8 276 0 q 250 35 257 17 l 53 679 l 50 693 q 59 714 50 706 q 79 722 68 722 l 140 722 q 163 715 154 722 q 175 699 172 707 l 329 175 l 494 693 q 507 713 497 704 q 533 722 517 722 l 581 722 q 607 713 597 722 q 619 693 617 704 l 785 175 l 939 699 q 949 714 940 706 q 972 722 958 722 l 1035 722 q 1054 714 1046 722 q 1063 693 1063 706 l 1060 679 l 864 35 q 847 8 857 17 q 818 0 838 0 l 764 0 q 718 35 726 0 l 557 532 l 396 35 q 349 0 385 0 l 294 0 m 518 826 q 496 849 496 826 q 503 867 496 860 l 607 992 q 630 1013 621 1007 q 658 1018 639 1018 l 753 1018 q 772 1010 765 1018 q 779 990 779 1003 q 772 974 779 981 l 611 842 q 590 829 600 832 q 565 826 581 826 l 518 826 z "},"ŵ":{"ha":1114,"x_min":50,"x_max":1063,"o":"m 294 0 q 267 8 276 0 q 250 35 257 17 l 53 679 l 50 693 q 59 714 50 706 q 79 722 68 722 l 140 722 q 163 715 154 722 q 175 699 172 707 l 329 175 l 494 693 q 507 713 497 704 q 533 722 517 722 l 581 722 q 607 713 597 722 q 619 693 617 704 l 785 175 l 939 699 q 949 714 940 706 q 972 722 958 722 l 1035 722 q 1054 714 1046 722 q 1063 693 1063 706 l 1060 679 l 864 35 q 847 8 857 17 q 818 0 838 0 l 764 0 q 718 35 726 0 l 557 532 l 396 35 q 349 0 385 0 l 294 0 m 368 826 q 347 843 347 826 q 363 869 347 854 l 490 997 q 513 1015 503 1011 q 536 1018 522 1018 l 578 1018 q 601 1015 592 1018 q 624 997 610 1011 l 751 869 q 767 843 767 854 q 746 826 767 826 l 710 826 q 671 836 685 826 l 557 915 l 443 836 q 404 826 429 826 l 368 826 z "},"ẅ":{"ha":1114,"x_min":50,"x_max":1063,"o":"m 294 0 q 267 8 276 0 q 250 35 257 17 l 53 679 l 50 693 q 59 714 50 706 q 79 722 68 722 l 140 722 q 163 715 154 722 q 175 699 172 707 l 329 175 l 494 693 q 507 713 497 704 q 533 722 517 722 l 581 722 q 607 713 597 722 q 619 693 617 704 l 785 175 l 939 699 q 949 714 940 706 q 972 722 958 722 l 1035 722 q 1054 714 1046 722 q 1063 693 1063 706 l 1060 679 l 864 35 q 847 8 857 17 q 818 0 838 0 l 764 0 q 718 35 726 0 l 557 532 l 396 35 q 349 0 385 0 l 294 0 m 401 863 q 379 871 388 863 q 371 893 371 879 l 371 968 q 379 991 371 982 q 401 1000 388 1000 l 478 1000 q 501 991 492 1000 q 510 968 510 982 l 510 893 q 501 871 510 879 q 478 863 492 863 l 401 863 m 638 863 q 615 871 624 863 q 606 893 606 879 l 606 968 q 615 991 606 982 q 638 1000 624 1000 l 713 1000 q 735 991 726 1000 q 744 968 744 982 l 744 893 q 735 871 744 879 q 713 863 726 863 l 638 863 z "},"ẁ":{"ha":1114,"x_min":50,"x_max":1063,"o":"m 294 0 q 267 8 276 0 q 250 35 257 17 l 53 679 l 50 693 q 59 714 50 706 q 79 722 68 722 l 140 722 q 163 715 154 722 q 175 699 172 707 l 329 175 l 494 693 q 507 713 497 704 q 533 722 517 722 l 581 722 q 607 713 597 722 q 619 693 617 704 l 785 175 l 939 699 q 949 714 940 706 q 972 722 958 722 l 1035 722 q 1054 714 1046 722 q 1063 693 1063 706 l 1060 679 l 864 35 q 847 8 857 17 q 818 0 838 0 l 764 0 q 718 35 726 0 l 557 532 l 396 35 q 349 0 385 0 l 294 0 m 549 826 q 524 829 533 826 q 503 842 514 832 l 342 974 q 335 990 335 981 q 342 1010 335 1003 q 361 1018 349 1018 l 456 1018 q 484 1013 475 1018 q 507 992 493 1007 l 611 867 q 618 849 618 860 q 596 826 618 826 l 549 826 z "},"x":{"ha":749,"x_min":40,"x_max":707,"o":"m 69 0 q 49 8 58 0 q 40 29 40 17 q 50 54 40 42 l 292 369 l 65 668 q 56 693 56 679 q 64 714 56 706 q 85 722 72 722 l 156 722 q 192 700 176 722 l 376 460 l 561 699 q 577 716 569 710 q 597 722 585 722 l 665 722 q 686 714 678 722 q 694 693 694 706 q 685 668 694 679 l 456 367 l 697 54 q 707 29 707 42 q 699 8 707 17 q 678 0 690 0 l 604 0 q 568 21 583 0 l 374 275 l 176 21 q 160 6 168 11 q 140 0 153 0 l 69 0 z "},"y":{"ha":767,"x_min":43,"x_max":731,"o":"m 229 -264 q 210 -256 218 -264 q 201 -236 201 -247 q 208 -211 201 -226 l 315 43 l 50 669 q 43 693 43 688 q 51 714 43 706 q 72 722 60 722 l 140 722 q 174 699 163 722 l 385 193 l 601 699 q 636 722 613 722 l 701 722 q 722 714 714 722 q 731 694 731 706 q 724 669 731 690 l 329 -240 q 294 -264 318 -264 l 229 -264 z "},"ý":{"ha":767,"x_min":43,"x_max":731,"o":"m 229 -264 q 210 -256 218 -264 q 201 -236 201 -247 q 208 -211 201 -226 l 315 43 l 50 669 q 43 693 43 688 q 51 714 43 706 q 72 722 60 722 l 140 722 q 174 699 163 722 l 385 193 l 601 699 q 636 722 613 722 l 701 722 q 722 714 714 722 q 731 694 731 706 q 724 669 731 690 l 329 -240 q 294 -264 318 -264 l 229 -264 m 344 826 q 322 849 322 826 q 329 867 322 860 l 433 992 q 456 1013 447 1007 q 485 1018 465 1018 l 579 1018 q 599 1010 592 1018 q 606 990 606 1003 q 599 974 606 981 l 438 842 q 417 829 426 832 q 392 826 407 826 l 344 826 z "},"ŷ":{"ha":767,"x_min":43,"x_max":731,"o":"m 229 -264 q 210 -256 218 -264 q 201 -236 201 -247 q 208 -211 201 -226 l 315 43 l 50 669 q 43 693 43 688 q 51 714 43 706 q 72 722 60 722 l 140 722 q 174 699 163 722 l 385 193 l 601 699 q 636 722 613 722 l 701 722 q 722 714 714 722 q 731 694 731 706 q 724 669 731 690 l 329 -240 q 294 -264 318 -264 l 229 -264 m 196 826 q 175 843 175 826 q 190 869 175 854 l 318 997 q 340 1015 331 1011 q 364 1018 350 1018 l 406 1018 q 428 1015 419 1018 q 451 997 438 1011 l 579 869 q 594 843 594 854 q 574 826 594 826 l 538 826 q 499 836 513 826 l 385 915 l 271 836 q 232 826 257 826 l 196 826 z "},"ÿ":{"ha":767,"x_min":43,"x_max":731,"o":"m 229 -264 q 210 -256 218 -264 q 201 -236 201 -247 q 208 -211 201 -226 l 315 43 l 50 669 q 43 693 43 688 q 51 714 43 706 q 72 722 60 722 l 140 722 q 174 699 163 722 l 385 193 l 601 699 q 636 722 613 722 l 701 722 q 722 714 714 722 q 731 694 731 706 q 724 669 731 690 l 329 -240 q 294 -264 318 -264 l 229 -264 m 229 863 q 207 871 215 863 q 199 893 199 879 l 199 968 q 207 991 199 982 q 229 1000 215 1000 l 306 1000 q 328 991 319 1000 q 338 968 338 982 l 338 893 q 328 871 338 879 q 306 863 319 863 l 229 863 m 465 863 q 442 871 451 863 q 433 893 433 879 l 433 968 q 442 991 433 982 q 465 1000 451 1000 l 540 1000 q 563 991 554 1000 q 572 968 572 982 l 572 893 q 563 871 572 879 q 540 863 554 863 l 465 863 z "},"ỳ":{"ha":767,"x_min":43,"x_max":731,"o":"m 229 -264 q 210 -256 218 -264 q 201 -236 201 -247 q 208 -211 201 -226 l 315 43 l 50 669 q 43 693 43 688 q 51 714 43 706 q 72 722 60 722 l 140 722 q 174 699 163 722 l 385 193 l 601 699 q 636 722 613 722 l 701 722 q 722 714 714 722 q 731 694 731 706 q 724 669 731 690 l 329 -240 q 294 -264 318 -264 l 229 -264 m 379 826 q 354 829 364 826 q 333 842 344 832 l 172 974 q 165 990 165 981 q 172 1010 165 1003 q 192 1018 179 1018 l 286 1018 q 315 1013 306 1018 q 338 992 324 1007 l 442 867 q 449 849 449 860 q 426 826 449 826 l 379 826 z "},"z":{"ha":707,"x_min":57,"x_max":656,"o":"m 89 0 q 66 9 75 0 q 57 32 57 18 l 57 81 q 63 103 57 92 q 76 125 69 115 l 460 613 l 101 613 q 78 622 88 613 q 69 644 69 631 l 69 690 q 78 713 69 704 q 101 722 88 722 l 596 722 q 619 713 610 722 q 628 690 628 704 l 628 639 q 622 617 628 628 q 608 596 615 606 l 229 110 l 624 110 q 647 101 639 110 q 656 78 656 93 l 656 32 q 647 9 656 18 q 624 0 638 0 l 89 0 z "},"ź":{"ha":707,"x_min":57,"x_max":656,"o":"m 89 0 q 66 9 75 0 q 57 32 57 18 l 57 81 q 63 103 57 92 q 76 125 69 115 l 460 613 l 101 613 q 78 622 88 613 q 69 644 69 631 l 69 690 q 78 713 69 704 q 101 722 88 722 l 596 722 q 619 713 610 722 q 628 690 628 704 l 628 639 q 622 617 628 628 q 608 596 615 606 l 229 110 l 624 110 q 647 101 639 110 q 656 78 656 93 l 656 32 q 647 9 656 18 q 624 0 638 0 l 89 0 m 315 826 q 293 849 293 826 q 300 867 293 860 l 404 992 q 427 1013 418 1007 q 456 1018 436 1018 l 550 1018 q 569 1010 563 1018 q 576 990 576 1003 q 569 974 576 981 l 408 842 q 388 829 397 832 q 363 826 378 826 l 315 826 z "},"ž":{"ha":707,"x_min":57,"x_max":656,"o":"m 89 0 q 66 9 75 0 q 57 32 57 18 l 57 81 q 63 103 57 92 q 76 125 69 115 l 460 613 l 101 613 q 78 622 88 613 q 69 644 69 631 l 69 690 q 78 713 69 704 q 101 722 88 722 l 596 722 q 619 713 610 722 q 628 690 628 704 l 628 639 q 622 617 628 628 q 608 596 615 606 l 229 110 l 624 110 q 647 101 639 110 q 656 78 656 93 l 656 32 q 647 9 656 18 q 624 0 638 0 l 89 0 m 336 826 q 313 830 322 826 q 290 847 303 833 l 163 975 q 147 1001 147 990 q 168 1018 147 1018 l 204 1018 q 243 1008 226 1018 l 357 929 l 471 1008 q 510 1018 488 1018 l 546 1018 q 567 1001 567 1018 q 551 975 567 990 l 424 847 q 401 830 410 833 q 378 826 392 826 l 336 826 z "},"ż":{"ha":707,"x_min":57,"x_max":656,"o":"m 89 0 q 66 9 75 0 q 57 32 57 18 l 57 81 q 63 103 57 92 q 76 125 69 115 l 460 613 l 101 613 q 78 622 88 613 q 69 644 69 631 l 69 690 q 78 713 69 704 q 101 722 88 722 l 596 722 q 619 713 610 722 q 628 690 628 704 l 628 639 q 622 617 628 628 q 608 596 615 606 l 229 110 l 624 110 q 647 101 639 110 q 656 78 656 93 l 656 32 q 647 9 656 18 q 624 0 638 0 l 89 0 m 311 851 q 289 860 297 851 q 281 882 281 868 l 281 971 q 289 994 281 985 q 311 1003 297 1003 l 400 1003 q 423 994 414 1003 q 432 971 432 985 l 432 882 q 423 860 432 868 q 400 851 414 851 l 311 851 z "},"ﬁ":{"ha":763,"x_min":25,"x_max":660,"o":"m 207 0 q 184 9 193 0 q 175 32 175 18 l 175 611 l 57 611 q 34 620 43 611 q 25 643 25 629 l 25 690 q 34 713 25 704 q 57 722 43 722 l 175 722 l 175 792 q 414 1028 175 1028 l 628 1028 q 651 1019 642 1028 q 660 996 660 1010 l 660 949 q 651 926 660 935 q 628 917 642 917 l 417 917 q 329 884 354 917 q 304 785 304 851 l 304 722 l 628 722 q 651 713 642 722 q 660 690 660 704 l 660 32 q 651 9 660 18 q 628 0 642 0 l 564 0 q 541 9 550 0 q 532 32 532 18 l 532 611 l 304 611 l 304 32 q 295 9 304 18 q 272 0 286 0 l 207 0 z "},"ﬂ":{"ha":833,"x_min":25,"x_max":729,"o":"m 207 0 q 184 9 193 0 q 175 32 175 18 l 175 611 l 57 611 q 34 620 43 611 q 25 643 25 629 l 25 690 q 34 713 25 704 q 57 722 43 722 l 175 722 l 175 792 q 414 1028 175 1028 l 492 1028 q 515 1019 506 1028 q 524 996 524 1010 l 524 949 q 515 926 524 935 q 492 917 506 917 l 417 917 q 329 884 354 917 q 304 785 304 851 l 304 722 l 601 722 l 601 996 q 610 1019 601 1010 q 633 1028 619 1028 l 697 1028 q 720 1019 711 1028 q 729 996 729 1010 l 729 32 q 720 9 729 18 q 697 0 711 0 l 633 0 q 610 9 619 0 q 601 32 601 18 l 601 611 l 304 611 l 304 32 q 295 9 304 18 q 272 0 286 0 l 207 0 z "},"ª":{"ha":506,"x_min":71,"x_max":414,"o":"m 203 596 q 107 626 143 596 q 71 703 71 657 q 113 790 71 756 q 228 835 154 824 l 314 847 q 253 894 314 894 q 194 878 219 894 q 165 868 181 868 l 122 868 q 96 888 96 868 q 116 926 96 904 q 173 963 136 947 q 257 979 210 979 q 372 938 331 979 q 414 829 414 897 l 414 632 q 406 611 414 619 q 386 603 399 603 l 343 603 q 323 611 331 603 q 315 632 315 619 l 315 643 q 271 609 303 622 q 203 596 239 596 m 221 676 q 291 703 268 676 q 314 772 314 729 l 253 763 q 188 742 206 756 q 171 707 171 728 q 185 685 171 693 q 221 676 199 676 z "},"º":{"ha":499,"x_min":74,"x_max":425,"o":"m 250 596 q 125 635 171 596 q 75 750 79 674 l 74 788 l 75 825 q 127 940 79 900 q 250 979 175 979 q 372 940 325 979 q 424 825 419 900 q 425 788 425 818 q 424 750 425 757 q 374 635 419 674 q 250 596 329 596 m 250 683 q 322 757 318 683 q 324 788 324 764 q 322 818 324 811 q 301 873 319 853 q 250 893 283 893 q 198 873 217 893 q 178 818 179 853 l 176 788 l 178 757 q 250 683 182 683 z "},"А":{"ha":931,"x_min":28,"x_max":903,"o":"m 56 0 q 36 8 44 0 q 28 28 28 17 q 29 43 28 39 l 374 942 q 418 972 385 972 l 513 972 q 557 942 546 972 l 900 43 l 903 28 q 894 8 903 17 q 875 0 886 0 l 804 0 q 781 8 789 0 q 769 24 772 15 l 693 221 l 238 221 l 161 24 q 149 8 158 15 q 126 0 140 0 l 56 0 m 653 340 l 465 833 l 278 340 l 653 340 z "},"Б":{"ha":889,"x_min":121,"x_max":843,"o":"m 153 0 q 130 9 139 0 q 121 32 121 18 l 121 939 q 130 963 121 954 q 153 972 139 972 l 757 972 q 781 963 772 972 q 790 939 790 954 l 790 883 q 781 860 790 869 q 757 851 772 851 l 257 851 l 257 571 l 532 571 q 761 495 679 571 q 843 289 843 419 q 808 151 843 217 q 702 42 772 85 q 532 0 632 0 l 153 0 m 515 113 q 653 165 601 113 q 704 293 704 217 q 656 415 704 369 q 515 460 608 460 l 257 460 l 257 113 l 515 113 z "},"В":{"ha":928,"x_min":121,"x_max":851,"o":"m 153 0 q 130 9 139 0 q 121 32 121 18 l 121 939 q 130 963 121 954 q 153 972 139 972 l 533 972 q 757 901 682 972 q 832 715 832 831 q 797 586 832 638 q 713 511 761 535 q 811 421 771 482 q 851 281 851 360 q 816 139 851 203 q 711 38 781 75 q 544 0 642 0 l 153 0 m 513 561 q 647 601 600 561 q 693 714 693 642 q 647 822 693 785 q 513 860 601 860 l 257 860 l 257 561 l 513 561 m 526 113 q 663 160 614 113 q 713 281 713 207 q 663 403 713 357 q 526 450 614 450 l 257 450 l 257 113 l 526 113 z "},"Г":{"ha":726,"x_min":121,"x_max":721,"o":"m 153 0 q 130 9 139 0 q 121 32 121 18 l 121 939 q 130 963 121 954 q 153 972 139 972 l 688 972 q 712 963 703 972 q 721 939 721 954 l 721 883 q 712 860 721 869 q 688 851 703 851 l 257 851 l 257 32 q 247 9 257 18 q 224 0 238 0 l 153 0 z "},"Ѓ":{"ha":726,"x_min":121,"x_max":721,"o":"m 153 0 q 130 9 139 0 q 121 32 121 18 l 121 939 q 130 963 121 954 q 153 972 139 972 l 688 972 q 712 963 703 972 q 721 939 721 954 l 721 883 q 712 860 721 869 q 688 851 703 851 l 257 851 l 257 32 q 247 9 257 18 q 224 0 238 0 l 153 0 m 407 1042 q 385 1064 385 1042 q 392 1082 385 1075 l 496 1207 q 519 1228 510 1222 q 547 1233 528 1233 l 650 1233 q 669 1226 663 1233 q 676 1206 676 1218 q 669 1189 676 1196 l 508 1057 q 488 1044 497 1047 q 463 1042 478 1042 l 407 1042 z "},"Ґ":{"ha":726,"x_min":121,"x_max":721,"o":"m 688 1167 q 711 1158 701 1167 q 721 1135 721 1149 l 721 883 q 712 860 721 869 q 688 851 703 851 l 257 851 l 257 32 q 247 9 257 18 q 224 0 238 0 l 153 0 q 130 9 139 0 q 121 32 121 18 l 121 939 q 130 963 121 954 q 153 972 139 972 l 585 972 l 585 1135 q 594 1158 585 1149 q 617 1167 603 1167 l 688 1167 z "},"Д":{"ha":983,"x_min":32,"x_max":936,"o":"m 64 -193 q 41 -185 50 -193 q 32 -161 32 -176 l 32 93 q 41 116 32 107 q 64 125 50 125 l 93 125 q 228 642 228 125 l 228 940 q 237 963 228 954 q 260 972 246 972 l 801 972 q 826 963 817 972 q 835 939 835 954 l 835 125 l 903 125 q 926 116 917 125 q 936 93 936 107 l 936 -161 q 927 -184 936 -175 q 903 -193 918 -193 l 832 -193 q 809 -185 818 -193 q 800 -161 800 -176 l 800 0 l 168 0 l 168 -161 q 159 -184 168 -175 q 135 -193 150 -193 l 64 -193 m 699 125 l 699 847 l 361 847 l 361 624 q 339 307 361 428 q 271 125 317 186 l 699 125 z "},"Е":{"ha":842,"x_min":121,"x_max":769,"o":"m 153 0 q 130 9 139 0 q 121 32 121 18 l 121 939 q 130 963 121 954 q 153 972 139 972 l 726 972 q 749 963 740 972 q 758 939 758 954 l 758 886 q 750 863 758 872 q 726 854 742 854 l 254 854 l 254 550 l 696 550 q 719 541 710 550 q 728 517 728 532 l 728 465 q 719 442 728 451 q 696 433 710 433 l 254 433 l 254 118 l 738 118 q 761 110 753 118 q 769 86 769 101 l 769 32 q 760 9 769 18 q 738 0 751 0 l 153 0 z "},"Ѐ":{"ha":842,"x_min":121,"x_max":769,"o":"m 153 0 q 130 9 139 0 q 121 32 121 18 l 121 939 q 130 963 121 954 q 153 972 139 972 l 726 972 q 749 963 740 972 q 758 939 758 954 l 758 886 q 750 863 758 872 q 726 854 742 854 l 254 854 l 254 550 l 696 550 q 719 541 710 550 q 728 517 728 532 l 728 465 q 719 442 728 451 q 696 433 710 433 l 254 433 l 254 118 l 738 118 q 761 110 753 118 q 769 86 769 101 l 769 32 q 760 9 769 18 q 738 0 751 0 l 153 0 m 442 1042 q 417 1044 426 1042 q 396 1057 407 1047 l 235 1189 q 228 1206 228 1196 q 235 1226 228 1218 q 254 1233 242 1233 l 357 1233 q 385 1228 376 1233 q 408 1207 394 1222 l 513 1082 q 519 1064 519 1075 q 497 1042 519 1042 l 442 1042 z "},"Ё":{"ha":842,"x_min":121,"x_max":769,"o":"m 153 0 q 130 9 139 0 q 121 32 121 18 l 121 939 q 130 963 121 954 q 153 972 139 972 l 726 972 q 749 963 740 972 q 758 939 758 954 l 758 886 q 750 863 758 872 q 726 854 742 854 l 254 854 l 254 550 l 696 550 q 719 541 710 550 q 728 517 728 532 l 728 465 q 719 442 728 451 q 696 433 710 433 l 254 433 l 254 118 l 738 118 q 761 110 753 118 q 769 86 769 101 l 769 32 q 760 9 769 18 q 738 0 751 0 l 153 0 m 292 1113 q 269 1121 278 1113 q 261 1143 261 1129 l 261 1218 q 269 1241 261 1232 q 292 1250 278 1250 l 368 1250 q 391 1241 382 1250 q 400 1218 400 1232 l 400 1143 q 391 1121 400 1129 q 368 1113 382 1113 l 292 1113 m 528 1113 q 505 1121 514 1113 q 496 1143 496 1129 l 496 1218 q 505 1241 496 1232 q 528 1250 514 1250 l 603 1250 q 626 1241 617 1250 q 635 1218 635 1232 l 635 1143 q 626 1121 635 1129 q 603 1113 617 1113 l 528 1113 z "},"Ж":{"ha":1376,"x_min":53,"x_max":1322,"o":"m 1319 49 q 1322 33 1322 44 q 1313 10 1322 19 q 1290 0 1304 0 l 1213 0 q 1175 21 1188 0 l 908 431 l 754 431 l 754 31 q 745 8 754 17 q 722 0 736 0 l 653 0 q 630 9 639 0 q 621 32 621 18 l 621 431 l 465 431 l 200 21 q 185 6 193 11 q 164 0 178 0 l 85 0 q 62 10 71 0 q 53 33 53 19 q 57 49 53 43 l 350 501 l 83 926 q 76 944 76 938 q 106 972 76 972 l 179 972 q 226 950 211 972 l 472 554 l 621 556 l 621 940 q 630 963 621 954 q 653 972 639 972 l 722 972 q 745 963 736 972 q 754 940 754 954 l 754 556 l 901 554 l 1147 950 q 1194 972 1163 972 l 1271 972 q 1292 965 1285 972 q 1299 944 1299 957 q 1293 926 1299 940 l 1025 501 l 1319 49 z "},"З":{"ha":863,"x_min":54,"x_max":786,"o":"m 414 -14 q 226 19 304 -14 q 104 108 147 51 q 54 233 61 164 l 54 236 q 63 253 54 247 q 83 260 71 260 l 153 260 q 178 253 168 260 q 192 231 188 247 q 265 138 208 172 q 413 104 322 104 q 580 150 513 104 q 647 275 647 196 q 588 402 647 357 q 428 447 529 447 l 329 447 q 306 456 315 447 q 297 479 297 465 l 297 528 q 306 552 297 543 q 329 561 315 561 l 422 561 q 563 600 511 561 q 615 718 615 639 q 558 827 615 786 q 417 868 501 868 q 274 836 329 868 q 204 739 218 804 q 171 711 197 711 l 96 711 q 74 719 83 711 q 67 740 65 728 q 167 919 76 851 q 419 986 257 986 q 601 950 525 986 q 715 854 676 914 q 753 725 753 794 q 642 511 753 576 q 750 413 714 475 q 786 272 786 351 q 740 123 786 188 q 610 22 694 58 q 414 -14 526 -14 z "},"И":{"ha":1031,"x_min":121,"x_max":910,"o":"m 153 0 q 130 9 139 0 q 121 33 121 18 l 121 939 q 130 963 121 954 q 153 972 139 972 l 225 972 q 248 963 239 972 q 257 939 257 953 l 257 221 l 775 953 q 810 972 786 972 l 878 972 q 901 963 892 972 q 910 939 910 954 l 910 32 q 901 9 910 18 q 878 0 892 0 l 807 0 q 783 9 793 0 q 774 32 774 18 l 774 744 l 257 19 q 222 0 246 0 l 153 0 z "},"Й":{"ha":1031,"x_min":121,"x_max":910,"o":"m 153 0 q 130 9 139 0 q 121 33 121 18 l 121 939 q 130 963 121 954 q 153 972 139 972 l 225 972 q 248 963 239 972 q 257 939 257 953 l 257 221 l 775 953 q 810 972 786 972 l 878 972 q 901 963 892 972 q 910 939 910 954 l 910 32 q 901 9 910 18 q 878 0 892 0 l 807 0 q 783 9 793 0 q 774 32 774 18 l 774 744 l 257 19 q 222 0 246 0 l 153 0 m 511 1028 q 346 1076 396 1028 q 296 1200 296 1125 q 303 1219 296 1211 q 322 1226 310 1226 l 371 1226 q 390 1219 383 1226 q 397 1200 397 1211 q 511 1114 397 1114 q 625 1200 625 1114 q 632 1219 625 1211 q 651 1226 639 1226 l 700 1226 q 719 1219 713 1226 q 726 1200 726 1211 q 676 1076 726 1125 q 511 1028 626 1028 z "},"Ѝ":{"ha":1031,"x_min":121,"x_max":910,"o":"m 153 0 q 130 9 139 0 q 121 33 121 18 l 121 939 q 130 963 121 954 q 153 972 139 972 l 225 972 q 248 963 239 972 q 257 939 257 953 l 257 221 l 775 953 q 810 972 786 972 l 878 972 q 901 963 892 972 q 910 939 910 954 l 910 32 q 901 9 910 18 q 878 0 892 0 l 807 0 q 783 9 793 0 q 774 32 774 18 l 774 744 l 257 19 q 222 0 246 0 l 153 0 m 504 1042 q 479 1044 489 1042 q 458 1057 469 1047 l 297 1189 q 290 1206 290 1196 q 297 1226 290 1218 q 317 1233 304 1233 l 419 1233 q 448 1228 439 1233 q 471 1207 457 1222 l 575 1082 q 582 1064 582 1075 q 560 1042 582 1042 l 504 1042 z "},"К":{"ha":889,"x_min":121,"x_max":836,"o":"m 832 49 q 836 33 836 43 q 827 10 836 19 q 804 0 818 0 l 725 0 q 703 6 711 0 q 689 21 696 11 l 422 431 l 257 431 l 257 32 q 247 9 257 18 q 224 0 238 0 l 153 0 q 130 9 139 0 q 121 32 121 18 l 121 939 q 130 963 121 954 q 153 972 139 972 l 224 972 q 248 963 239 972 q 257 939 257 954 l 257 556 l 415 554 l 661 950 q 708 972 675 972 l 783 972 q 813 944 813 972 q 806 926 813 938 l 539 501 l 832 49 z "},"Ќ":{"ha":889,"x_min":121,"x_max":836,"o":"m 832 49 q 836 33 836 43 q 827 10 836 19 q 804 0 818 0 l 725 0 q 703 6 711 0 q 689 21 696 11 l 422 431 l 257 431 l 257 32 q 247 9 257 18 q 224 0 238 0 l 153 0 q 130 9 139 0 q 121 32 121 18 l 121 939 q 130 963 121 954 q 153 972 139 972 l 224 972 q 248 963 239 972 q 257 939 257 954 l 257 556 l 415 554 l 661 950 q 708 972 675 972 l 783 972 q 813 944 813 972 q 806 926 813 938 l 539 501 l 832 49 m 392 1042 q 369 1064 369 1042 q 376 1082 369 1075 l 481 1207 q 503 1228 494 1222 q 532 1233 513 1233 l 635 1233 q 654 1226 647 1233 q 661 1206 661 1218 q 654 1189 661 1196 l 493 1057 q 472 1044 482 1047 q 447 1042 463 1042 l 392 1042 z "},"Л":{"ha":979,"x_min":32,"x_max":858,"o":"m 754 0 q 731 9 740 0 q 722 32 722 18 l 722 847 l 378 847 l 378 624 q 346 267 378 400 q 246 71 314 133 q 65 1 178 8 q 42 10 51 0 q 32 35 32 19 l 32 96 q 40 117 32 108 q 61 128 47 126 q 198 261 151 140 q 244 642 244 382 l 244 940 q 253 963 244 954 q 276 972 263 972 l 826 972 q 849 963 840 972 q 858 939 858 954 l 858 32 q 849 9 858 18 q 826 0 840 0 l 754 0 z "},"М":{"ha":1103,"x_min":121,"x_max":983,"o":"m 153 0 q 130 9 139 0 q 121 32 121 18 l 121 939 q 130 963 121 954 q 153 972 139 972 l 222 972 q 258 950 244 972 l 551 389 l 847 950 q 859 965 850 958 q 882 972 868 972 l 950 972 q 974 963 965 972 q 983 939 983 954 l 983 32 q 974 9 983 18 q 950 0 964 0 l 882 0 q 859 9 868 0 q 850 32 850 18 l 850 715 l 618 263 q 574 233 604 233 l 531 233 q 486 263 500 233 l 253 715 l 253 32 q 244 9 253 18 q 221 0 235 0 l 153 0 z "},"Н":{"ha":992,"x_min":121,"x_max":871,"o":"m 153 0 q 130 9 139 0 q 121 32 121 18 l 121 939 q 130 963 121 954 q 153 972 139 972 l 224 972 q 248 963 239 972 q 257 939 257 954 l 257 556 l 735 556 l 735 939 q 744 963 735 954 q 767 972 753 972 l 838 972 q 862 963 853 972 q 871 939 871 954 l 871 32 q 861 9 871 18 q 838 0 851 0 l 767 0 q 744 9 753 0 q 735 32 735 18 l 735 431 l 257 431 l 257 32 q 247 9 257 18 q 224 0 238 0 l 153 0 z "},"О":{"ha":940,"x_min":83,"x_max":858,"o":"m 471 -14 q 190 81 289 -14 q 85 368 90 176 q 83 486 83 410 q 85 603 83 563 q 193 888 90 790 q 471 986 296 986 q 747 888 644 986 q 856 603 850 790 q 858 486 858 522 q 856 368 858 451 q 751 81 850 176 q 471 -14 651 -14 m 471 104 q 646 171 581 104 q 717 375 711 238 q 719 486 719 458 q 717 597 719 517 q 645 801 711 735 q 471 868 579 868 q 295 801 361 868 q 224 597 229 735 q 222 486 222 557 q 224 375 222 417 q 295 171 229 238 q 471 104 361 104 z "},"П":{"ha":992,"x_min":121,"x_max":871,"o":"m 153 0 q 130 9 139 0 q 121 32 121 18 l 121 939 q 130 963 121 954 q 153 972 139 972 l 838 972 q 862 963 853 972 q 871 939 871 954 l 871 32 q 861 9 871 18 q 838 0 851 0 l 767 0 q 744 9 753 0 q 735 32 735 18 l 735 847 l 257 847 l 257 32 q 247 9 257 18 q 224 0 238 0 l 153 0 z "},"Р":{"ha":892,"x_min":121,"x_max":843,"o":"m 153 0 q 130 9 139 0 q 121 32 121 18 l 121 939 q 130 963 121 954 q 153 972 139 972 l 506 972 q 753 896 663 972 q 843 675 843 819 q 753 455 843 531 q 506 379 664 379 l 260 379 l 260 32 q 250 9 260 18 q 226 0 240 0 l 153 0 m 499 496 q 652 542 600 496 q 704 675 704 588 q 653 809 704 763 q 499 856 601 856 l 258 856 l 258 496 l 499 496 z "},"С":{"ha":925,"x_min":83,"x_max":861,"o":"m 471 -14 q 188 86 285 -14 q 85 363 92 186 q 83 485 83 400 q 85 610 83 571 q 189 885 92 785 q 471 986 286 986 q 681 942 594 986 q 811 828 767 899 q 860 676 856 757 l 860 674 q 851 655 860 663 q 831 647 842 647 l 754 647 q 719 679 726 647 q 635 826 696 783 q 471 868 574 868 q 224 603 232 868 q 222 488 222 565 q 224 369 222 410 q 471 104 232 104 q 635 147 574 104 q 719 293 697 189 q 732 318 724 311 q 754 325 740 325 l 831 325 q 852 317 843 325 q 860 297 861 310 q 811 144 856 215 q 681 30 767 74 q 471 -14 594 -14 z "},"Т":{"ha":804,"x_min":35,"x_max":769,"o":"m 365 0 q 342 9 351 0 q 333 32 333 18 l 333 849 l 67 849 q 44 858 53 849 q 35 881 35 867 l 35 939 q 44 963 35 953 q 67 972 53 972 l 736 972 q 760 963 751 972 q 769 939 769 954 l 769 881 q 760 858 769 867 q 736 849 750 849 l 471 849 l 471 32 q 461 9 471 18 q 438 0 451 0 l 365 0 z "},"У":{"ha":818,"x_min":18,"x_max":818,"o":"m 790 972 q 810 964 801 972 q 818 944 818 956 q 814 925 818 933 l 531 283 q 444 116 482 174 q 354 29 406 58 q 221 0 303 0 l 165 0 q 142 9 151 0 q 133 32 133 18 l 133 90 q 142 114 133 104 q 165 124 151 124 l 214 124 q 306 158 269 124 q 382 272 343 192 l 22 928 q 18 943 18 936 q 27 963 18 954 q 47 972 36 972 l 126 972 q 160 949 147 972 l 449 422 l 681 949 q 694 966 685 960 q 715 972 704 972 l 790 972 z "},"Ў":{"ha":818,"x_min":18,"x_max":818,"o":"m 790 972 q 810 964 801 972 q 818 944 818 956 q 814 925 818 933 l 531 283 q 444 116 482 174 q 354 29 406 58 q 221 0 303 0 l 165 0 q 142 9 151 0 q 133 32 133 18 l 133 90 q 142 114 133 104 q 165 124 151 124 l 214 124 q 306 158 269 124 q 382 272 343 192 l 22 928 q 18 943 18 936 q 27 963 18 954 q 47 972 36 972 l 126 972 q 160 949 147 972 l 449 422 l 681 949 q 694 966 685 960 q 715 972 704 972 l 790 972 m 419 1028 q 254 1076 304 1028 q 204 1200 204 1125 q 211 1219 204 1211 q 231 1226 218 1226 l 279 1226 q 299 1219 292 1226 q 306 1200 306 1211 q 419 1114 306 1114 q 533 1200 533 1114 q 540 1219 533 1211 q 560 1226 547 1226 l 608 1226 q 628 1219 621 1226 q 635 1200 635 1211 q 585 1076 635 1125 q 419 1028 535 1028 z "},"Ф":{"ha":1189,"x_min":83,"x_max":1106,"o":"m 558 -44 q 535 -35 544 -44 q 526 -12 526 -26 l 526 97 q 211 186 319 97 q 85 457 103 275 q 83 497 83 469 q 85 554 83 538 q 210 822 94 731 q 526 914 326 914 l 526 1010 q 535 1033 526 1025 q 558 1042 544 1042 l 631 1042 q 653 1033 644 1042 q 663 1010 663 1024 l 663 914 q 978 822 863 914 q 1103 554 1094 731 q 1106 506 1106 518 q 1103 457 1106 493 q 978 186 1088 275 q 663 97 868 97 l 663 -12 q 653 -35 663 -26 q 631 -44 644 -44 l 558 -44 m 526 796 q 310 736 386 796 q 224 549 235 676 q 222 513 222 535 q 224 464 222 482 q 308 276 231 336 q 526 217 385 217 l 526 796 m 661 217 q 965 464 951 217 q 967 507 967 478 q 965 549 967 535 q 876 736 951 676 q 661 796 801 796 l 661 217 z "},"Х":{"ha":879,"x_min":33,"x_max":847,"o":"m 63 0 q 42 8 51 0 q 33 28 33 17 q 39 46 33 38 l 357 494 l 54 926 q 50 944 50 933 q 58 964 50 956 q 78 972 67 972 l 161 972 q 199 949 182 972 l 443 601 l 686 949 q 722 972 700 972 l 801 972 q 821 964 813 972 q 829 944 829 956 q 824 926 829 932 l 525 493 l 842 46 q 847 28 847 38 q 839 8 847 17 q 818 0 831 0 l 733 0 q 696 24 713 0 l 438 383 l 181 24 q 144 0 167 0 l 63 0 z "},"Ч":{"ha":908,"x_min":78,"x_max":786,"o":"m 682 0 q 659 9 668 0 q 650 32 650 18 l 650 389 q 549 338 619 356 q 406 319 478 319 q 78 621 78 319 l 78 940 q 87 963 78 954 q 110 972 96 972 l 181 972 q 204 963 194 972 q 214 940 214 954 l 214 629 q 264 490 214 533 q 429 446 314 446 q 582 478 514 446 q 650 589 650 510 l 650 940 q 659 963 650 954 q 682 972 668 972 l 753 972 q 776 963 767 972 q 786 940 786 954 l 786 32 q 776 9 786 18 q 753 0 767 0 l 682 0 z "},"Ц":{"ha":1019,"x_min":121,"x_max":972,"o":"m 868 -194 q 845 -185 854 -194 q 836 -162 836 -176 l 836 0 l 153 0 q 130 9 139 0 q 121 33 121 18 l 121 940 q 130 964 121 956 q 153 972 139 972 l 224 972 q 247 963 238 972 q 257 940 257 954 l 257 125 l 735 125 l 735 940 q 744 963 735 954 q 767 972 753 972 l 838 972 q 861 963 851 972 q 871 940 871 954 l 871 125 l 939 125 q 963 116 953 125 q 972 93 972 107 l 972 -162 q 963 -185 972 -176 q 939 -194 953 -194 l 868 -194 z "},"Ш":{"ha":1331,"x_min":121,"x_max":1210,"o":"m 153 0 q 130 9 139 0 q 121 32 121 18 l 121 940 q 130 964 121 956 q 153 972 139 972 l 224 972 q 247 963 238 972 q 257 940 257 954 l 257 125 l 597 125 l 597 940 q 606 963 597 954 q 629 972 615 972 l 700 972 q 724 963 714 972 q 733 940 733 954 l 733 125 l 1074 125 l 1074 940 q 1083 963 1074 954 q 1106 972 1092 972 l 1176 972 q 1201 963 1192 972 q 1210 940 1210 954 l 1210 32 q 1201 9 1210 18 q 1176 0 1192 0 l 153 0 z "},"Щ":{"ha":1358,"x_min":121,"x_max":1311,"o":"m 1207 -194 q 1184 -185 1193 -194 q 1175 -162 1175 -176 l 1175 0 l 153 0 q 130 9 139 0 q 121 32 121 18 l 121 940 q 130 964 121 956 q 153 972 139 972 l 224 972 q 247 963 238 972 q 257 940 257 954 l 257 125 l 597 125 l 597 940 q 606 963 597 954 q 629 972 615 972 l 700 972 q 724 963 714 972 q 733 940 733 954 l 733 125 l 1074 125 l 1074 940 q 1083 963 1074 954 q 1106 972 1092 972 l 1176 972 q 1201 963 1192 972 q 1210 940 1210 954 l 1210 125 l 1278 125 q 1301 116 1292 125 q 1311 93 1311 107 l 1311 -162 q 1301 -185 1311 -176 q 1278 -194 1292 -194 l 1207 -194 z "},"Џ":{"ha":992,"x_min":121,"x_max":871,"o":"m 458 -194 q 435 -185 444 -194 q 426 -162 426 -176 l 426 0 l 153 0 q 130 9 139 0 q 121 32 121 18 l 121 940 q 130 964 121 956 q 153 972 139 972 l 224 972 q 247 963 238 972 q 257 940 257 954 l 257 125 l 735 125 l 735 940 q 744 963 735 954 q 767 972 753 972 l 838 972 q 861 963 851 972 q 871 940 871 954 l 871 32 q 861 9 871 18 q 838 0 851 0 l 563 0 l 563 -162 q 553 -185 563 -176 q 531 -194 544 -194 l 458 -194 z "},"Ь":{"ha":838,"x_min":121,"x_max":786,"o":"m 153 0 q 130 9 139 0 q 121 32 121 18 l 121 940 q 130 963 121 954 q 153 972 139 972 l 224 972 q 247 963 238 972 q 257 940 257 954 l 257 603 l 469 603 q 704 527 622 603 q 786 306 786 451 q 751 154 786 224 q 644 42 715 85 q 469 0 572 0 l 153 0 m 457 117 q 597 169 546 117 q 647 308 647 221 q 457 488 647 488 l 257 488 l 257 117 l 457 117 z "}}}
